<?xml version="1.0" encoding="UTF-8"?>
<svg id="Layer_1" data-name="Layer 1" xmlns="http://www.w3.org/2000/svg" viewBox="0 0 500 500">
  <defs>
    <style>
      .cls-1 {
        fill: #43ccf3;
      }

      .cls-2 {
        fill: #851ea6;
      }

      .cls-3 {
        fill: #bc96f8;
      }

      .cls-4 {
        fill: #ff74ff;
      }

      .cls-5 {
        fill: #10120a;
      }

      .cls-6 {
        fill: #fdf;
      }

      .cls-7 {
        fill: #702eb2;
      }
    </style>
  </defs>
  <g id="XtH26I">
    <g>
      <g>
        <path class="cls-4" d="M382.11,129.44h7.23c12.55,0,28.35,22.85,34.76,32.4,5.94,8.86,11.95,18.63,17.44,27.8,8.77,14.65,21.55,30.22,5.41,44.97-2.13,1.94-12.96,8.38-13.33,9.1-.4.77.77,6,.26,7.45,17.47-6.42,34.78-.61,43.61,15.85,8.1,15.1,8.58,34.05.94,49.47-1.79,3.61-5.44,7.4-6.88,10.37-1.09,2.25-1.13,5.97-2.3,8.89-1.9,4.74-5.05,8.51-9.42,11.11-1.38.82-5.6,2.3-6.25,2.84-.47.39-2.26,4.12-1.53,4.77,1.89,1.67,5.39,2.94,7.47,5.14,12.81,13.6-11.04,30.85-22.39,35.43-2.17.88-4.69,1.65-6.99,2.11,2.06,8.82-2.51,15.38-9.11,20.5-13.41,10.4-27.6,10.79-43.25,5.04-17.07-6.27-27.19-20.62-34.16-36.73-15.14,19.53-43.41,37.88-69.02,35.9-13.49-1.04-26.12-9.06-23.09-24.24-17.42-.42-32.83-8.36-41.28-23.78-1.85-3.37-4.65-12.08-7.82-13.63-3.94-1.94-9.89,1.11-14.15,1.44-10.57.82-16.66-7.68-15.57-17.66-7.56,1.23-16.52,1.95-23.09-2.72-9.15,8.38-28.05,12.21-39.41,7.15-6.01-2.67-10.47-8.78-14.45-13.76-.22,13.18-.54,25.56-11.19,34.75-12.75,11-33.15,14.94-46.86,3.48-11.88-9.93-14.92-19.46-14.23-34.73.67-15.01,3.92-30.53,4.68-45.62-6.27-5.07-8.85-14.07-10.52-21.78-3.55-16.36-1.41-27.38,12.69-37.23.84-.59,3.46-1.72,3.88-2.18,1.34-1.5.04-12.26-.04-14.92-.58-18.06-1.89-36.02-3.7-54.11-2.02-20.27-7.53-34.47,11.98-48.19,16.22-11.4,57.73-20.99,77.33-19.2,1.5.14,4.67,1.36,5.53,1.27,1.16-.11,6.45-3.13,8.8-3.75,14.33-3.77,23.93,1.6,31.4,13.66,2.98-2.13,5.23-4.99,8.19-7.19,14.02-10.43,37.56-13.35,52.98-4.55,1.34.76,5.32,4.02,6.09,4.18s6.61-1.22,8.29-1.3c1.21-.06,2.55-.09,3.75-.02,2.02.1,5.92,1.54,6.96,1.43.5-.05,6.63-4.06,8.74-4.81,8.67-3.06,15.55-1.33,23.25-2.87,4.52-.91,12.52-5.07,17.45-6.8,20.4-7.14,65.65-19.9,81.38.25,8.8,11.28,3.76,32.54-.46,45ZM329.88,177.95c3.9-3.74,7.37-8.05,10.94-12.15l4.21-23.31c11.6-2.16,22.12-3.15,27.19-15.26,6.04-14.42,11.34-38.85-9.04-43.44-18.74-4.22-55.66,7.07-73.4,15.1-1.31.59-3.97,2.79-5,2.96s-3.36-.99-4.68-1.2c-5.17-.82-10.31-.47-15.29,1.26-4.68,1.63-7.8,4.49-10.71,8.41-6.78-6.35-18.24-4.93-25.19.47-6.25-13.78-25.61-14.08-38.11-10.12-12.16,3.86-21.95,13.78-29.52,23.65-.18-20.5-19.86-32.45-35.51-16.35-7-5.65-16.73-3.91-25.05-2.69-14.33,2.1-45.36,9.25-56.28,18.34-12.58,10.47-5.55,30.94-4.2,45.25,1.27,13.41,2.25,27.13,2.82,40.55.36,8.48-1.38,17.58,2.31,25.43-9.41,4.06-20.03,10.36-21,21.68-.54,6.33,2.08,23.86,6.55,28.46,1.17,1.21,3.94,1.93,4.2,3.26-.47,6.04-.42,12.15-.94,18.19-.66,7.75-1.68,15.54-2.33,23.32-.87,10.34-4.61,22.94,4.91,30.54,1.39,1.11,3.07,1.69,4.42,2.81,2.18,1.82,3.03,3.86,6.04,5.38,12.49,6.32,36.81-3.73,39.08-18.32.98-6.28-1.33-18.57.93-23.79,1.13-2.61,9.32-4.3,11.55-6.64,3.33,7.53,7.65,17.25,15.77,20.59,9.93,4.08,26.11-1.16,33.73-8.41,10.53,5.44,23.07,5.1,33.28-1.01.54.52-4,4.59-4.43,5.6-.31.71.11,1.4.47,1.39.45-.02,5.21-5.02,6.61-5.97,3.01-2.05,11.6-6.57,14.97-7.42,7.32-1.85,12.28,1.17,18.98,1.3,4.11.08,6.72-1.76,9.8-4.23,2.82-2.26,3.69-5.62,8.17-3.72-.27-1.93.26-3.73.47-5.6.38-3.41.52-6.93,1.4-10.26,1.48-5.61,4.34-10.28,7.74-14.88.93-1.26,4-4.13,3.93-5.35-.02-.38-.46-.65-.47-.75-.04-.43.1-1.08,0-1.4,1.97-.11,4.56-3.11,4.65-4.92.06-1.14-.94-2.31-.22-3.47.53-.85,7.98-5.31,9.23-5.7,3.4-1.07,6.04.69,8.26,3.15.25,1.1-3.84,2.14-4.82,2.62-17.3,8.46-26.56,27.58-21.91,46.49.76,3.07,3.59,8.07,3.87,10.15.35,2.62-.73,7.33-.44,10.68.76,8.94,4.83,12.13,13.09,14.43l6.49,8.66c-1.47.26-2.94.8-4.44.93-30.39,2.58-24.58-30.92-54.57-33.1-11.14-.81-28.97,7.22-26.24,20.64,1.43,7.01,9.74,1.89,13.78,1.4,15.4-1.86,16.05,10.17,22.12,20.07,8.95,14.6,25.62,19.73,42.11,18.51,3.41-.25,8.66-2.32,11.19-2.33,1.71-.01,4.52,1.19,6.54,1.4s4.24-.13,6.29.01l-8.61,4.2c-4.77,2.73-14.95.79-15.63,7.68-1.09,10.99,14.05,13.38,22.15,12.82,23.32-1.62,46.61-19.92,59.38-38.56,2.33-3.4,4.12-7.14,6.61-10.41,2.04,17.39,7.97,35.1,22.99,45.34,10.76,7.34,25.08,11.02,37.64,6.18,6.37-2.45,15.56-8.39,13.22-16.47-2.13-7.36-12.67-2.79-17.57-2.91-13.06-.33-22.83-19.19-23.16-30.75,4.59,5.63,7.77,12.92,14.13,16.88,12.55,7.81,29.69,9.92,43.24,3.42,6.48-3.11,23.26-15.64,13.28-23.1-7.12-5.32-12.94.29-19.71,1.27-6.63.96-14.84-1.59-19.69-6.18,12.69,4.74,26.55-.06,34.69-10.54.76-.98,2.7-4.57,3.22-4.94.68-.5,3.95-.98,5.24-1.52,3.66-1.53,5.97-4.31,7.44-7.95,1.38-3.42,1.16-7.39,2.39-10.2.77-1.76,3.32-3.87,4.57-5.69,11.13-16.2,9.53-45.91-7.7-57.51-9.83-6.62-23.11-5.9-31.92,2.04-4.99,4.5-6.27,11.06-12.82,14.23l-2.32,2.57c1.41-5.92,6.13-10.36,8.79-15.69,1.93-3.87,3.84-9.6,3.84-13.93,0-2.43-1.95-8.15-1-9.7.36-.59,8-4.88,9.51-6,9.96-7.42,13.04-13.37,7.08-25.12-7.2-14.21-19.43-31.78-28.78-44.91-9.46-13.27-20.68-32.61-39.51-21.96-15.75,8.92-45.31,42.15-54.35,58.05-5.46,9.6-4.71,14.85,2.74,22.84.85.91,2.97,1.65,3.03,2.99.02.46-1.78,6.44-2.12,7.2-2.83,6.41-6.63,9.5-5.11,17.79.43,2.36,2.92,5.41,3.05,6.78.3,3.09-.59,5.39.23,9.53.45,2.27,3.5,9.05,3.5,9.56v9.09c-3.03-1.06-4.6-5.3-5.61-8.14-2.32-6.52-1.67-11.25-2.89-17.17-.3-1.46-2.22-3.75-2.92-5.48-4.15-10.24.63-18.42,6.24-26.74-5.41-5.35-11.55-11.68-10.56-20,.29-2.44,1.98-6.52,3.14-8.75.4-.76,2.29-3.97,2.8-4.66.2-.28.91-.76,1.4-1.4,3.91-5.15,8.82-9.87,12.13-15.39Z"/>
        <path class="cls-5" d="M329.88,177.95l6.89-41.39c.62-1.6,1.5-2.36,3.05-3.01,8.07-3.39,19.53-.69,23.65-10.39,2.81-6.63,5.37-17.57,3.72-24.49-.99-4.17-4.5-5.65-8.63-6.06-14.76-1.47-50.34,7.63-63.83,14.51-2.32,1.18-4.63,2.8-5.22,5.51-1.06,4.9-2.44,17.58-2.07,22.41.53,6.96,2.29,6.58,8.49,5.46,5.55-1,10.94-3.63,16.69-3.13-1.58,14.91-11.75,43.4-9.33,56.43,1.18,6.36,4.61,5.62,10.26,5.6-1.16,2.23-2.85,6.31-3.14,8.75-.99,8.32,5.15,14.65,10.56,20-5.61,8.32-10.39,16.5-6.24,26.74.7,1.73,2.62,4.02,2.92,5.48,1.22,5.92.57,10.65,2.89,17.17,1.01,2.84,2.58,7.08,5.61,8.14v-9.09c0-.51-3.06-7.28-3.5-9.56-.81-4.14.07-6.44-.23-9.53-.13-1.37-2.62-4.42-3.05-6.78-1.52-8.28,2.28-11.38,5.11-17.79.34-.77,2.14-6.75,2.12-7.2-.06-1.34-2.18-2.08-3.03-2.99-7.44-7.99-8.19-13.24-2.74-22.84,9.04-15.9,38.6-49.14,54.35-58.05,18.82-10.66,30.05,8.68,39.51,21.96,9.35,13.13,21.58,30.7,28.78,44.91,5.95,11.75,2.87,17.69-7.08,25.12-1.51,1.12-9.14,5.41-9.51,6-.95,1.55,1,7.27,1,9.7,0,4.33-1.91,10.06-3.84,13.93-2.66,5.32-7.38,9.77-8.79,15.69l2.32-2.57c6.55-3.17,7.83-9.73,12.82-14.23,8.81-7.94,22.09-8.66,31.92-2.04,17.22,11.61,18.82,41.31,7.7,57.51-1.25,1.82-3.81,3.93-4.57,5.69-1.23,2.82-1.01,6.78-2.39,10.2-1.47,3.64-3.78,6.42-7.44,7.95-1.3.54-4.56,1.02-5.24,1.52-.51.38-2.46,3.97-3.22,4.94-8.13,10.48-22,15.28-34.69,10.54,4.85,4.59,13.06,7.14,19.69,6.18,6.77-.98,12.59-6.59,19.71-1.27,9.98,7.46-6.79,19.99-13.28,23.1-13.55,6.5-30.69,4.39-43.24-3.42-6.36-3.96-9.54-11.25-14.13-16.88.33,11.56,10.1,30.42,23.16,30.75,4.9.12,15.43-4.44,17.57,2.91,2.34,8.08-6.85,14.02-13.22,16.47-12.55,4.84-26.88,1.15-37.64-6.18-15.02-10.24-20.95-27.96-22.99-45.34-2.5,3.27-4.28,7.01-6.61,10.41-12.78,18.64-36.07,36.94-59.38,38.56-8.09.56-23.24-1.83-22.15-12.82.68-6.89,10.86-4.95,15.63-7.68l8.61-4.2c-2.04-.15-4.27.19-6.29-.01s-4.84-1.41-6.54-1.4c-2.54.02-7.79,2.08-11.19,2.33-16.49,1.22-33.16-3.91-42.11-18.51-6.07-9.9-6.72-21.93-22.12-20.07-4.04.49-12.35,5.6-13.78-1.4-2.74-13.42,15.1-21.45,26.24-20.64,29.99,2.18,24.17,35.68,54.57,33.1,1.5-.13,2.97-.67,4.44-.93l-6.49-8.66c-8.25-2.3-12.33-5.49-13.09-14.43-.28-3.35.79-8.06.44-10.68-.28-2.08-3.11-7.08-3.87-10.15-4.65-18.91,4.61-38.03,21.91-46.49.99-.48,5.07-1.52,4.82-2.62-2.22-2.46-4.86-4.22-8.26-3.15-1.24.39-8.7,4.85-9.23,5.7-.72,1.16.28,2.33.22,3.47-.09,1.81-2.68,4.81-4.65,4.92-1.02-3.23-2.99-3.79-4.59-5.9-2.92-3.84-5.37-8.67-8-12.76l-.05-2.13c4.87-8.02,12.97-16.08,17.39-24.14,1.76-3.2,2.15-5.22,1.31-8.72s-4.52-7.1-7.78-8.78c-3.58-1.84-4.08.38-6.13,3.03-3.32,4.3-13.57,21.45-16.41,23.47.7-6.82,4.15-15.75,2.33-22.39-1.06-3.89-4.39-3.07-8.15-2.79-3.19.23-8.67.79-10.06,3.93-1.59,3.58-2.55,13.45-3.17,17.82-1.9,13.42-3.14,26.99-4.8,40.44-.66,5.36-2.42,11.85-2.27,17.09.23,7.74,4,7.94,10.9,6.94,4.01-.58,8.32-1.66,9.13-6.27,1.04-5.99.75-13.08,2.03-18.97.25-1.16.03-2.09,1.49-1.77l15.63,24.26c-.88,3.33-1.02,6.85-1.4,10.26-3.88-1.09-6.95-2.97-9.56-6.05-3.08,9.18-21.66,13.13-29.16,9.56-.98-.47-2.34-2.14-2.94-2.04-.43.07-5.95,4.26-7.17,4.98-10.37,6.05-26.05,9.6-37.14,3.74l-5.91-4.12c-.98,5.32-5.66,8.08-10.27,10.02-12.03,5.06-29.35,7.66-29.87-10.26l1.67-15.15c-7.66,6.61-16.78,11.86-26.77,14.03-.34,6.1.28,12.3-.03,18.4-.64,12.47-3.25,17.87-14.78,23-6.95,3.09-15.9,5.89-23.49,4.73-1.35-1.12-3.03-1.7-4.42-2.81-9.52-7.6-5.78-20.2-4.91-30.54.65-7.78,1.67-15.57,2.33-23.32.51-6.04.47-12.14.94-18.19-.26-1.33-3.02-2.06-4.2-3.26-4.47-4.6-7.09-22.13-6.55-28.46.97-11.32,11.59-17.62,21-21.68-3.69-7.85-1.95-16.95-2.31-25.43-.57-13.42-1.55-27.14-2.82-40.55-1.36-14.31-8.39-34.78,4.2-45.25,10.92-9.09,41.95-16.25,56.28-18.34,8.31-1.22,18.05-2.96,25.05,2.69,15.64-16.09,35.33-4.14,35.51,16.35,7.57-9.88,17.35-19.79,29.52-23.65,12.5-3.96,31.86-3.66,38.11,10.12,6.95-5.4,18.41-6.81,25.19-.47,2.91-3.91,6.03-6.78,10.71-8.41,4.97-1.73,10.12-2.08,15.29-1.26,1.33.21,3.66,1.37,4.68,1.2s3.68-2.36,5-2.96c17.74-8.02,54.65-19.31,73.4-15.1,20.39,4.59,15.08,29.02,9.04,43.44-5.07,12.1-15.59,13.09-27.19,15.26l-4.21,23.31c-3.57,4.09-7.04,8.4-10.94,12.15ZM152.65,183.55c1.32,23.59,17.63,36.96,41.14,29.25,21.49-7.05,26.44-28.91,27.45-49.05.04-.76.23-2.12-.5-2.58.09-3.53-.54-5.57-4.48-6.03-3.24-.38-11.63.57-15.34.9-2.63.23-10.09.53-11.65,2.35-1.37,1.58-2.91,11.61-2.58,13.97.97,6.89,4.76,4.75,10.05,5.1.87.06,1.75-.11,2.07.96-2.05,6.33-8.05,9.69-14.7,8.87-2.95-.36-4.83-2.77-6.28-5.14-2.48-13.12.16-28.37,8.01-39.32,2.53-3.52,6.11-7.37,10.88-6.86,6.27.67,1.46,9.38,5.21,11.59,2.58,1.51,16.18-.65,18.09-3.19s3.77-16.75,3.52-20.29c-.11-1.61-.59-2.56-.95-3.95-5.08-19.59-31.48-12.19-42.91-2.57-18.4,15.48-28.37,42.3-27.05,66ZM247.79,149.03c-.39-8.04,3.05-17.04,2.35-24.99-.06-.62-.46-.99-.49-1.13-.82-5.26-2.26-7.69-8.18-7.49-9.71.33-11.14,12.06-12.28,19.45-2.14,13.93-3.79,29.25-5.19,43.31-.76,7.65-1.79,15.9-1.4,23.55.15,2.93.15,6.42,3.7,7.26,3.87.92,14.78-.29,16.72-4.33,1.64-3.4,1.47-12.45,1.97-16.68.31-2.62.5-8.59,2.55-10.04,1.9-1.34,7.74-1.84,10.04-.92-.65,6.99-2.13,15.03-1.87,21.92.08,2.04-.43,3.86,1.37,5.39,2.98,2.54,13.5.44,16.84-1.4,4.01-2.21,4.13-6.21,4.64-10.29,2.54-20.57,4.3-44.03,5.13-64.59.15-3.69,1.24-12.49-.27-15.35-2.3-4.36-11.59-2.87-15.48-1.57-4,1.34-4.88,2.29-5.65,6.48-1.07,5.87-.77,13-1.45,19.07-.28,2.53-.71,9.16-2.31,10.75-1.48,1.47-8.8,2.67-10.75,1.61ZM126.99,133.64c1.96,13.13,15.62,12.94,21.84,2.95,3.19-5.12,3.77-10.72,2.88-16.47-1.83-11.81-13.67-13-20.51-4.42-4.16,5.23-5.18,11.47-4.21,17.95ZM52.84,227.85c1.71,6.9,8.14,5.2,13.53,3.97,4.55-1.04,15.63-4.28,16.68-9.44,1.16-5.71-1.93-16.84-2.22-23.22-.27-5.8.16-5.8,5.35-7.7s18.96-4.09,22.42-7.9c2.99-3.29,3.3-14.57,1.61-18.68-.44-6.32-4.39-5.81-9.34-4.91-3.73.67-18.31,5.35-20.54,4.72-.41-.11-.61-.49-.9-.74.12-5.61.45-8.5,5.96-10.6,7.66-2.91,26.31-5.16,31.54-10.9,4.42-4.86,6.15-17.15,4.94-23.27-.14-.73.04-1.31-.35-2.2-2.1-4.77-10.59-3.31-14.75-2.87-13.15,1.4-46.28,8.89-56.22,17-8.1,6.61-3.32,19.15-2.38,28.42,1.55,15.16,2.94,30.46,3.75,45.68.35,6.59-.61,16.51.91,22.64ZM118.6,210.6c.19,1.48.1,3.62.91,4.92,2.51,4.04,16.66,1.51,20.24-.8,3.7-2.39,3.93-7.89,4.45-11.87,1.41-10.7,2.52-22.75,3.32-33.53.39-5.21,1.36-13.17,0-17.95-1.24-4.35-3.24-4.15-7.69-3.73-2.7.26-9.14,1.71-11.2,3.26-3.96,2.98-4.02,9.6-4.82,14.3-2.03,11.92-6.66,34.28-5.21,45.4ZM425.49,229.72c3.17-.85,12.13-7.3,12.14-10.49.01-3.44-6.19-13.15-8.22-16.52-8.72-14.52-20.27-33.09-30.99-45.97-4.57-5.49-8.69-11.33-16.63-8.25-10.96,4.26-31.02,26.24-38.85,35.77-3.77,4.59-15.3,19-16.58,23.99-.6,2.32,1.59,8.83,3.75,8.82,1.01,0,4.66-7.13,5.55-8.39.39-.56.02-1.14,1.21-.87-1.41,7.14-3.37,14.14-4.53,21.35-.39,2.45-.22,5.58-.61,7.78s-4.88,6.57-3.71,10.05c3.12-.47,5.31.78,7.94,2.09,7.12,3.54,14.1,8.6,20.97,12.65,1.62,1.22,4.4-3.29,5.13-2.61.18,1.18.44,2.26.49,3.47.21,5.22-3.82,14.47-7.99,17.71-6.5,5.05-13.5,4.23-20.48.74-1.33,14.65-1.74,29.8-9.09,42.91-5.82,10.39-21.27,25.79-34.08,24.73-1.74-.14-4.05-1.48-5-1.34-1.36.2-5.37,2.7-7.44,3.32-2.66.79-5.53,1.28-8.29,1.27,9.19,13.23,26.73,10.39,39.02,3.34,13.13-7.53,20.96-20.51,27.29-33.81,1.52-3.19,2.78-7.53,4.46-10.45.31-.53.37-1.26,1.06-.36-3.35,20.71-10.51,40.72-23.13,57.55-12.18,16.24-29.74,31.36-50.56,34.09.05,1.7,2.47,2.52,3.89,2.86,10.3,2.49,24.88-2.66,33.89-7.76,29.4-16.61,44.66-50.54,49.43-82.79,1.09-.07.82-.15.93.69.23,1.77.08,4.67.02,6.56-.68,22.1-3.67,45.64,6.42,66.29,7.81,16,29.1,27.85,46.28,19.52.62-.3,6.61-3.95,5.57-4.92-20.91,7.69-35.95-8.49-40.25-27.6-3.44-15.26-3.21-42.99-2.21-58.93.06-.9.24-1.69.49-2.54.71-.12.55.87.68,1.4,4.02,15.96,4.85,31.5,13.57,46.13,10.56,17.72,35.23,27.87,53.52,15.35,1.35-.92,6.52-5.45,6.82-6.72.86-3.67-10.04,1.26-11.07,1.54-17.66,4.73-31.38-4.28-38.43-20.07-5.52-12.38-7.69-26.51-8.78-39.96,1.22-.23.82.24,1.14.93,3.55,7.55,4.62,16.53,9.03,24.57,9.48,17.26,29.59,21.97,42.52,5.51.2-1.12-.51-.57-1.17-.68-2.16-.37-4.36-.77-6.42-1.52-1.54-.57-4.48-2.61-5.74-2.69-1.39-.09-3.63,1.76-5.6,1.82-9.91.29-15.38-13.44-17.31-21.31-3.72-15.18-2.6-30.93,4.05-45.11-1.64.83-2.46,3.17-3.73,4.66-6.54,7.66-17.35,11.83-26.26,5.3-6.11-4.48-7.43-11.19-11.01-17.44-.42-3.09.33-5.69,1.92-8.28.46-.75,3.47-4.47,2.62-1.58-.34,1.16-2.13,6.92.23,6.79,13-4.58,27.21-13.49,41.15-14.38,4.53-.29-2.14,3.34-2.49,4.52-.35,1.18.52,5.73.37,7.82-.18,2.55-1.26,5.14-1.39,7.7.84.95,4.7-5.32,5.04-5.92,2.16-3.88,4.04-9.43,3.84-13.91-.12-2.67-1.8-4.83-1.91-7-.07-1.4.5-2.69.51-4.16.09-9.94-.75-20.43-1.95-30.27-.66-5.41-1.72-10.8-2.73-16.15l3.49,7c4.22,10.29,6.49,21.21,8.17,32.18ZM309.82,223.19c-2.56-6.73-7.53-10.36-14.46-12.36-21.78-6.28-42.98,11.53-36.38,34.28,1.18,4.07,2.7,7.28,6.1,9.99,2.37,1.89,15.57,9.59,18.28,10.64,1.34.52,3.09.52,4.54.83,6.72,1.44,12.28,2.66,17.25,7.93.69-7.97-2.71-15.31-8.61-20.53-5.09-4.5-11.5-6.37-16.1-11.65-2.55-6.72,6.32-9.81,10.96-6.53,3.17,2.24,2.78,8.43,7.8,7.85,4.16-.48,8.07-4.22,10.06-7.7,2.88-5.04,2.53-7.57.56-12.73ZM143.79,289.88c1.97,18.84,14.4,29.63,33.43,22,12.88-5.16,23.28-20.63,20.2-34.6-.25-1.15.26-1.41-.9-2.59-2.53-2.56-12.5-1.04-15.45.47-4.52,2.32-1.47,8.74-6.81,11.85-3.9,2.27-6.93.84-9.02-2.73-1.46-8.86.14-17.93,3.38-26.23,1.63-4.18,5.76-12.08,11.27-11.54,5.11.5,1.39,8.45,4.58,9.91,2.58,1.18,12.42-.52,14.07-2.96,2.24-3.31,3.47-14.84,3.09-18.88-.06-.62-.47-1-.49-1.13-2.76-18.53-26.08-13.53-36.62-4.67-16.69,14.02-22.94,40.14-20.74,61.11ZM114.4,313.67c.15,2.07-.31,5.98,2.58,6.52,4.42.82,17.38-1.87,18.9-6.72.86-6.64,1.12-13.37,1.9-20.02,2.16-18.45,6.3-38.69,7.4-56.96.16-2.59-.13-4.39-.46-6.76s.35-4.1-2.79-4.91-14.61.62-17.05,2.57c-2.1,1.68-2.52,6.15-2.94,8.72-2.55,15.45-3.13,32.67-4.75,48.42-.95,9.3-3.47,20.06-2.79,29.15ZM35.12,271.69c.36,1.48.84,5.29,2.19,6.09,1.97,1.17,4.25-.26,6.2.44-.74,14.73-1.19,29.35-2.33,44.07-.53,6.84-2.59,16.57-1.86,23.09,1.2,10.82,12.93,6.31,19.57,3.48,5.31-2.26,9.63-4.37,10.27-10.72.87-8.58-.51-18.83.46-27.05.24-2.05.77-2.26,2.49-3.11,3.54-1.76,8.87-2.65,12.9-4.36,20.92-8.87,36.23-34.43,31.26-57.12-5.11-23.35-39.21-14.57-55.15-8.74-5.91,2.16-20.77,8.24-24.85,12.46-5.03,5.19-2.69,15.13-1.15,21.47ZM332.44,252.12c-3.82,5.84-2.55,15.66,1.86,20.98,5.76,6.94,16.29,6.26,20.55-1.84,1.78-3.37,1.14-3.32-1.9-5.14-1.51,1.84-1.5,3.9-4.09,4.75-4.73,1.56-8.59-1.92-9.09-6.53-.21-1.93,1.18-5.7.61-6.62-.87-1.39-6.52-4.01-7.95-5.59ZM406.83,255.37c-.4-.28-8.87,3.3-9.12,3.72s1.02,2.13,1.17,3.07c2.03,12.66-14.37,15.11-14.66,2.08-.91.98-7.41,2.51-7.65,2.85-1.23,1.78,3.65,8.49,5.31,9.74,13.44,10.14,28.23-8.2,24.95-21.45ZM435.75,302.01v-8.4c1.36-.22.76.31.99,1.09,2.05,6.8,7.35,12.62,15.1,12.48,2.59-.05,4.36-1.54,6.77-1.9-2.68,4.87-8.77,7.4-14.22,6.98-2.17-.17-5.66-1.84-7.01-1.81-.35,0-6.32,2.46-6.54,2.73-.84,1.06,2.72,4.64,3.56,5.34,6.06,5.07,15.63,5.48,22.31,1.4,17.09-10.44,16.69-49.04-4.25-54.9-18.07-5.06-32.29,18.59-21.36,33.02.4.53,4.2,4.49,4.66,3.96ZM288.84,312.73c6.99-.57,13.17-9.04,13.94-15.67,1.09-9.38-1.68-18.01-11.15-21.39-14.92-5.34-32.34,6.8-37.78,20.5-6.96,17.51.94,39.74,23.07,33.8,2.54-.68,9.78-3.95,10.06-6.78.51-5.28-9.62-2.76-12.82-2.99-5.12-.36-12.58-2.37-11.9-8.85,2.44.64,4.27,2.3,6.88,2.67,7.51,1.08,14.02-1.45,20.63-4.54l-.93,3.26ZM296.3,339.78c12.4-5.13,22.97-17.07,25.9-30.29,2.66-12.01-1-25.5-13.55-29.86-1.16-.4-.4.47-.35.82.78,5.7,3.7,5.82,6.58,9.75,10.07,13.73-.1,37.62-17.6,38.91-.03,3.64.13,7.17-.98,10.68ZM421.76,281.95c-6.74,7.29-6.81,27.5,6.75,26.6,6.28-.42,1.34-3.17-.21-4.92-2.45-2.79-6.54-9.84-6.54-13.51v-8.16ZM293.03,317.41c1,4.93,8.64,2.71,11.8.83,7.84-4.67,9.71-16.95,4.29-24.16-.62,10.09-6.41,19.74-16.09,23.32ZM413.35,310.88c-.13-.09-.64.02-.92,0,1.46,6.6,2.83,17.08,9.79,20.05-.41-2.2-1.99-4.01-2.29-6.33-.33-2.52,1.04-6.91.2-8.6-.24-.49-3.43-1.94-4.39-2.6-.69-.48-1.51-1.22-2.21-1.78-.22-.18-.14-.71-.18-.74ZM456.27,327.2c-7.98,1.81-15.85,1.04-22.63-3.72-2.35-1.65-4.05-3.85-6.28-5.61-3.36,8.57,5.84,16.46,13.76,17.25,6.17.62,15.75.46,15.15-7.92ZM288.83,328.59c-7.99,6.86-16.2,9.34-26.58,6.77-1.26-.31-5.51-2.16-5.81-2.1-1.41.27-.89,7.59.71,9.08,1.29,1.2,7.63,2.87,9.55,3.04,10.19.93,25.81-3.56,22.14-16.78ZM223.38,345.08c-8.62-8.7-24.58-10.77-32.48-.17,9.68-3.01,19.47-1.03,25.57,7.32,7.46,10.22,8.57,20.9,22.01,26.49,16.05,6.67,32.84,2.12,46.63-7.23.18-.91-.41-1.12-1.07-1.49s-7.14-2.67-7.56-2.67c-.97,0-5.15,1.8-6.66,2.17-13.02,3.16-25.75,2.03-35.09-8.48-4.25-4.78-6.88-11.43-11.34-15.94ZM311.68,363.58c-2.94,1-5.55,2.7-8.4,3.95-4.68,2.06-7.85,2.77-11.43,7.22l-10.01,7c3.47.98,7.49-.34,10.85-1.51,6.53-2.27,10.01-5.61,14.58-10.61l4.42-6.07ZM399.83,379.91c-.14-.21-3.92-2.08-4.66-1.87-.54.5,2.02,3.27,2.79,3.48.84.24,2.32-.97,1.86-1.61ZM405.43,383.17c-.37-.43-3.9-1.73-4.66-2.34-.1,2.28,2.43,3.54,4.42,3.27.41-.06.3-.84.23-.93Z"/>
        <path class="cls-7" d="M425.49,229.72c-1.69-10.97-3.95-21.89-8.17-32.18l-3.49-7c1.01,5.35,2.07,10.74,2.73,16.15,1.2,9.84,2.04,20.33,1.95,30.27-.01,1.47-.58,2.75-.51,4.16.11,2.17,1.79,4.33,1.91,7,.2,4.48-1.69,10.04-3.84,13.91-.34.6-4.2,6.86-5.04,5.92.13-2.56,1.21-5.15,1.39-7.7.15-2.09-.72-6.64-.37-7.82.35-1.18,7.02-4.81,2.49-4.52-13.94.89-28.15,9.8-41.15,14.38-2.36.13-.57-5.62-.23-6.79.85-2.89-2.16.83-2.62,1.58-1.58,2.59-2.34,5.19-1.92,8.28,3.57,6.24,4.9,12.96,11.01,17.44,8.91,6.53,19.71,2.36,26.26-5.3,1.27-1.49,2.1-3.82,3.73-4.66-6.65,14.18-7.77,29.93-4.05,45.11,1.93,7.87,7.4,21.6,17.31,21.31,1.98-.06,4.21-1.91,5.6-1.82,1.26.08,4.2,2.12,5.74,2.69,2.06.75,4.26,1.15,6.42,1.52.66.11,1.37-.44,1.17.68-12.92,16.46-33.03,11.75-42.52-5.51-4.41-8.03-5.48-17.02-9.03-24.57-.33-.69.08-1.16-1.14-.93,1.08,13.44,3.25,27.58,8.78,39.96,7.05,15.8,20.76,24.8,38.43,20.07,1.03-.28,11.93-5.21,11.07-1.54-.3,1.28-5.47,5.8-6.82,6.72-18.29,12.52-42.95,2.37-53.52-15.35-8.72-14.63-9.55-30.17-13.57-46.13-.13-.53.03-1.52-.68-1.4-.25.85-.44,1.64-.49,2.54-1.01,15.95-1.24,43.68,2.21,58.93,4.31,19.11,19.35,35.3,40.25,27.6,1.04.96-4.96,4.62-5.57,4.92-17.18,8.33-38.47-3.52-46.28-19.52-10.09-20.65-7.1-44.19-6.42-66.29.06-1.89.21-4.79-.02-6.56-.11-.85.16-.76-.93-.69-4.78,32.26-20.03,66.18-49.43,82.79-9.01,5.09-23.59,10.24-33.89,7.76-1.43-.35-3.85-1.16-3.89-2.86,20.82-2.73,38.38-17.85,50.56-34.09,12.62-16.83,19.78-36.85,23.13-57.55-.69-.91-.75-.18-1.06.36-1.68,2.92-2.94,7.25-4.46,10.45-6.33,13.3-14.16,26.28-27.29,33.81-12.29,7.05-29.84,9.89-39.02-3.34,2.76,0,5.64-.48,8.29-1.27,2.08-.62,6.08-3.12,7.44-3.32.95-.14,3.26,1.2,5,1.34,12.81,1.06,28.26-14.34,34.08-24.73,7.35-13.12,7.76-28.26,9.09-42.91,6.98,3.48,13.98,4.31,20.48-.74,4.17-3.24,8.2-12.49,7.99-17.71-.05-1.21-.31-2.3-.49-3.47-.74-.69-3.52,3.83-5.13,2.61-6.87-4.05-13.85-9.11-20.97-12.65-2.63-1.31-4.82-2.56-7.94-2.09-1.17-3.48,3.31-7.81,3.71-10.05s.22-5.33.61-7.78c1.16-7.21,3.13-14.2,4.53-21.35-1.19-.27-.82.32-1.21.87-.89,1.26-4.54,8.38-5.55,8.39-2.15.01-4.34-6.5-3.75-8.82,1.28-4.99,12.81-19.41,16.58-23.99,7.83-9.53,27.89-31.51,38.85-35.77,7.93-3.08,12.06,2.77,16.63,8.25,10.72,12.88,22.27,31.45,30.99,45.97,2.03,3.38,8.23,13.08,8.22,16.52-.01,3.19-8.97,9.64-12.14,10.49Z"/>
        <path class="cls-1" d="M288.84,312.73l.93-3.26c-6.61,3.09-13.12,5.62-20.63,4.54-2.61-.38-4.44-2.03-6.88-2.67-.69,6.49,6.78,8.49,11.9,8.85,3.19.23,13.33-2.29,12.82,2.99-.27,2.83-7.52,6.1-10.06,6.78-22.13,5.94-30.03-16.28-23.07-33.8,5.44-13.7,22.86-25.84,37.78-20.5,9.47,3.39,12.25,12.02,11.15,21.39-.77,6.63-6.95,15.1-13.94,15.67Z"/>
        <path class="cls-1" d="M435.75,302.01c-.46.52-4.26-3.43-4.66-3.96-10.93-14.43,3.29-38.08,21.36-33.02,20.94,5.86,21.34,44.46,4.25,54.9-6.68,4.08-16.24,3.67-22.31-1.4-.84-.71-4.4-4.29-3.56-5.34.22-.28,6.19-2.73,6.54-2.73,1.35-.03,4.84,1.64,7.01,1.81,5.45.41,11.54-2.11,14.22-6.98-2.4.36-4.18,1.85-6.77,1.9-7.74.14-13.05-5.67-15.1-12.48-.23-.77.37-1.31-.99-1.09v8.4Z"/>
        <path class="cls-7" d="M223.38,345.08c4.47,4.51,7.09,11.16,11.34,15.94,9.34,10.51,22.07,11.65,35.09,8.48,1.51-.37,5.69-2.17,6.66-2.17.42,0,6.9,2.31,7.56,2.67s1.25.58,1.07,1.49c-13.79,9.35-30.57,13.9-46.63,7.23-13.45-5.59-14.55-16.27-22.01-26.49-6.1-8.35-15.88-10.33-25.57-7.32,7.9-10.6,23.87-8.54,32.48.17Z"/>
        <path class="cls-4" d="M296.3,339.78c1.11-3.51.94-7.04.98-10.68,17.5-1.29,27.66-25.18,17.6-38.91-2.88-3.93-5.8-4.05-6.58-9.75-.05-.35-.81-1.22.35-.82,12.55,4.36,16.21,17.85,13.55,29.86-2.93,13.23-13.5,25.16-25.9,30.29Z"/>
        <path class="cls-6" d="M406.83,255.37c3.29,13.26-11.51,31.59-24.95,21.45-1.66-1.25-6.54-7.97-5.31-9.74.23-.34,6.74-1.87,7.65-2.85.28,13.04,16.69,10.59,14.66-2.08-.15-.94-1.43-2.65-1.17-3.07s8.72-4.01,9.12-3.72Z"/>
        <path class="cls-1" d="M288.83,328.59c3.67,13.22-11.95,17.71-22.14,16.78-1.92-.18-8.26-1.84-9.55-3.04-1.59-1.49-2.12-8.81-.71-9.08.3-.06,4.55,1.79,5.81,2.1,10.39,2.57,18.59.1,26.58-6.77Z"/>
        <path class="cls-6" d="M332.44,252.12c1.43,1.58,7.07,4.2,7.95,5.59.58.92-.81,4.7-.61,6.62.5,4.62,4.37,8.09,9.09,6.53,2.58-.85,2.58-2.92,4.09-4.75,3.04,1.82,3.67,1.77,1.9,5.14-4.26,8.1-14.79,8.79-20.55,1.84-4.41-5.32-5.69-15.14-1.86-20.98Z"/>
        <path class="cls-1" d="M456.27,327.2c.6,8.38-8.98,8.54-15.15,7.92-7.92-.79-17.12-8.68-13.76-17.25,2.23,1.76,3.93,3.96,6.28,5.61,6.78,4.76,14.65,5.53,22.63,3.72Z"/>
        <path class="cls-1" d="M293.03,317.41c9.67-3.58,15.46-13.24,16.09-23.32,5.42,7.21,3.56,19.48-4.29,24.16-3.16,1.88-10.79,4.09-11.8-.83Z"/>
        <path class="cls-1" d="M421.76,281.95v8.16c0,3.67,4.09,10.72,6.54,13.51,1.54,1.76,6.49,4.5.21,4.92-13.56.9-13.49-19.31-6.75-26.6Z"/>
        <path class="cls-7" d="M311.68,363.58l-4.42,6.07c-4.57,5-8.04,8.34-14.58,10.61-3.36,1.17-7.38,2.48-10.85,1.51l10.01-7c3.58-4.45,6.75-5.17,11.43-7.22,2.85-1.25,5.46-2.95,8.4-3.95Z"/>
        <path class="cls-4" d="M413.35,310.88s-.04.56.18.74c.69.56,1.52,1.3,2.21,1.78.96.66,4.15,2.11,4.39,2.6.84,1.69-.52,6.08-.2,8.6.3,2.32,1.88,4.13,2.29,6.33-6.96-2.97-8.33-13.45-9.79-20.05.29.03.79-.08.92,0Z"/>
        <path class="cls-2" d="M399.83,379.91c.45.65-1.02,1.85-1.86,1.61-.78-.22-3.33-2.98-2.79-3.48.74-.2,4.52,1.67,4.66,1.87Z"/>
        <path class="cls-2" d="M405.43,383.17c.07.09.18.87-.23.93-1.99.27-4.52-.99-4.42-3.27.76.61,4.29,1.91,4.66,2.34Z"/>
      </g>
      <g>
        <path class="cls-3" d="M41.18,363.11c7.59,1.16,16.54-1.64,23.49-4.73,11.53-5.13,14.14-10.53,14.78-23,.31-6.1-.31-12.29.03-18.4,9.99-2.17,19.11-7.42,26.77-14.03l-1.67,15.15c.52,17.92,17.85,15.31,29.87,10.26,4.61-1.94,9.29-4.7,10.27-10.02l5.91,4.12c11.09,5.86,26.77,2.3,37.14-3.74,1.23-.72,6.74-4.91,7.17-4.98.6-.09,1.96,1.58,2.94,2.04,7.5,3.57,26.07-.38,29.16-9.56,2.61,3.08,5.69,4.96,9.56,6.05-.21,1.86-.74,3.67-.47,5.6-4.48-1.9-5.35,1.46-8.17,3.72-3.08,2.47-5.69,4.32-9.8,4.23-6.7-.13-11.66-3.15-18.98-1.3-3.37.85-11.96,5.37-14.97,7.42-1.4.96-6.17,5.96-6.61,5.97-.36.01-.78-.68-.47-1.39.44-1.01,4.98-5.07,4.43-5.6-10.2,6.1-22.75,6.44-33.28,1.01-7.62,7.24-23.8,12.49-33.73,8.41-8.13-3.34-12.44-13.07-15.77-20.59-2.22,2.34-10.41,4.03-11.55,6.64-2.26,5.22.05,17.51-.93,23.79-2.27,14.59-26.59,24.64-39.08,18.32-3.01-1.52-3.87-3.57-6.04-5.38Z"/>
        <path class="cls-6" d="M144.72,229.72c-3.69,22.51-6.31,45.25-9.32,67.86-1.3,9.76,1.36,14.39-10.62,16.44-3.07.52-7.67,1.21-10.38-.35-.67-9.09,1.84-19.86,2.79-29.15,1.62-15.75,2.19-32.97,4.75-48.42.42-2.57.85-7.04,2.94-8.72,2.43-1.95,14-3.36,17.05-2.57s2.46,2.6,2.79,4.91Z"/>
        <path class="cls-6" d="M147.52,151.36c.02,3.18-.19,6.4-.47,9.56-1.03,11.53-2.15,24.01-3.74,35.44-1.21,8.68-1.14,13.03-10.7,14.95-4.38.88-10.05,1.56-14.01-.72-1.45-11.12,3.18-33.48,5.21-45.4.8-4.7.86-11.33,4.82-14.3,2.06-1.55,8.49-3,11.2-3.26,4.45-.43,6.45-.63,7.69,3.73Z"/>
        <path class="cls-6" d="M151.71,120.12c1,12.83-15.47,27.99-24.72,13.53-.97-6.47.04-12.72,4.21-17.95,6.84-8.58,18.68-7.39,20.51,4.42Z"/>
        <path class="cls-3" d="M143.79,289.88c9.27,34.29,53.55,16.95,53.64-12.59,3.08,13.96-7.32,29.44-20.2,34.6-19.03,7.62-31.46-3.16-33.43-22Z"/>
        <path class="cls-3" d="M114.4,313.67c2.71,1.56,7.31.87,10.38.35,11.98-2.05,9.31-6.68,10.62-16.44,3.01-22.62,5.64-45.36,9.32-67.86.33,2.37.62,4.17.46,6.76-1.1,18.27-5.24,38.51-7.4,56.96-.78,6.65-1.03,13.38-1.9,20.02-1.53,4.85-14.49,7.54-18.9,6.72-2.89-.54-2.42-4.45-2.58-6.52Z"/>
        <g>
          <path class="cls-6" d="M201.15,233.45c-.41,4.04-.69,14.61-4.54,16.68-1.48.8-4.81,1.55-6.55,1.84-9.86,1.66-4.27-1.13-7-6.73-2.58-5.28-8.79-1.53-11.49,1.77-6.18,7.57-11.33,28.77-6.34,37.27,2.1,3.57,5.13,5,9.02,2.73,5.33-3.11,2.28-9.53,6.81-11.85,2.94-1.51,12.91-3.03,15.45-.47,1.17,1.18.65,1.44.9,2.59-.08,29.54-44.36,46.88-53.64,12.59-2.2-20.97,4.05-47.09,20.74-61.11,10.55-8.86,33.87-13.85,36.62,4.67Z"/>
          <path class="cls-3" d="M165.24,284.29c-5-8.5.15-29.7,6.34-37.27,2.69-3.3,8.91-7.05,11.49-1.77,2.74,5.6-2.86,8.39,7,6.73,1.74-.29,5.07-1.04,6.55-1.84,3.85-2.08,4.13-12.64,4.54-16.68.02.13.43.51.49,1.13.38,4.04-.86,15.57-3.09,18.88-1.65,2.44-11.49,4.14-14.07,2.96-3.19-1.46.53-9.41-4.58-9.91-5.5-.54-9.63,7.36-11.27,11.54-3.24,8.3-4.85,17.37-3.38,26.23Z"/>
        </g>
        <path class="cls-3" d="M118.6,210.6c3.96,2.27,9.63,1.6,14.01.72,9.56-1.92,9.49-6.27,10.7-14.95,1.59-11.43,2.71-23.9,3.74-35.44.28-3.16.49-6.38.47-9.56,1.36,4.78.38,12.74,0,17.95-.8,10.78-1.91,22.83-3.32,33.53-.52,3.98-.75,9.48-4.45,11.87-3.58,2.32-17.73,4.84-20.24.8-.81-1.3-.71-3.45-.91-4.92Z"/>
        <g>
          <path class="cls-6" d="M367.19,98.66c-.42,5.81-2.29,19.08-6.27,23.34-3.15,3.37-16.8,3.56-21.96,5.55-1.38.53-2.41,1.11-3.12,2.47l-7.84,46.73c-2.46,6.05-7.22,10.83-10.24,16.58-.49.64-1.2,1.12-1.4,1.4-4.12,1.24-9.49,1.88-13.06-.93-2.42-13.04,7.75-41.53,9.33-56.43.76-7.14.26-6.44-6.62-4.99-3.6.76-13.98,4.63-16.72,3.85-.63-.18-1.23-.88-1.84-1.19-.37-4.84,1.01-17.51,2.07-22.41.58-2.71,2.9-4.33,5.22-5.51,13.49-6.88,49.07-15.98,63.83-14.51,4.13.41,7.64,1.89,8.63,6.06Z"/>
          <path class="cls-3" d="M329.88,177.95c-3.3,5.52-8.22,10.24-12.13,15.39,3.01-5.75,7.78-10.53,10.24-16.58l7.84-46.73c.72-1.36,1.75-1.94,3.12-2.47,5.16-1.99,18.81-2.18,21.96-5.55,3.98-4.26,5.86-17.54,6.27-23.34,1.65,6.92-.91,17.87-3.72,24.49-4.12,9.71-15.58,7-23.65,10.39-1.55.65-2.43,1.41-3.05,3.01l-6.89,41.39Z"/>
          <path class="cls-3" d="M316.35,194.74c-.51.7-2.4,3.9-2.8,4.66-5.65.03-9.08.76-10.26-5.6,3.57,2.82,8.94,2.17,13.06.93Z"/>
          <path class="cls-3" d="M312.62,137.37c-5.75-.5-11.15,2.12-16.69,3.13-6.2,1.12-7.96,1.5-8.49-5.46.61.3,1.21,1.01,1.84,1.19,2.74.79,13.12-3.09,16.72-3.85,6.89-1.45,7.38-2.15,6.62,4.99Z"/>
        </g>
        <path class="cls-3" d="M126.99,133.64c9.25,14.47,25.72-.7,24.72-13.53.89,5.76.31,11.35-2.88,16.47-6.21,9.99-19.87,10.18-21.84-2.95Z"/>
        <g>
          <path class="cls-6" d="M309.82,223.19c1.37,5.62-5.48,15.92-11.37,15.37-4.23-.4-4.4-6.17-8.21-7.68-7.06-2.79-15.97,4.32-10.76,11.13.36.47.92.26.96.31,4.61,5.28,11.01,7.14,16.1,11.65,5.9,5.22,9.3,12.57,8.61,20.53-4.97-5.27-10.53-6.49-17.25-7.93-2.34-2.23-5.24-4.06-7.97-5.79-7.37-4.69-16.41-7.93-20.95-15.66-6.61-22.74,14.6-40.56,36.38-34.28,6.93,2,11.9,5.63,14.46,12.36Z"/>
          <path class="cls-3" d="M280.44,242.31s-.6.16-.96-.31c-5.21-6.8,3.7-13.92,10.76-11.13,3.81,1.51,3.98,7.28,8.21,7.68,5.89.56,12.73-9.75,11.37-15.37,1.97,5.16,2.32,7.69-.56,12.73-1.99,3.48-5.9,7.22-10.06,7.7-5.02.58-4.63-5.6-7.8-7.85-4.64-3.28-13.51-.18-10.96,6.53Z"/>
          <path class="cls-3" d="M287.9,266.56c-1.45-.31-3.2-.31-4.54-.83-2.71-1.05-15.91-8.75-18.28-10.64-3.4-2.71-4.92-5.92-6.1-9.99,4.53,7.73,13.58,10.97,20.95,15.66,2.73,1.73,5.62,3.56,7.97,5.79Z"/>
        </g>
        <g>
          <path class="cls-6" d="M222.61,120.12c.1,4.51-.7,18.71-4.7,21.19-1.95,1.21-12.88,3.59-15.02,2.98-2.02-.57-1.08-4.5-1.31-6.17-.73-5.48-4.87-7.42-9.75-5.17-5.66,2.61-10.84,11.7-12.95,17.36-3.06,8.2-5.7,24.23-1.04,31.84,1.45,2.37,3.33,4.78,6.28,5.14,6.66.82,12.66-2.54,14.7-8.87.36-1.11,1.81-4,.49-4.93-1.44-1.01-10.18.75-12.62-1.14-.33-2.36,1.22-12.39,2.58-13.97,1.56-1.81,9.01-2.11,11.65-2.35,3.72-.33,12.1-1.28,15.34-.9,3.94.46,4.57,2.5,4.48,6.03-.71,27.26-16.91,56.28-48.5,47.8-12.47-3.35-17.32-13.57-19.59-25.42-1.33-23.7,8.65-50.52,27.05-66,11.43-9.62,37.83-17.02,42.91,2.57Z"/>
          <path class="cls-3" d="M152.65,183.55c2.28,11.85,7.12,22.07,19.59,25.42,31.59,8.47,47.79-20.54,48.5-47.8.72.46.53,1.82.5,2.58-1.01,20.14-5.96,42-27.45,49.05-23.51,7.72-39.82-5.66-41.14-29.25Z"/>
          <path class="cls-3" d="M177.83,182.15c-4.66-7.61-2.02-23.63,1.04-31.84,2.11-5.66,7.29-14.75,12.95-17.36,4.88-2.25,9.02-.31,9.75,5.17.22,1.67-.71,5.6,1.31,6.17,2.14.61,13.07-1.77,15.02-2.98,3.99-2.48,4.8-16.68,4.7-21.19.36,1.39.84,2.34.95,3.95.24,3.55-1.58,17.71-3.52,20.29s-15.51,4.7-18.09,3.19c-3.76-2.21,1.06-10.92-5.21-11.59-4.77-.51-8.35,3.34-10.88,6.86-7.86,10.95-10.5,26.2-8.01,39.32Z"/>
          <path class="cls-3" d="M198.82,178.42c-.33-1.07-1.21-.9-2.07-.96-5.29-.36-9.08,1.79-10.05-5.1,2.44,1.89,11.18.12,12.62,1.14,1.32.93-.14,3.82-.49,4.93Z"/>
        </g>
        <g>
          <path class="cls-6" d="M283.7,128.04c-.51,1.67-.78,4.07-.93,5.83-1.57,17.95-2.3,38.88-5.67,56.36-1.19,6.18-2.28,7.69-8.69,9.03-3.79.79-9.13,1.31-12.69-.33-.26-6.9,1.22-14.93,1.87-21.92.4-4.33,1.73-6.83-4.37-6.47-5.1.3-8.29.89-9.03,6.37-.77,5.69-.72,11.79-1.6,17.52-.26,1.7-.57,4.56-1.58,5.89-2.3,3.04-15.5,4.91-18.41,1.41-.39-7.65.64-15.9,1.4-23.55,1.4-14.06,3.05-29.39,5.19-43.31,1.14-7.39,2.57-19.12,12.28-19.45,5.91-.2,7.36,2.23,8.18,7.49l-3.28,23.11c-.03,1.28.24,2.37,1.42,3.01,1.95,1.05,9.26-.14,10.75-1.61,1.6-1.59,2.03-8.22,2.31-10.75.68-6.07.38-13.2,1.45-19.07.76-4.19,1.65-5.14,5.65-6.48,3.89-1.31,13.18-2.79,15.48,1.57,1.51,2.86.42,11.66.27,15.35Z"/>
          <path class="cls-3" d="M257.58,177.02c-2.29-.92-8.13-.42-10.04.92-2.05,1.45-2.24,7.42-2.55,10.04-.5,4.23-.34,13.28-1.97,16.68-1.94,4.04-12.85,5.25-16.72,4.33-3.55-.84-3.55-4.33-3.7-7.26,2.91,3.5,16.11,1.63,18.41-1.41,1.01-1.33,1.31-4.18,1.58-5.89.88-5.73.83-11.83,1.6-17.52.74-5.48,3.92-6.07,9.03-6.37,6.1-.35,4.77,2.14,4.37,6.47Z"/>
          <path class="cls-3" d="M255.72,198.94c3.56,1.64,8.9,1.12,12.69.33,6.41-1.34,7.5-2.85,8.69-9.03,3.37-17.47,4.1-38.41,5.67-56.36.15-1.77.42-4.17.93-5.83-.83,20.56-2.59,44.02-5.13,64.59-.5,4.08-.63,8.08-4.64,10.29-3.34,1.84-13.86,3.94-16.84,1.4-1.8-1.53-1.29-3.35-1.37-5.39Z"/>
          <path class="cls-3" d="M247.79,149.03c-1.18-.64-1.45-1.73-1.42-3.01l3.28-23.11c.02.14.43.5.49,1.13.7,7.95-2.74,16.94-2.35,24.99Z"/>
        </g>
        <g>
          <path class="cls-6" d="M255.25,225.99c-.03,2.37-1.5,4.06-2.7,5.93-5.36,8.38-12.38,16.21-17.93,24.51-1.33,2.11,1.1,3.19,1.97,4.53,2.63,4.09,5.08,8.91,8,12.76,1.61,2.11,3.58,2.67,4.59,5.9.1.32-.04.97,0,1.4-3.4,2.66-8.35,12.84-12.13,13.8-.92.23-1.74.15-2.35-.62-3.24-5.37-5.94-11.33-9.48-16.51-1.31-1.92-2.92-4.51-4.95-5.53-.76.75-2.14,18.05-2.93,21.09-.57,2.2-1.46,3.79-3.59,4.8-2.55,1.21-10.61,2.06-13.17,1.03-.69-.28-1.12-.92-1.76-1.27-.16-5.24,1.61-11.73,2.27-17.09,1.65-13.46,2.9-27.03,4.8-40.44.62-4.37,1.58-14.24,3.17-17.82,1.4-3.14,6.87-3.69,10.06-3.93,3.76-.28,7.09-1.1,8.15,2.79-.05,7.71-2.57,15.23-3.26,22.85.88.26.77-.35.93-.46,2.84-2.02,13.09-19.17,16.41-23.47,2.05-2.65,2.55-4.87,6.13-3.03,3.26,1.67,6.92,5.18,7.78,8.78Z"/>
          <path class="cls-3" d="M198.82,297.81c.63.35,1.07,1,1.76,1.27,2.57,1.03,10.63.18,13.17-1.03,2.13-1.01,3.02-2.6,3.59-4.8.79-3.04,2.17-20.34,2.93-21.09,2.03,1.03,3.64,3.62,4.95,5.53,3.54,5.17,6.24,11.14,9.48,16.51.61.77,1.43.85,2.35.62,3.77-.96,8.73-11.14,12.13-13.8,0,.09.45.37.47.75.08,1.22-3,4.09-3.93,5.35-3.4,4.6-6.26,9.27-7.74,14.88l-15.63-24.26c-1.45-.32-1.23.61-1.49,1.77-1.28,5.89-.99,12.97-2.03,18.97-.8,4.61-5.11,5.68-9.13,6.27-6.9,1.01-10.67.8-10.9-6.94Z"/>
          <path class="cls-3" d="M236.6,260.97c-.87-1.35-3.3-2.42-1.97-4.53,5.55-8.3,12.57-16.14,17.93-24.51,1.2-1.87,2.66-3.56,2.7-5.93.84,3.5.45,5.52-1.31,8.72-4.43,8.06-12.53,16.12-17.39,24.14l.05,2.13Z"/>
          <path class="cls-3" d="M224.94,243.71c-.16.11-.05.73-.93.46.69-7.62,3.21-15.14,3.26-22.85,1.82,6.64-1.63,15.57-2.33,22.39Z"/>
        </g>
        <g>
          <path class="cls-6" d="M116.27,246.51c1.43,19.6-9.76,40.43-27.2,49.52-5.81,3.03-12.31,4.13-18.03,6.68-2.09.93-3.45,1.19-3.75,3.71-.99,8.37,1.15,20.58-1.24,28.61-1.61,5.38-10.05,8.23-15.07,9.65-3.69,1.04-8.09,2.45-11.66.7-.72-6.51,1.33-16.25,1.86-23.09,1.14-14.72,1.59-29.35,2.33-44.07.1-2.07.49-4.05.93-6.06-3.44.82-6.12,1.53-9.33-.47-1.54-6.34-3.88-16.28,1.15-21.47,4.09-4.22,18.94-10.3,24.85-12.46,15.94-5.82,50.04-14.6,55.15,8.74ZM68.7,282.42c2.71.03,12.33-5.56,14.68-7.47,3.98-3.24,6.84-6.51,7.71-11.65.14-.81.59-1.11.48-2.55-.72-9.11-12.13-6.59-18.2-4.68-8.14,2.57-5.27,5.74-5.58,13.08-.09,2.2-1.32,11.96-.04,13.08.24.2.64.19.95.2Z"/>
          <path class="cls-3" d="M39.31,345.38c3.57,1.75,7.97.34,11.66-.7,5.02-1.42,13.47-4.26,15.07-9.65,2.4-8.03.25-20.24,1.24-28.61.3-2.52,1.66-2.78,3.75-3.71,5.72-2.55,12.22-3.65,18.03-6.68,17.44-9.09,28.63-29.92,27.2-49.52,4.96,22.69-10.35,48.25-31.26,57.12-4.03,1.71-9.35,2.6-12.9,4.36-1.71.85-2.24,1.05-2.49,3.11-.97,8.23.41,18.47-.46,27.05-.64,6.35-4.96,8.46-10.27,10.72-6.65,2.83-18.37,7.33-19.57-3.48Z"/>
          <path class="cls-3" d="M35.12,271.69c3.2,2,5.88,1.29,9.33.47-.44,2.01-.83,3.99-.93,6.06-1.95-.7-4.23.73-6.2-.44-1.35-.8-1.83-4.61-2.19-6.09Z"/>
          <path class="cls-5" d="M91.08,263.3c-.87,5.14-3.73,8.41-7.71,11.65-2.35,1.91-11.97,7.5-14.68,7.47l.96-17.46c.46-2.97,6.64-4.21,9.28-4.71,3.63-.69,11.81-2.3,12.14,3.05Z"/>
          <path class="cls-3" d="M91.08,263.3c-.34-5.35-8.51-3.74-12.14-3.05-2.65.5-8.82,1.74-9.28,4.71l-.96,17.46c-.31,0-.71,0-.95-.2-1.28-1.11-.06-10.87.04-13.08.31-7.34-2.56-10.5,5.58-13.08,6.07-1.92,17.48-4.44,18.2,4.68.11,1.44-.34,1.74-.48,2.55Z"/>
        </g>
        <g>
          <path class="cls-6" d="M121.86,119.18c.51,11.9-3.07,18.37-14.21,22.4-5.03,1.82-25.19,6.05-27.56,8.81-1.45,1.69-1.99,10.12-1.59,12.4.17.94.49.77.92,1.16.29.25.49.63.9.74,2.23.62,16.81-4.05,20.54-4.72,4.95-.89,8.9-1.4,9.34,4.91.23,3.24-.6,11.76-3.1,13.93-1.33,1.15-4.57,1.93-6.34,2.52-5.66,1.88-12.33,2.92-17.74,5.12-3.55,1.44-4.74,2.02-4.54,6.18.33,6.94,2.59,14.77,2.81,21.91.07,2.16.32,3.78-.95,5.62-2.71,3.94-18.27,9.16-23.08,9.14-1.85,0-2.89-.57-4.43-1.44-1.52-6.13-.56-16.05-.91-22.64-.81-15.22-2.21-30.52-3.75-45.68-.95-9.27-5.72-21.81,2.38-28.42,9.94-8.11,43.07-15.6,56.22-17,4.15-.44,12.64-1.9,14.75,2.87.39.89.21,1.47.35,2.2Z"/>
          <path class="cls-3" d="M52.84,227.85c1.55.87,2.58,1.43,4.43,1.44,4.81.02,20.37-5.2,23.08-9.14,1.27-1.84,1.02-3.45.95-5.62-.22-7.14-2.48-14.97-2.81-21.91-.2-4.15.99-4.73,4.54-6.18,5.41-2.2,12.07-3.24,17.74-5.12,1.77-.59,5.01-1.37,6.34-2.52,2.5-2.17,3.32-10.69,3.1-13.93,1.69,4.11,1.38,15.38-1.61,18.68-3.46,3.81-17.02,5.93-22.42,7.9s-5.62,1.9-5.35,7.7c.29,6.38,3.38,17.5,2.22,23.22-1.05,5.16-12.13,8.39-16.68,9.44-5.39,1.23-11.82,2.93-13.53-3.97Z"/>
          <path class="cls-3" d="M79.42,163.96c-.44-.39-.76-.22-.92-1.16-.4-2.27.15-10.71,1.59-12.4,2.38-2.77,22.53-6.99,27.56-8.81,11.14-4.04,14.72-10.51,14.21-22.4,1.21,6.13-.52,18.41-4.94,23.27-5.23,5.75-23.88,7.99-31.54,10.9-5.51,2.09-5.84,4.98-5.96,10.6Z"/>
        </g>
      </g>
    </g>
  </g>
</svg>