<?xml version="1.0" encoding="UTF-8"?>
<svg id="Layer_1" xmlns="http://www.w3.org/2000/svg" version="1.1" viewBox="0 0 32 32">
  <!-- Generator: Adobe Illustrator 29.4.0, SVG Export Plug-In . SVG Version: 2.1.0 Build 152)  -->
  <defs>
    <style>
      .st0 {
        fill: #7948ae;
      }

      .st1 {
        fill: #fafaf8;
      }

      .st2 {
        fill: #0a0d0c;
      }
    </style>
  </defs>
  <g>
    <path class="st0" d="M25.61,18.38h-.93c-.1,0-.62-.16-.73-.22-.26-.12-.78-.58-.75-.89.01-.11.13-.32.25-.32.04,0,.47.35.59.41.18.09.45.14.59.22.1.06.34.36.48.47.16.12.36.19.5.33Z"/>
    <path class="st0" d="M6.47,18.38c-.02-.11.01-.08.06-.11.15-.1.29-.15.44-.27.43-.36.38-.35.9-.62.14-.07.69-.43.76-.42.25.02.22.35.14.52-.19.4-1.07.91-1.51.91h-.78Z"/>
    <path class="st1" d="M9.22,28.07s0,.19-.02.24c-.11.25-.52.2-.74.14-.03-.14.04-.08.1-.11.09-.05.61-.32.66-.27Z"/>
    <path class="st1" d="M10.46,27.16l.62-.62c0,.36-.22.7-.62.62Z"/>
    <path class="st2" d="M23.09,24.69c-.05.05.28.44.33.5.55.64,1.17,1.16,2.07,1.12.63-.03,1.49-.58,1.97.07.62.83-.78,1.92-1.47,2.18-.47.18-.81.17-1.31.17-.1,0-.2-.06-.28-.05-.1,0-.22.15-.33.2-1.03.45-1.99.12-2.03-1.1-.7.33-1.63-.24-1.75-.99-.03-.18.03-.69-.03-.77-.02-.02-.53-.26-.55-.24.21,1,.69,2.12,1.33,2.92.45.56,1.68,1.21.97,2.02-.5.57-1.47.13-2.05-.13-2.59-1.16-3.52-4.35-3.91-6.94-.07-.01-.06.09-.07.14-.59,2.34-.95,4.79-3.1,6.31-.66.47-2.57,1.5-3.06.42-.36-.78.49-1.12.94-1.6.81-.87,1.31-2.03,1.54-3.18-.08.09-.52.24-.55.28-.04.06-.05.7-.09.86-.16.67-1.04,1.21-1.69.9-.08,1.06-.85,1.51-1.84,1.2-.19-.06-.46-.28-.56-.3-.23-.04-.73.08-1.04.05-.67-.07-1.58-.69-1.94-1.25-.22-.34-.34-.78-.06-1.13.49-.6,1.27-.09,1.9-.04.98.07,1.64-.49,2.23-1.19.05-.06.36-.43.31-.48-.49.1-.93.07-1.36-.18-.07-.04-.21-.2-.23-.2s-.15.14-.24.18c-.59.27-1.7.08-2.02-.53-.09-.18-.1-.46-.16-.55-.03-.04-.29-.17-.38-.24-.37-.31-.62-.79-.65-1.28-.37-.06-.85-.25-1.06-.58-.25-.38-.13-1.21-.24-1.66-.06-.28-.46-.83-.59-1.17-1.06-2.79,1.11-6.22,4.2-6,1.71.12,3.38,1.78,2.89,3.55-.03.1-.16.31-.16.36,0,.03.32.22.41.4.54,1.04-.63,1.95-1.54,2.17-.33.08-.9.06-1.11.32-.07.09,0,.18,0,.28,0,.23-.05.93,0,1.09.03.09.45.26.56.29,1.87.52,3.7-1.7,3.71-3.42,0-.64-.5-1.02-.57-1.57-.06-.46.09-1.11.03-1.5-.09-.65-.73-.96-.6-1.91.06-.47.53-1.3.16-1.74-.63-.76-2.14-.95-2.01-2.15.07-.65.92-1.63,1.35-2.12.24-.27.55-.61.79-.83,1.14-1.02,2.16-2.16,3.37-3.13.43-.35,1.78-1.4,2.24-1.52.67-.16,1.51.6,2.03.99,1.51,1.14,3.13,2.65,4.42,4.03.6.64,1.93,2,1.74,2.93-.16.78-1.02.95-1.52,1.33-.1.07-.58.56-.59.64-.03.14-.01.51,0,.66.07.57.31.82.23,1.52-.06.47-.49.86-.55,1.25s.09,1.03.03,1.5c-.07.55-.57.97-.57,1.62,0,1.72,1.82,3.9,3.67,3.43.14-.04.56-.21.6-.35.03-.11.03-1.03.01-1.18-.05-.4-.43-.31-.69-.36-.95-.17-2.22-.75-2.07-1.91.05-.39.46-.7.47-.81,0-.09-.18-.5-.19-.71-.14-1.67,1.27-3.03,2.87-3.16,3.14-.25,5.35,3.2,4.24,6.05-.13.35-.45.77-.55,1.07-.16.51.06,1.35-.31,1.78-.25.3-.67.43-1.03.51-.03.45-.26.93-.6,1.23-.09.08-.38.23-.39.25-.05.08-.08.51-.24.74-.35.51-1.62.67-2.1.32-.05-.04-.02-.15-.12-.11-.1.15-.67.43-.81.43h-.69ZM17.71,2.91c-.5-.45-1.09-.84-1.62-1.26h-.15c-2.64,1.54-4.48,4.44-4.94,7.45-.13.88-.02,1.68-.11,2.5-.04.39-.33.88-.33,1.24,0,.45.49,1.06.56,1.53.09.63-.11,1.19.09,1.81s.46.68.4,1.5c-.09,1.21-.63,2.5-1.57,3.27-1.21,1-2.53,1.2-3.86.27-.41.34-.99.45-1.5.57.1,1.29,2.21,1.52,3.19,1.41.64-.07,2.04-.65,2.52-1.08.45-.4.66-1.2,1.03-1.66-.12,1.44-.74,2.88-1.48,4.1-.69,1.14-1.7,2.51-3.2,2.45-.52-.02-1.07-.23-1.59-.24-.13.13.37.6.47.69,2.02,1.76,4.91-.94,6.02-2.63.95-1.45.97-2.88,1.64-4.3.04-.07.11-.23.18-.27.03,1.68-.03,3.39-.35,5.04-.29,1.49-.99,3.33-2.12,4.39-.11.1-.79.5-.35.63.21.06,1.31-.44,1.55-.57,2.61-1.51,3.13-6.24,3.63-8.96.05-.28.08-.58.11-.87.15.16.21.48.27.7.73,2.8.75,6.82,3.17,8.8.35.28,1.39.8,1.81.89.15.03.36,0,.33-.2-.01-.11-.72-.67-.87-.84-1.77-2.04-2.09-5.5-2.16-8.1,0-.3-.05-.71.07-.98.45.96.6,2.03.97,3.02.77,2.06,2.88,4.59,5.21,4.81.73.07,1.59-.37,2.01-.97.04-.06.23-.37.07-.36-.21.01-.43.13-.64.17-.6.12-1.11.19-1.7-.01-1.71-.57-3.35-4.03-3.89-5.65-.07-.2-.16-.42-.13-.63l1.55,1.78c1.29.84,2.5,1.01,3.99.62.5-.13.98-.33,1.2-.85s-.13-.4-.56-.55c-.15-.06-.72-.33-.81-.33-.05,0-.7.36-.87.41-2.45.83-4.54-2.01-4.57-4.24-.01-.68.45-1.08.52-1.62.06-.42-.03-.94,0-1.38.05-.66.62-1.17.51-1.84-.04-.25-.24-.56-.27-.82-.06-.45.02-1,0-1.47-.15-2.57-1.54-5.68-3.44-7.41ZM20.46,5.19c-.1-.09-.24-.22-.36-.28.42.82.88,1.62,1.15,2.5.25.78.36,1.58.47,2.38,0,.06.02.26.09.27.16-.69,1.63-.65,1.46-1.48-.08-.43-1.11-1.61-1.44-1.98-.39-.44-.93-1.01-1.37-1.4ZM10.22,9.97c.1-1.09.29-2.12.68-3.15.19-.5.46-.96.63-1.46-.65.68-1.36,1.3-1.97,2.02-.25.29-.78.94-.84,1.3-.07.5.9.73,1.17.93.13.1.18.27.33.35ZM7.85,16.67c1.2-.88.68-2.46-.44-3.14-1.76-1.07-3.81.16-4.57,1.86-.5,1.14-.43,2.26.17,3.34.09.17.37.49.41.64.09.42-.21,1.65.41,1.73.46.06.98,0,1.41-.16.73-.26.81-.49.65-1.27-.72.4-1.6.49-2.28-.05.93-.1,1.9-.34,2.57-1.05-.91.25-2.11-.1-2.57-.97-.12-.22-.29-.72.08-.74.31-.02.38.37.56.55.86.91,2.33.35,2.95-.56.24-.36.35-.72.46-1.14.22.25.19.64.19.95ZM26.04,19.71c-.05.36-.05.84.3,1.06.47.29,1.32.39,1.86.32.66-.08.29-1.34.41-1.77.03-.09.35-.48.43-.62,2.01-3.6-2.8-7.54-5.14-4.52-.56.72-.67,1.98.28,2.4,0-.18-.02-.36.01-.53.02-.09.09-.31.18-.37.18,1.31,1.62,2.69,2.98,2.05.44-.21.41-.39.68-.7.39-.44.68-.01.47.47-.42.95-1.7,1.34-2.65,1.07.4.45.96.69,1.53.87l.92.22c-.42.24-.91.39-1.4.31-.29-.05-.56-.22-.85-.26ZM6.47,18.38h.78c.44,0,1.33-.51,1.51-.91.08-.17.11-.5-.14-.52-.07,0-.62.35-.76.42-.52.27-.47.27-.9.62-.15.12-.29.18-.44.27-.05.03-.08,0-.06.11ZM25.61,18.38c-.13-.15-.33-.21-.5-.33-.15-.11-.38-.41-.48-.47-.14-.08-.41-.13-.59-.22-.12-.06-.55-.41-.59-.41-.12,0-.24.22-.25.32-.03.31.5.76.75.89.11.05.63.22.73.22h.93ZM9.84,23.27l-.5.34-.07.28c.12.13.62-.57.57-.62ZM22.71,23.89c.05-.28-.24-.49-.47-.57-.04.04.4.66.47.57ZM5.9,23.74c-.13.13.22.32.46.25.52-.17-.43-.28-.46-.25ZM8.7,23.93c.15-.24-.41-.2-.52-.14-.03.23.48.21.52.14ZM23.8,23.79s-.56-.12-.52.07c.08.2.65.14.52-.07ZM26.13,23.74c-.1-.02-.79.06-.62.24.04.04.67.03.62-.24ZM19.72,24.79c-.2-.17.01.49.24.43.02-.02-.22-.41-.24-.43ZM10.46,27.16c.4.08.61-.25.62-.62l-.62.62ZM21.53,27.07s-.08-.01-.12-.05c-.17-.16-.31-.34-.5-.48,0,.36.2.67.59.62.04,0,.03-.09.02-.09ZM9.22,28.07s-.56.23-.66.27c-.06.03-.13-.03-.1.11.22.06.62.11.74-.14.02-.05.04-.22.02-.24ZM23.52,28.35s-.13,0-.19-.02c-.16-.05-.31-.12-.47-.17,0,.36.31.4.6.29.05-.02.15-.03.07-.1Z"/>
    <path class="st1" d="M21.53,27.07s.02.09-.02.09c-.39.05-.59-.26-.59-.62.19.14.33.32.5.48.04.04.11.04.12.05Z"/>
    <path class="st1" d="M9.84,23.27s-.44.74-.57.62l.07-.28.5-.34Z"/>
    <path class="st0" d="M23.52,28.35c.08.07-.02.08-.07.1-.29.11-.6.07-.6-.29.16.05.31.12.47.17.06.02.18.02.19.02Z"/>
    <path class="st1" d="M5.9,23.74s.98.08.46.25c-.23.08-.58-.12-.46-.25Z"/>
    <path class="st1" d="M26.13,23.74c.05.26-.58.28-.62.24-.17-.18.51-.26.62-.24Z"/>
    <path class="st0" d="M22.71,23.89c-.07.09-.52-.53-.47-.57.23.08.53.29.47.57Z"/>
    <path class="st0" d="M23.8,23.79c.13.21-.44.27-.52.07-.04-.19.49-.12.52-.07Z"/>
    <path class="st0" d="M8.7,23.93c-.05.07-.56.09-.52-.14.12-.06.67-.1.52.14Z"/>
    <path class="st1" d="M19.72,24.79s.26.41.24.43c-.23.06-.44-.6-.24-.43Z"/>
    <path class="st2" d="M20.72,12.96l-.09.33c.06.06.56-.3.21.14-.2.26-.43.22-.4.59.02.41.18.74.14,1.18-.24,2.67-3.85,2.32-3.96-.16.93-.47,1.82-1.02,2.74-1.49.15-.07,1.32-.65,1.37-.6ZM20,14.1c-.12-.11-1.17.35-1.23.5-.03.07.26.18.28.29.36.59-.25,1.19-.87.97-.31-.11-.28-.28-.39-.51-.07-.15-.39.08-.48.16.23.97,1.46,1.26,2.2.64.61-.51.69-1.3.5-2.04Z"/>
    <path class="st2" d="M11.54,13.73c-.25-.1-.38-.29-.51-.51.14-.05.33.06.45.12.02-.09-.33-.45-.06-.37l3.93,2.06c.17.21-.03.34-.07.45-.11.3-.14.48-.34.75-.94,1.28-3.13,1.02-3.48-.6-.14-.63.07-1.27.07-1.9ZM14.16,15.29c.02.72-1.03.83-1.28.21-.16-.4.04-.64.33-.9-.33-.29-.75-.49-1.18-.54-.5,1.24.34,2.78,1.8,2.35.31-.09.87-.55.81-.9,0-.03-.46-.24-.48-.22Z"/>
    <path class="st0" d="M17.71,2.91c1.9,1.73,3.29,4.85,3.44,7.41.03.47-.05,1.02,0,1.47.03.26.23.57.27.82.11.67-.46,1.18-.51,1.84-.03.43.06.95,0,1.38-.08.54-.53.94-.52,1.62.03,2.23,2.13,5.06,4.57,4.24.17-.06.82-.41.87-.41.09,0,.65.28.81.33.43.15.78.02.56.55s-.7.72-1.2.85c-1.48.39-2.7.22-3.99-.62l-1.55-1.78c-.03.21.07.43.13.63.54,1.63,2.19,5.08,3.89,5.65.59.2,1.1.13,1.7.01.21-.04.43-.16.64-.17.16-.01-.03.3-.07.36-.42.59-1.28,1.04-2.01.97-2.33-.22-4.44-2.76-5.21-4.81-.37-.99-.53-2.06-.97-3.02-.12.26-.08.68-.07.98.07,2.6.39,6.06,2.16,8.1.15.17.85.73.87.84.02.2-.18.23-.33.2-.43-.09-1.47-.61-1.81-.89-2.43-1.98-2.45-6-3.17-8.8-.06-.22-.12-.54-.27-.7-.02.29-.06.58-.11.87-.5,2.72-1.02,7.44-3.63,8.96-.24.14-1.34.63-1.55.57-.44-.13.24-.53.35-.63,1.13-1.05,1.84-2.89,2.12-4.39.32-1.66.37-3.36.35-5.04-.07.04-.15.19-.18.27-.67,1.42-.69,2.85-1.64,4.3-1.11,1.69-4,4.39-6.02,2.63-.1-.09-.61-.56-.47-.69.53,0,1.07.22,1.59.24,1.49.06,2.51-1.32,3.2-2.45.74-1.22,1.36-2.66,1.48-4.1-.37.46-.59,1.27-1.03,1.66-.48.43-1.88,1.01-2.52,1.08-.98.11-3.09-.12-3.19-1.41.51-.12,1.09-.23,1.5-.57,1.34.93,2.65.73,3.86-.27.94-.78,1.48-2.07,1.57-3.27.06-.81-.19-.86-.4-1.5s0-1.19-.09-1.81c-.07-.47-.56-1.08-.56-1.53,0-.36.29-.85.33-1.24.09-.82-.02-1.62.11-2.5.46-3.01,2.3-5.92,4.94-7.46h.15c.53.43,1.12.81,1.62,1.27ZM11.54,13.73c0,.64-.21,1.27-.07,1.9.35,1.62,2.54,1.88,3.48.6.2-.28.23-.45.34-.75.04-.11.24-.24.07-.45l-3.93-2.06c-.28-.08.08.28.06.37-.13-.06-.32-.16-.45-.12.13.22.26.41.51.51ZM20.72,12.96c-.05-.05-1.22.52-1.37.6-.92.47-1.81,1.02-2.74,1.49.12,2.48,3.73,2.83,3.96.16.04-.45-.11-.78-.14-1.18-.02-.37.2-.34.4-.59.35-.44-.16-.09-.21-.14l.09-.33Z"/>
    <path class="st1" d="M20,14.1c.19.74.12,1.53-.5,2.04-.74.62-1.97.33-2.2-.64.09-.08.41-.31.48-.16.11.23.08.4.39.51.62.22,1.24-.38.87-.97-.01-.11-.31-.22-.28-.29.07-.14,1.12-.61,1.23-.5Z"/>
    <path class="st0" d="M26.04,19.71c.29.05.56.22.85.26.49.08.98-.07,1.4-.31l-.92-.22c-.57-.18-1.13-.42-1.53-.87.95.27,2.24-.12,2.65-1.07.21-.48-.08-.91-.47-.47-.27.31-.24.49-.68.7-1.35.64-2.8-.74-2.98-2.05-.09.05-.16.28-.18.37-.03.18,0,.36-.01.53-.96-.42-.85-1.67-.28-2.4,2.34-3.02,7.15.92,5.14,4.52-.08.14-.4.53-.43.62-.12.43.25,1.7-.41,1.77-.54.06-1.39-.04-1.86-.32-.35-.21-.35-.69-.3-1.06Z"/>
    <path class="st1" d="M14.16,15.29s.47.19.48.22c.06.35-.5.81-.81.9-1.46.43-2.3-1.11-1.8-2.35.44.06.86.26,1.18.54-.28.25-.49.49-.33.9.25.62,1.3.51,1.28-.21Z"/>
    <path class="st0" d="M7.85,16.67c0-.31.03-.7-.19-.95-.1.41-.21.78-.46,1.14-.62.91-2.09,1.47-2.95.56-.17-.18-.25-.57-.56-.55-.37.02-.2.53-.08.74.46.86,1.66,1.21,2.57.97-.66.7-1.63.94-2.57,1.05.68.54,1.56.45,2.28.05.15.78.08,1.01-.65,1.27-.43.15-.96.21-1.41.16-.62-.08-.32-1.31-.41-1.73-.03-.15-.32-.47-.41-.64-.61-1.08-.68-2.2-.17-3.34.75-1.7,2.81-2.93,4.57-1.86,1.12.68,1.64,2.27.44,3.14Z"/>
  </g>
  <g>
    <path class="st0" d="M20.46,5.19c.44.39.98.96,1.37,1.4.33.37,1.35,1.56,1.44,1.98.17.84-1.31.8-1.46,1.48-.07,0-.08-.21-.09-.27-.11-.8-.22-1.61-.47-2.38-.28-.88-.74-1.69-1.15-2.5.12.06.25.19.36.28Z"/>
    <path class="st0" d="M10.22,9.97c-.15-.08-.2-.25-.33-.35-.26-.2-1.24-.43-1.17-.93.05-.36.59-1.01.84-1.3.61-.71,1.32-1.34,1.97-2.02-.17.5-.44.96-.63,1.46-.39,1.02-.58,2.06-.68,3.15Z"/>
  </g>
</svg>