<?xml version="1.0" encoding="UTF-8"?>
<svg id="Layer_1" data-name="Layer 1" xmlns="http://www.w3.org/2000/svg" viewBox="0 0 32 32">
  <defs>
    <style>
      .cls-1 {
        fill: #bc0809;
      }

      .cls-2 {
        fill: #120101;
      }

      .cls-3 {
        fill: #850505;
      }

      .cls-4 {
        fill: #fdfcfd;
      }

      .cls-5 {
        fill: #fcadba;
      }

      .cls-6 {
        fill: #fc94a2;
      }
    </style>
  </defs>
  <path class="cls-1" d="M22.91,14.71c-.3.03-.58-.15-.7-.41-.07-.15-.07-.31.01-.47.05-.11.17-.22.34-.25.37-.07.74.16.81.52.06.31-.13.57-.46.6ZM22.81,13.89c-.08-.1-.26-.08-.33,0-.14.04.54.09.33,0Z"/>
  <path class="cls-1" d="M8.7,13.79c-.05.37-.38.62-.73.61-.2,0-.39-.13-.44-.32-.06-.24.05-.47.21-.62.18-.16.43-.22.67-.14.18.06.31.24.28.46ZM8.26,13.63c0-.16-.36-.02-.34.1.12-.01.22-.05.34-.1Z"/>
  <path class="cls-3" d="M7.83,16.84c-.09.01-.16-.02-.21-.06-.11-.09-.08-.35.17-.5.06-.04.13-.05.2-.02.04.02.1.06.12.14.05.19-.07.41-.28.44ZM7.93,16.43c-.03-.1-.12,0-.15.04-.03.03-.09.12-.02.16.08.04.21-.07.17-.2Z"/>
  <path class="cls-3" d="M23.44,17.65c-.08.12-.25.1-.34.04-.11-.07-.18-.19-.15-.34.02-.09.09-.15.15-.17.1-.03.18,0,.26.07.1.09.17.26.08.4ZM23.26,17.52c.05-.03.03-.12,0-.15-.02-.03-.06-.08-.12-.06-.05.02-.03.11-.02.15s.06.09.12.06Z"/>
  <path class="cls-3" d="M6.5,27.26s-.01.11.03.14c.06.03.19.04.24,0,.06-.07-.04-.11-.08-.15.13-.01.43.02.42.17-.01.23-.83.19-.85,0,0-.12.19-.15.25-.16Z"/>
  <path class="cls-3" d="M26.72,27.27s-.04.1-.01.15c.07.03.15.03.22.01.02-.07,0-.12-.02-.16.13,0,.36.05.32.18-.05.17-.75.16-.76-.03,0-.13.18-.14.26-.16Z"/>
  <path class="cls-3" d="M24.47,15.93c-.04.14-.21.13-.31.07-.08-.05-.16-.2-.06-.3.08-.08.18-.05.24-.01.07.04.17.12.13.24Z"/>
  <path class="cls-3" d="M6.13,15.7c-.07-.02-.08-.1-.07-.16,0-.09.18-.22.3-.21.04,0,.11.03.12.11.02.17-.18.31-.34.25Z"/>
  <circle class="cls-3" cx="29.11" cy="24.23" r=".17"/>
  <path class="cls-1" d="M3.87,26.54c-.13.11-.3,0-.36-.11.1-.03.18-.06.24-.05.05.01.15.11.12.15Z"/>
  <path class="cls-1" d="M5.23,21.32c-.02.07-.14.05-.18.01-.05-.04-.07-.13-.02-.19.04-.04.11-.03.15,0,.03.02.09.09.06.17Z"/>
  <path class="cls-1" d="M26.9,27.26s.04.1.02.16c-.07.02-.14.01-.22-.01-.03-.05,0-.11.01-.15.08-.01.13-.02.18,0Z"/>
  <circle class="cls-6" cx="7.47" cy="19.21" r=".1"/>
  <path class="cls-1" d="M8.95,27.65c-.1.08-.22.08-.29-.02.1-.05.2-.06.29.02Z"/>
  <path class="cls-1" d="M15.61,27.54c-.01.05-.04.08-.09.08-.03,0-.12-.02-.08-.06l.18-.15s0,.08,0,.13Z"/>
  <circle class="cls-6" cx="9.35" cy="12.9" r=".08"/>
  <circle class="cls-6" cx="7.5" cy="19.71" r=".07"/>
  <path class="cls-1" d="M7.83,27.08c.01.05-.05.05-.07.06-.03,0-.11,0-.09-.06.01-.06.15-.06.17,0Z"/>
  <path class="cls-1" d="M30.8,25.87s-.05,0-.04-.03c.01,0,.05,0,.04.03Z"/>
  <path class="cls-5" d="M22.81,13.89c.22.09-.47.03-.33,0,.07-.08.25-.1.33,0Z"/>
  <path class="cls-5" d="M8.26,13.63c-.12.05-.23.09-.34.1-.02-.13.35-.26.34-.1Z"/>
  <path class="cls-1" d="M7.93,16.43c.03.12-.09.24-.17.2-.07-.04,0-.13.02-.16.03-.04.13-.14.15-.04Z"/>
  <path class="cls-1" d="M23.26,17.52c-.06.03-.11-.02-.12-.06s-.04-.13.02-.15c.06-.02.1.03.12.06.02.03.05.12,0,.15Z"/>
  <g>
    <path class="cls-2" d="M26.33,20.57l-.11-.12s.01-.12.02-.17c0-.01.02-.02.03-.03.06,0,.12-.02.16-.07.04.14.13.25.24.38.11-.1.11-.22.1-.35-.02-.15-.34-.39-.41-.28-.04-.03-.19-.17-.17-.24.01-.05.08-.04.13-.05.19.05.34.2.37.19l.08-.04c.09-.05.16.23.18.38.01.11-.04.25-.04.37,0,.15-.11.23-.17.34-.07.13-.09.29-.22.41-.03.03-.03.09-.04.12-.02.01-.06.02-.08.04-.04.08.08.14.04.23-.01.04-.05.05-.1.09-.26.21-.58.36-.92.35-.32-.01-.65-.11-.96-.2-.03,0-.87-.48-.95-.51-.37-.34-.76-.68-1.09-1.08-.05-.06-.11-.11-.17-.13,0-.05-.02-.09-.05-.13-.19-.23-.37-.46-.52-.72-.13-.22-.3-.41-.42-.62-.1-.2-.18-.41-.32-.6-.08-.12-.09-.3-.2-.42-.39,0-.79.04-1.15-.1.6-.06,1.14-.11,1.58-.52.28-.26.35-.61.25-.96-.07-.23-.2-.35-.35-.49-.17-.17-.3-.39-.37-.62-.17-.54-.35-1.05-.44-1.6l-.24-1.52c-.09-.56-.22-1.1-.34-1.65l-.05-.23c-.31-1.41-1.28-2.82-2.23-3.85-.22-.24-.41-.51-.67-.69-.02-.04-.05-.09-.09-.13-.34-.33-.69-.65-1.06-.96-.3.17-.52.4-.77.59-.53.41-.98.92-1.44,1.41l-.3.33c-1.06,1.16-1.83,3.5-2.07,5.08-.15,1-.34,1.96-.6,2.94-.09.34-.2.64-.46.88-.16.14-.23.32-.3.5-.09.21-.11.42.01.67.3.6,1.1.77,1.73.83-.39.13-.77.1-1.16.07-.1.07-.08.21-.13.29-.17.22-.29.48-.41.73-.13.27-1.06,1.4-1.3,1.63-.51.5-1.07.94-1.67,1.31-.34.21-.74.3-1.12.42-.59.02-1.42-.02-1.64-.72-.05-.15-.06-.3-.16-.43.05-.19.1-.68-.12-.76-.03-.13-.05-.25.04-.39l.19-.28c.04-.05.16-.07.14-.19-.05.03-.09.06-.14.06,0-.06.06-.1.1-.14.05-.01.11-.04.16-.02.05.02.08.07.12.1.07.28-.27.36-.39.58-.04.07.08.26.17.26.32.02.44-.42.45-.65.12-.13.22-.7.43-.59.02.11.08.24.23.22.12-.01.21-.09.29-.15.1-.08.23-.13.32-.21.38-.02.33.06.67.09-.06-.24-.45-.47-.64-.54,0,0-.02,0-.03,0,0-.03-.05-.02-.07-.03-.01,0-.02,0-.03,0-.22-.1-.48-.1-.73-.06-.54.08-1,.35-1.38.72-.15.15-.32.3-.37.5-.24.32-.35.72-.44,1.11-.02.07-.01.15-.01.23v.16c0,.29.03.6.16.86.02.03.05.09.06.13.07.2.32.51.54.61.16.35-.13.23.25.58.06.06.09.11.05.18-.06.11-.07.26.03.35.12.37.75.56,1.14.55.14-.43.57-.7,1.01-.65.24.02.43.17.51.39,1-.15,2.05-1.04,2.65-1.8.14-.17.21-.37.32-.54.16-.25.5-.7.43-.97.12-.14.22-.31.31-.49.23-.47.46-.92.72-1.36.09-.16.15-.31.28-.42,0,.05-.02.1-.04.15-.25.55-.44,1.11-.65,1.68l-.23.64c-.04.1-.08.23-.13.32-.24.52-.46,1.06-.74,1.58-.31.58-.66,1.09-1.07,1.58-.23.14-.4.38-.64.51-.29.15-.64.23-.96.22-.23,0-.34-.11-.49-.22-.03-.11-.1-.21-.1-.32,0-.31.2-.45.01-.58s-.41-.14-.62-.04c-.32.16-.37.7-.25.95,0,.02,0,.04,0,.05,0,.01,0,.05.03.04.2.77,1.06,1.12,1.79,1.15.29.01.56-.02.83-.1.54-.15,1.06-.33,1.52-.68.11-.09.24-.17.32-.29,0-.02.26-.55.11-.47,0-.1.09-.21.21-.2.05,0,.1.12.08.16l-.15.35c.13-.09.26-.15.31-.27.03,0,.05-.01.07-.03.05-.04.09-.1.15-.13.04.02.06.06.1.1.08-.11.13-.22.19-.33h.09s.02.03.03.03c-.03.15-.19.25-.3.36-.14.15-.28.29-.45.42l-.81.63c-.37.29-.88.37-1.32.57.73-.06,1.42-.31,1.98-.7.35-.25.72-.47,1.03-.8.9-.94,1.87-2.49,2.07-3.77l.51-1.49c-.11.91-.15,1.77-.07,2.64.06.73.12,1.53.48,2.21.1.55.76,1.36,1.25,1.59.17.18.43.26.64.37.33.17.71.27,1.09.25-.13-.03-.24-.02-.35-.1-.08-.06-.23-.03-.3-.11-.06-.08-.1-.21-.22-.23-.04-.12-.16-.2-.29-.19-.01-.06,0-.13.07-.14.05.02.13.03.19.05,0,.05.05.09.1.13l.27.21c.25.19.57.22.85.32.06.02.08.04.18.03.46-.09.87-.36,1.04-.81.15-.4.02-.88-.29-1.15-.06-.05-.15-.04-.21,0-.2.14.13.45.08.63-.08.27-.27.46-.58.47-.44.02-.62-.17-.85-.51-.39-.91-.21-1.6-.09-2.51l.08-.59c.13-.93.24-1.84.24-2.8l.26,1.2c0,.18.09.35.1.52.04.45.25.82.39,1.21.32.95.82,1.9,1.58,2.57l.47.42c.23.21.47.39.74.55.23.14.44.3.72.4l.39.14c.27.1.56.2.86.17l-.79-.29-.39-.24c-.11-.07-.21-.17-.34-.17-.02-.08-.26-.26-.33-.29-.09-.11-.21-.19-.32-.29-.04-.09-.07-.2-.16-.25-.02-.02,0-.07-.04-.09,0-.04,0-.09,0-.13v-.1s0-.02,0-.03c.01,0,.02-.02.03-.03.03-.04.08-.06.12-.08.15.1.31.15.4.34s.26.34.13.46c.51.47,1.13.83,1.81.98,0,.03.05.03.07.03.02,0,.04,0,.06,0,.16.1.37.08.55.11.43.07.9-.06,1.3-.27.64-.34.93-1.11.71-1.73-.07-.19-.12-.37-.34-.45-.25-.09-.56,0-.63.29-.02.1.08.17.09.25.01.08.04.18.04.28s-.09.26-.17.33c-.06.06-.19.11-.28.13-.77.21-1.56-.39-2.02-.96-.05-.06-.12-.12-.16-.16-.33-.52-.66-1.03-.91-1.6-.04-.1-.09-.2-.13-.29l-.27-.67c-.26-.65-.43-1.32-.64-1.97-.1-.31-.13-.64-.27-.94-.01-.03.02-.06.02-.07.02.02.05.04.07.08l.24.53.55,1.26c.19.43.33.88.59,1.3l.49.76c.34.52,1.79,1.67,2.51,1.61.06-.32.52-.49.78-.44.31.06.54.27.68.54.07.03.19,0,.24-.05h.16s.05-.02.04-.04c.1,0,.19-.06.28-.07.17-.02.31-.13.48-.18.22-.06.39-.14.54-.29.14-.14.34-.27.38-.47.47-.53.63-1.22.54-1.92.1.03.13.16.22.22l.04.17c-.05.21.15.37.26.47.05.04-.02.18.05.21-.01.08.01.17,0,.25-.06.02,0,.15-.05.18-.18.12-.21-.42-.27-.46-.01.12-.06.22-.08.33-.09.58.21.69.08.91-.04.07-.1.14-.12.22-.02,0-.03.02-.03.03,0,0,0,.02,0,.03-.28-.03-.21.13-.37.27-.07.06-.12.13-.13.22-.19.1-.35.25-.52.38-.27-.2-.16.14-.6.17-.08,0-.16.07-.16.14-.14.05-.27.19-.33.34-.11.28.42.23.52.26.12.08.25.06.4-.04l-.02.14c.09-.02.11-.07.17-.07.09.03.26.1.35.16s.17.19.27.23c.17.08.38.01.55.17l-.52.06c-.08,0-.12.09-.2.12-.18.07-.37.07-.56.11-.33.06-.68.07-1.01,0-.03.07.01.15-.02.17-.15.07-.48.03-.66,0-.14-.03-.25,0-.38.03l-1.08.2c-.57.1-1.66.17-2.19.01-.11-.1-.77-.24-1.01-.29.27.28.65.36,1,.34.21.42-.8.07-.99.03-.47.2-1.28.03-1.78-.09-.27-.07-.53-.07-.78.03-.29.11-.57.12-.88.15-.37.03-.76.05-1.12-.05-.23-.06-.42.02-.65,0l-1.17-.08c-.11,0-.23-.05-.34-.02-.25.07-.43-.07-.65-.16-.24-.1-.56-.15-.83-.11-.58.09-1.14.21-1.73.22-.25,0-.47-.05-.65-.25-.3.09-.61.14-.9.11-.02-.06-.02-.13-.08-.15-.02,0-.62.13-.75.13-.67.04-1.34,0-1.99-.13-.35-.07-.57-.26-.91-.3-.18-.02-.33-.06-.52-.02-.49.1-.78.1-1.27-.09-.08-.03-.1-.14-.22-.1-.02,0-.34.04-.34-.07s.36-.07.44-.13c.07-.05.11-.19.23-.21.05,0,.15-.02.16-.07.07-.2.34-.06.36-.46,0-.2-.15-.27-.23-.39.02-.02.02-.04,0-.05-.02-.01-.07,0-.08-.02-.03-.05.02-.12,0-.18l-.37-.21c-.11-.06-.21-.12-.32-.06-.11-.14-.31-.22-.45-.32,0-.1-.09-.18-.13-.27-.06-.16-.14-.27-.27-.39-.08-.07-.13-.16-.24-.14-.03-.12-.1-.24-.19-.31-.09-.39.09-.46.04-.69-.02-.08-.11-.15-.11-.24,0-.11,0-.21-.03-.32.08-.16.17.11.31-.07.07-.09.08-.19.1-.28.04-.17.1-.36.1-.54.01-.02.04-.05.02-.07-.02-.02-.04-.02-.06-.02-.02,0-.04,0-.06,0-.03,0-.07,0-.09-.03.4-.99,1.14-1.91,2.22-2.21.83-.23,1.7.06,2.14.8.05.08.07.19,0,.26-.18.17-.56-.22-.84-.08l-.36.18c-.16.08-.29.19-.42.19-.08,0-.17-.03-.26-.02-.14.13-.16.3-.18.46,0,.06-.05.13-.04.2-.13.03-.14.13-.17.21-.05.05-.17.09-.16.2l.04.32s0,.12-.04.12c-.17.02-.18-.33-.31-.16-.06.08.11.46.16.6.04.09.11.14.22.14,0,.05-.08.06-.06.1.3.42.47.22.36.19,0,0-.15-.13-.14-.2,0-.03.04-.11.09-.11.06,0,.11.05.16.06-.01.04-.06.14.02.16.35.08.7.01,1.04-.12,1.65-.67,3.09-2.34,3.86-3.95-.59-.39-.8-1.08-.49-1.71.13-.26.3-.47.5-.67.29-.77.45-1.57.64-2.38-.13-.25-.31-.46-.54-.62l-.76-.54c-.45-.32-.49-.92-.21-1.38.25-.42.57-.78.95-1.08l1.38-1.11.99-.76c.75-1.01,1.56-1.94,2.55-2.72.27-.21.52-.4.83-.57.54.32,1.97,1.73,2.37,2.2l.95,1.1c.28.32,2.69,1.84,3.44,2.94.42.61.12,1.24-.47,1.59-.34.21-1.01.6-1.14.96.09.65.29,1.27.44,1.91.07.31.2.54.42.77.34.36.49.86.36,1.34-.09.33-.33.56-.61.77.46.93.99,1.78,1.65,2.55.54.63,1.2,1.13,1.97,1.42.37.14.79.19,1.14.02-.02-.23.21-.33.37-.55.07-.09-.01-.25-.02-.34s-.08-.09-.12-.12ZM11.5,8.25c-.54.39-1.05.82-1.56,1.27-.25.22-.46.46-.63.74-.16.25-.19.55-.03.79.1.16.25.28.42.38.28.17.54.35.8.57.07-.21.08-.4.13-.62.2-.88.42-1.77.83-2.59l.42-.84c-.14.08-.25.17-.36.29ZM20.52,11.41c0,.2.05.39.1.61.33-.36.89-.59,1.18-.83.24-.19.32-.51.16-.78s-.36-.52-.6-.74c-.55-.48-1.1-.94-1.7-1.36-.1-.07-.16-.23-.36-.25.61,1.08.92,2.13,1.22,3.35ZM2.38,21.76c-.02.15.04.85.25.87.03.13.15.2.27.22,0,.21.13.4.27.54.06.06.11.12.2.15.07.02.19,0,.24-.08.07-.13-.02-.34-.15-.38-.04-.13-.16-.23-.27-.32-.08-.34-.28-.38-.41-.73-.02-.05-.04-.1-.09-.1,0-.02,0-.05,0-.07-.02-.14-.04-.27-.09-.44-.09.06-.33.27-.22.35ZM17.35,22.41c-.02-.13-.02-.21-.06-.3-.05.11-.02.21,0,.32.03,0,.06.01.07-.02ZM27.76,23.63c.27.07.6-.58.46-.93-.11.1-.7.87-.46.93ZM17.68,24.26s.04-.06.05-.11c.02-.11.13-.16.16-.25-.02-.14-.11-.25-.16-.38l-.2-.57s-.02-.04-.02-.04c-.02-.02-.03,0-.03,0,0,.07.03.26.03.55,0,.2.07.39.09.58-.05.02-.1.03-.1.07,0,.07.08.19.17.16ZM12.63,24.5c-.04.15-.09.33,0,.48.02.03,0,.1.04.11.47.2.38-1.07.4-1.36,0-.13-.04-.23-.04-.35v-.48c-.07.18-.09.38-.14.58l-.25,1.02ZM17.25,24.74c.09-.19.02-1.37-.15-1.48-.08.54-.02,1,.15,1.48ZM7.33,24.37c.08-.07.19-.11.28-.17.04-.02.48-.51.49-.62l-.39.33c-.06.02-.15-.05-.22.06s-.43.28-.32.39c.05.05.1.06.16,0ZM22.3,23.61c.17.36.43.61.74.83.18-.2-.61-.84-.74-.83ZM26.94,23.83c-.05,0-.1.02-.13.04-.07.04-.05.1-.06.19-.04.09-.2.24-.14.34.13.2.87-.46.84-.79-.1,0-.15.05-.22.08-.11.05-.05-.11-.29.14ZM14.44,25.91c-.06-.1-.15-.2-.24-.26,0-.06-.03-.13-.07-.19-.34-.57-.36-.89-.61-1.49-.09.18-.05.36,0,.54.11.55.02.62.28,1.13.03.06.14.22.05.26-.16.08-.37-.06-.45-.21-.03-.05-.07-.06-.11-.05-.11.05-.03.36.18.47.06.03.15,0,.21.03.13.08.26.16.43.17.35.01.65.23.73.02.06-.16-.27-.35-.39-.42ZM11.29,25.46c-.07.02-.09.1-.14.14l-.35.29c-.06.05-.12.08-.14.17,0,.04-.02.1.02.13.1.07.22.1.35.1.3,0,1.25-.07,1.33-.46-.17-.03-.34.04-.46-.06-.16-.14-.15-.39-.07-.58.11-.27.44-.92.4-1.16-.1.06-.1.15-.15.22-.14.19-.24.39-.35.59-.12.22-.29.39-.43.61ZM26.49,24.3c-.03-.07-.02-.12,0-.18-.24.03-.43.15-.65.24-.07.03-.12.06-.11.14.04.23.61.09.76-.19ZM4.65,24.83c-.02.11-.07.21-.06.34.11-.05.16-.18.14-.28.15-.01.2-.27.1-.36-.11-.1-.21-.18-.36-.16.03.18.11.33.18.46ZM18.88,24.68s-.03-.19-.09-.17c-.08.03.03.2.09.17ZM20.76,25.03c-.08-.18-.21-.37-.39-.5.01.24.18.4.39.5ZM26.23,25.87c.24.1.51.1.78.05.15-.03.31.01.45-.1-.33-.16-.8-.09-1.2-.19-.08-.07-.21-.12-.26-.22l-.21-.43c-.09.1-.03.21,0,.31.08.23.17.53.43.58ZM4.11,25.68c.17.17.92.18,1.06-.17.04-.1-.05-.27-.13-.35-.08.21-.2.31-.4.32-.06,0-.66.09-.54.21ZM19.59,26.03s.04.08.07.12c-.16.01-.33-.03-.42-.18-.05,0-.12.1-.09.14.18.25.46.29.73.3.12.08.4.13.46,0s-.23-.27-.28-.31c-.09-.08-.2-.14-.29-.19l-.59-.73c-.1.09.34.88.41.85ZM25.63,25.93c.06.12.22.16.34.19.04.02.09.11.16.06.02-.02-.02-.06-.03-.09.02-.02.03-.05.03-.08,0-.08-.29-.14-.32-.18l-.24-.29c-.12.13-.07.3.06.38ZM10.26,25.87c.1-.07.22-.12.26-.25-.19.04-.35.14-.51.23s-.33.15-.49.28c.25.13.55-.12.74-.25ZM16.02,26.58c-.1-.1-.2-.11-.3-.15-.14-.05-.25-.16-.42-.17.03.15.6.47.72.32Z"/>
    <path class="cls-2" d="M28.51,20.69c-.09.08-.2-.07-.33-.06-.01-.22-.22-.38-.31-.54-.13-.25-.34-.4-.55-.57-.54-.44-1.25-.61-1.95-.54-.29.03-.6.1-.78.34-.02.03-.08.02-.09.08.21-.03.39-.09.61-.07-.01-.02-.09-.06-.05-.08.09-.04.19-.03.27-.02.04,0,.08.08.14.06-.07.02-.12.04-.26.04.1.1.19.19.31.27.08.06.16-.11.24-.07.09.04.04.11.18.22.04.03.03.12.06.15l-.09.13c-.05-.06-.07-.21-.17-.23-.11-.03-.26.08-.36,0l-.22-.19c-.28-.24-.76.17-.92.05-.05-.04-.07-.14-.03-.21.75-1.24,2.85-.71,3.7.29l.37.43c.13.16.24.34.23.54Z"/>
    <path class="cls-3" d="M3.01,23.6c-.42.02.01.35-.28.64-.09.09-.24.14-.37.07-.18-.09-.25-.32-.17-.49l.22-.48c.08-.17.02-.37-.03-.54.11-.02.17.08.24.14.13.11.2.23.27.39.04.1.12.17.13.27ZM2.48,23.65c-.02.05-.03.12-.07.18-.05.09-.09.23.02.31.06.05.13-.02.17-.05.12-.14,0-.45-.04-.65-.07.07-.06.15-.06.21Z"/>
    <path class="cls-3" d="M28.82,22.29c-.11.61.47.77.24,1.11-.1.15-.32.1-.42-.02-.05-.05-.08-.1-.14-.13.13-.22-.17-.33-.08-.91.02-.11.07-.21.08-.33.07.04.1.58.27.46.04-.03-.02-.16.05-.18ZM28.87,23.31c.08-.13-.14-.33-.22-.53-.07.05-.04.13,0,.19.06.1.15.44.21.33Z"/>
    <path class="cls-3" d="M4.23,24.45c-.34-.07.04.45-.37.57-.08.03-.17-.01-.21-.07-.19-.25.2-.52-.2-1.03.11-.06.21,0,.32.06l.37.21c.03.06-.03.13,0,.18.01.02.06.01.08.02.02,0,.01.03,0,.05ZM3.85,24.41c-.05.08-.11.37-.02.38.12.02.05-.3.02-.38Z"/>
    <path class="cls-3" d="M4.37,20.74c.1.08.35.14.31.32-.05.04-.13.03-.17.08.13.09.32.19.29.33-.05-.02-.1-.06-.16-.06-.05,0-.08.07-.09.11-.01.07.14.2.14.2.1.04-.06.23-.36-.19-.02-.03.06-.05.06-.1-.11,0-.18-.04-.22-.14-.05-.14-.22-.52-.16-.6.13-.17.14.18.31.16.03,0,.05-.09.04-.12Z"/>
    <path class="cls-3" d="M27.31,24.4c-.06.11-.17.28-.15.41l.06.41s.04.09.06.1c-.05,0-.08.05-.17.07l.02-.14c-.15.1-.28.12-.4.04-.16-.31.16-.44-.19-.6,0-.07.09-.14.16-.14.45-.03.33-.36.6-.17ZM26.97,25.2c.07-.14.07-.3-.05-.39-.06.12-.08.27.05.39Z"/>
    <path class="cls-3" d="M28.34,23.54c-.09.27-.02.53.1.78.07.16,0,.35-.15.38-.15.03-.33-.05-.33-.23v-.29c0-.08-.06-.15-.13-.16.02-.08.06-.16.13-.22.16-.13.09-.3.37-.27ZM28.19,24.52c.1.03.09-.11.08-.16-.01-.06-.02-.13-.14-.12-.02.06-.04.26.06.28Z"/>
    <path class="cls-3" d="M28.51,20.69c.23.21.74.85.33,1.14-.05.05-.01.16-.02.21-.07-.03,0-.17-.05-.21-.11-.1-.31-.26-.26-.47.09-.03.21.34.27.15.04-.13,0-.28-.12-.34-.04-.03-.05-.1-.11-.13-.02.03,0,.05-.01.06,0,.04-.03.07-.07.09-.09-.06-.12-.18-.22-.22-.01-.12-.06-.23-.07-.35.13-.01.24.14.33.06Z"/>
    <path class="cls-3" d="M2.18,22.49c-.11.15-.28.32-.48.2-.1-.06-.14-.17-.13-.3.04-.36.42-.47.53-.83,0,.08.09.15.11.24.05.23-.13.31-.04.69ZM1.83,22.5c.2-.06.23-.34.21-.49-.14.01-.43.47-.21.49Z"/>
    <path class="cls-3" d="M26.24,20.29s-.07.12-.02.17l.11.12c-.16.25-.05.46-.36.6h-.12c-.03-.07-.11-.16-.06-.23l.24-.4c-.09-.17-.13-.34-.11-.52l.09-.13c.11.16.05.43.24.39Z"/>
    <path class="cls-3" d="M2.5,20.26c-.01.08-.06.16-.1.22-.06.07-.15.11-.15.22-.09-.01-.15.29-.12.36.02.07.06.1.13.08.12-.05-.07-.24.18-.42.03.07,0,.13.06.17-.02.09-.03.19-.1.28-.15.18-.23-.08-.31.07-.36-.29.09-.8.32-1.02.02.03.06.03.09.03Z"/>
    <path class="cls-3" d="M4.49,20.22c.03-.08.05-.18.17-.21,0-.08.03-.14.04-.2-.04.22.22.34.06.61-.03.05-.08.07-.13.05-.08-.02-.06-.2-.15-.25Z"/>
    <path class="cls-3" d="M5.15,19.36c.14,0,.26-.11.42-.19-.02.06,0,.12-.01.19-.03.17-.26.3-.4.19-.06-.05,0-.15,0-.2Z"/>
    <path class="cls-1" d="M25.97,21.18c-.02.06-.02.15-.08.2-.03.03-.08.03-.11.01-.07-.05.07-.18.07-.21h.12Z"/>
    <path class="cls-3" d="M28.34,23.51s.01-.04.03-.03c0,.02-.01.05-.03.03Z"/>
    <path class="cls-5" d="M16.75,5.46l-.19.09c-.03.07.01.13.05.19.21.31.42.61.58.95l.6,1.24c.25.52.44,1.06.56,1.62l.1.47s0,.05-.02.05c-.1-.05-.22-.04-.29.06-.16.21-.14.47.08.65.06.05.17,0,.27,0,.03.08.22,1,.08.94-.31-.15-.64-.13-.93.11.56-.01.62-.11,1.04.25l.07.9c0,.06.01.13-.03.16-.38-.14-.79-.13-1.14.11-.31.22-.51.59-.51,1,0,.58.36,1.06.93,1.17.36.07.71,0,.99-.25.25-.21.41-.55.4-.92l.14.16c-.07-.08.55.81.81.58.02-.02.05-.08.03-.13-.25-.78-.42-1.55-.52-2.36-.16-1.25-.44-2.36-.95-3.51-.12-.27-.21-.53-.37-.79-.14-.23-.28-.46-.38-.7-.11-.27-.22-.52-.4-.75-.12-.15-.21-.32-.35-.46-.03-.04.03-.11.03-.13.95,1.03,1.93,2.44,2.23,3.85l.05.23c.12.55.25,1.09.34,1.65l.24,1.52c.09.55.27,1.06.44,1.6.07.23.2.46.37.62,0,.24.12.55-.05.83-.39.65-1.47.77-2.16.78-.05,0-.18.04-.16.11l.19.51c.04.1.2.08.27.14.05.04.07.11.13.12.04.26.17.5.24.77l.44,1.69c-.25.03.02.52.07.73s.15.38.27.55c0,.15.16.43.16.52-.02,0-.1,0-.1.05-.01.19.1.47.3.46.11,0,.31.4.53.59.04.04.06.08.07.12-.05,0-.1-.03-.16-.01-.24.07.38.73.54.62.05-.03.02-.09.04-.13.01-.04.05-.07.06-.1s.06-.03.08-.02c.04.04.11.1.16.16.46.57,1.25,1.17,2.02.96.09-.03.21-.07.28-.13,0,.03,0,.06.03.1.06-.04.11-.06.16-.06-.17.21-.45.26-.7.37.2.22.58-.04.77-.16.01.03.04.06.07.07l-.09.15c-.06.1-.14.15-.26.19-.21.07-.42.17-.65.18-.85.05-.92-.13-1.31-.18-.06,0-.1-.05-.1-.1.02-.03.02-.07.02-.1-.01-.04-.04-.11-.11-.09-.06.02-.04.11-.05.15-.11.07-.22-.05-.3-.13-.04-.1-.01-.18-.11-.2-.04,0-.05.04-.08.05-.07.03-.13-.04-.17-.09-.15-.2-.35-.33-.48-.53l-.35-.53c-.08-.13-.21-.25-.33-.34-.1-.01-.17.09-.2.15-.04.07-.07.27.01.29.13.04.17.15.24.2-.04.03-.1.04-.12.08,0,.01-.03.02-.03.03,0,0,0,.02,0,.03-.03,0-.04.03-.03.05,0,.02,0,.06.04.05,0,.04,0,.09,0,.13-.16-.09-.15-.28-.25-.36-.01-.07-.06-.13-.1-.21-.11-.21-.18-.45-.32-.64-.05-.07-.06-.15-.09-.2.03-.11.14.08.23.1.05,0,.12.15.28.1.07-.02.06-.11.1-.17.06-.08.04-.14,0-.22,0,.01-.12-.4-.32-.33-.05.02-.15.07-.16.14-.09,0-.11-.07-.16-.14l-.22-.32c-.15-.23-.27-.48-.27-.74.07,0,.14-.06.18-.14.09-.2,0-.44-.2-.54-.07-.03-.14,0-.19.03-.14.1-.07.22-.11.39-.15.02-.31-.01-.46-.04-.22-.42-.28-.86-.48-1.29-.14-.3-.32-.59-.38-.92-.07-.39-.08-.79-.12-1.19,0-.09.01-.15.1-.2-.03-.09-.08-.16-.14-.24-.05-.07-.15-.04-.2.02-.09.11-.13.25-.15.39l-.15,1.28-.25,1.88c-.05.34-.14.63-.23.96l-.19.71c0,.09.09.17.09.26v.86c0,.08-.07.12-.13.13-.01-.04-.03-.09-.07-.11-.06-.03-.22.09-.22.15,0,.04.04.09.09.1.03,0,.07,0,.1-.02.08-.02.07.24.15.37s.31.54.18.64c-.04.03-.13-.05-.21.02-.05.05.07.15.06.24-.09-.02-.1-.12-.16-.16-.09-.06-.21.02-.32-.02-.19-.18-.39-.59-.62-.6-.18-.2-.25-.47-.3-.73.03,0,.06.03.1.02l.02-.62c0-.33.16-.29.13-.46,0-.03-.04-.06-.08-.06,0-.01,0-.03,0-.04.06-.23-.04-.6-.03-.86.1.01.2-.05.23-.13.04-.1,0-.21-.07-.29-.04-.05-.09-.06-.15-.06-.13,0-.03.28-.11.29-.04-.04-.04-.09-.04-.15-.09,0-.12.08-.14.16-.1.35.08.66.12,1.02-.08-.04-.13.14-.35-.29-.08-.15-.02-.33-.04-.51-.03-.4-.12-.78-.12-1.19,0-.08.13-.11.19-.12l.09.04c.07.03.27-.2.2-.46.05-.05.08-.15.03-.23-.09.05-.08.14-.09.21-.06,0-.15.04-.2.07-.07-.01-.12-.08-.12-.15,0-.21.37-.2.32-.43.07.03.17,0,.22-.06.3-.41-.04-.88-.18-.87-.23.02-.26.44-.24.67-.05,0-.09-.03-.1-.1-.12-.59.16-1.72-.19-1.79-.11-.02-.18.11-.26.17.06.16.03.3-.02.45-.09.26-.11.53-.18.8-.09.37-.23.71-.39,1.05-.05.02-.12,0-.15.05l-.15.43-.49,1.14c-.05.11-.36-.05-.41-.03.02-.13.1-.38-.07-.46-.12-.05-.06.11-.33-.03-.19.06-.37.34-.25.53.03.04.23.22.33.21.18.19-.58.69-.08.73-.05.04-.08.2-.17.18-.06-.01-.12-.08-.19-.03-.12.09-.09.23-.08.34-.29.4-.33.82-.76,1.15-.04.03-.07.09-.07.13,0,.05.04.08.05.14-.05.01-.08-.03-.12-.03.02-.04-.03-.16-.08-.16-.12-.01-.2.1-.21.2-.15.05-.07.15-.33.16l-.07-.13-.07.13c-.08,0-.12.07-.18.11-.1.07-.2.13-.18.25,0,.03-.02.06-.03.08l-.49.31s-.09.04-.12.02c-.02-.01-.04-.05-.07-.11-.31.14-.65.14-.98.21-.17.03-.32.1-.48.03-.04-.07-.12-.07-.2-.07-.47-.02-.56-.14-.63-.14-.05,0-.09.03-.13,0-.03-.02-.06-.06-.07-.09-.02-.04-.02-.1-.05-.13l-.02-.47c0-.05.01-.11.04-.13.02,0,.1-.03.12,0,.09.11.2.18.3.25.14.11.26.22.49.22.32,0,.67-.07.96-.22.12.21.67-.25.79-.35l.34-.27s.04-.08.05-.11c.11.02.46-.18.5-.31.03-.08,0-.18-.05-.25-.25.09-.46.28-.48.53-.15.04-.36.29-.51.26.41-.49.76-1,1.07-1.58.28-.52.5-1.05.74-1.58.02.06.03.12.06.18-.05.1-.09.21-.07.33.15-.01.19-.16.26-.27.12-.19.46-.72.27-.92-.09.11-.16.21-.23.33-.05,0-.11.08-.15.03l.23-.64c.2-.57.4-1.13.65-1.68.03-.06.04-.1.04-.15.08-.07.11-.22.26-.22.09-.31.79-.6.73-.78-.06-.17-1.29.13-2.06-.57-.42-.39-.17-.64-.49-.63.07-.17.14-.35.3-.5.27-.24.37-.55.46-.88.27-.98.45-1.94.6-2.94.24-1.58,1.01-3.92,2.07-5.08l.3-.33c.18-.01-.54.71-.5.95l.77-1.07c.23-.32,1.16-1.16,1.19-1.25,0-.02,0-.04-.03-.04.25-.19.47-.43.77-.59.37.31.72.64,1.06.96.04.04.07.09.09.13ZM14.71,6.08c0-.07-.06-.13-.13-.13s-.13.06-.13.13.06.13.13.13.13-.06.13-.13ZM13.53,7.8c.07.04.14.08.22.04.07-.03.13-.09.13-.17.28.1.92-.96.77-1.23-.05-.09-.19.05-.28-.04-.06-.06.02-.17-.04-.25-.15-.2-.92.41-1.08,1.21-.03.17,0,.35.13.46.05.04.11,0,.15-.02ZM16.03,9.12v.12s.02.1.02.1c.02.32.03.65-.05.98-.04.19-.07.38.01.56.04.09.12.15.21.15.27-.01.22-.49.17-.69-.05-.22-.1-.43-.12-.64.01-.12,0-.24,0-.36,0-.1.01-.2.03-.29.04-.24.17-1.03.39-1.18.39.15.12.49.2.73.03.08.1.13.16.13.33.02.25-.7-.17-1.05-.33-.28.15-.51.03-.78-.1-.23-.54-.2-.77-.17-.28.04-.64.29-.74.21-.03-.02-.02-.08,0-.12.12-.16.3-.1.37-.19.02-.03.02-.1-.03-.11-.21-.06-.46.03-.56.23-.05.09.05.17.1.24-.07.11-.24.14-.28.26-.08.2-.19.4-.4.5l-.86.45c-.2.1-.3.31-.26.53.03.19,0,.35-.11.51l-.52.79c-.21.31-.33.97.06,1.04.14.02.3-.05.37-.2.06-.13.22-.58.42-.59.09,0,.07.22.17.25.26.09.41-.63.53-.63.14,0,.16.68.18.77.11.5.1.95-.02,1.44-.03.13,0,.37.15.39.1.01.16-.16.17-.24.12-.61-.19-.96.1-1.6.32-.72.06-.92.35-1.31.05-.05.16.02.21-.02.16-.14.09-.48.29-.61.03-.02.08-.03.12-.01.02.01.05.05.05.09l.05.35ZM13.04,8.04c-.17-.08-.69.28-.57.77.02.07.07.14.11.15.35.12.74-.8.45-.93ZM12.69,9.32c.01-.07-.02-.12-.05-.13-.05-.02-.09,0-.13.03-.05.05-.07.1-.05.15.02.06.07.08.12.06.04-.01.1-.04.11-.11ZM15.44,9.8c-.16.03-.17.56-.02.55.21-.01.17-.55.02-.55ZM11.39,11.1l.17-.77c-.08.06-.12.15-.15.25-.14.45-.39,1.35-.32,1.83.14-.3.21-.95.29-1.3ZM13.39,11.39c.1.02.17-.1.18-.16.01-.07,0-.19-.09-.21-.09-.02-.14.09-.16.14-.02.06-.03.21.07.23ZM13.04,11.8c.1,0,.2.05.31.01-.3-.3-.8-.28-1.05.06-.03.04-.02.11,0,.12.09.08.23-.24.73-.2ZM13.8,14.94c.31-.46.28-1.03-.01-1.46-.21-.31-.56-.47-.91-.46s-.67.17-.89.46c-.4.53-.35,1.31.2,1.73.5.38,1.26.25,1.62-.27ZM11.09,13.84c-.1-.21-.3.73-.27.78.21-.03.37-.56.27-.78ZM16.76,15.85c.05-.24.12-.76-.09-.87-.05-.03-.1,0-.17.02-.81.38-1.21.26-1.97-.08-.34-.16-.51,1.15.31,1.85.39.34.93.36,1.32.04.31-.24.51-.56.58-.96ZM19.17,15.49c-.16-.02-.72.07-.73.25-.02.36,1.05.56,1.78.04.07-.05.07-.1.04-.15.02-.06.1-.11.1-.18-.03-.33-.66-.47-1.05-.24-.11.07-.17.18-.14.29ZM10.77,15.56s-.07.05-.07.08c0,.19.87.7,1.71.29.07-.03.09-.1.11-.14.13-.29-.55-.22-.69-.22.03-.05.07-.11.06-.17-.08-.29-.66-.37-1.03-.17-.13.08-.14.22-.08.34ZM10.3,15.86c-.03-.07-.05-.09-.09-.1-.04,0-.06.02-.11.06-.09.09-.09.34.07.36.13.01.17-.22.13-.32ZM11.82,18.16c.08.02.12-.14.09-.18-.08-.03-.17.16-.09.18ZM14.43,18.51c.08-.03.07-.24,0-.25s-.08.09-.09.13c0,.04,0,.15.09.12ZM11.72,18.5c.06-.01.08-.14.04-.18-.05-.04-.09.04-.11.07-.02.04-.02.12.07.1ZM11.77,18.85c0-.09-.06-.16-.12-.16-.32-.03-.59.94-.38,1.01.13.04.5-.38.5-.84ZM16.13,19.67c.09,0,.11-.11.1-.18-.06-.01-.09.04-.12.06-.03.03-.04.12.01.12ZM12.85,19.76s-.04-.04-.07-.04c-.04,0-.06.11-.06.12,0,0,.16-.02.14-.08ZM16.06,19.83c.01-.08-.06-.08-.09-.08-.03,0-.08,0-.07.07.01.06.14.09.16.02ZM18.11,20.01s-.03-.17-.08-.15-.08.06-.08.09c0,.04.02.06.05.07s.08.03.11-.02ZM10.04,22.77c.22-.32.37-.67.5-1.03.03-.08.11-.14.04-.23-.47.45-.44.8-.86,1.36-.02.03,0,.09-.02.11s.06.09.08.06c.08-.1.19-.17.25-.27ZM15.88,21.77c-.06-.07-.14-.05-.19,0-.07.09-.08.26.05.3.07.02.12-.05.15-.09.04-.06.04-.15,0-.22ZM10.21,23.26c.17-.08.29-.3.19-.46-.06-.11-.2-.04-.27.03-.09.11-.15.21-.11.36.02.08.09.12.19.08ZM15.73,23.01c.06,0,.08-.08.08-.12s-.02-.1-.08-.09-.08.08-.07.12c0,.03.03.1.07.09ZM15.63,24.91s.04-.11.07-.16c.02.01.04.03.06.05.04-.05.03-.1.02-.15,0-.03-.04-.05-.09-.05-.08,0-.2,0-.22.09-.03-.02-.07-.06-.09-.1l-.2-.48c-.09-.22-.16-.46-.32-.63-.03-.03-.11.01-.11.04,0,.04-.04.1-.03.16.12.5.4.95.8,1.27.02.02.06.02.09.02s.01-.04.02-.05ZM22.57,24.84c.15-.11-.5-.52-.6-.42-.08.06.6.54.6.42ZM6.73,25.16c-.28-.13-.5-.25-.71-.45-.06.05-.08.13-.04.19.14.25.47.41.75.26Z"/>
    <path class="cls-6" d="M18.57,21.43c.09.09.09.25.32.26,0,.27.11.52.27.74l.22.32c.05.07.07.15.16.14-.02.17-.02.34.09.48-.09-.02-.2-.21-.23-.1-.11-.15-.15-.36-.28-.51-.14-.17-.3-.3-.42-.52-.07.1-.04.19,0,.27l.18.39c.27.58.49.73.62,1.26-.24-.22-1.17-1-1.02-1.32.1.04.13.15.28.17-.08-.15-.53-1.18-.73-1.02-.09.08.03.18-.03.21-.04.02-.13-.11-.24-.12-.13-.39-.35-.76-.39-1.21-.01-.17-.1-.34-.1-.52l-.26-1.2c0,.97-.11,1.88-.24,2.8l-.05.08c-.25.37-.52.11-.52,1.56,0,.31.1.63.18.91-.04.08-.13.18-.07.29.07.14.36.72.52.65.08-.04-.13-.37-.05-.39.23.34.41.52.85.51.31-.01.5-.2.58-.47.06-.19.1-.39.01-.62.02-.04.09-.02.12-.02.31.27.44.75.29,1.15-.17.45-.59.72-1.04.81-.1.02-.11,0-.18-.03.02-.01.01-.04,0-.05l.09-.21-.6-.11c-.1-.11-.28-.16-.36-.29-.07-.12-.16-.46-.26-.49-.04-.01-.11-.02-.13.03-.1.25.28.35.23.52-.06-.03-.13-.04-.2-.06-.06-.02-.13-.03-.19-.05-.25-.1-.37-.2-.59-.28-.21-.24-.45-.47-.56-.77.23.01.43.42.62.6.11.04.23-.04.32.02.06.04.07.14.16.16.02-.09-.11-.19-.06-.24.08-.07.17.01.21-.02.13-.1-.1-.51-.18-.64s-.07-.39-.15-.37c.05-.02.09-.07.1-.12.06,0,.13-.04.13-.13v-.86c0-.09-.1-.17-.1-.26l.19-.71c.09-.33.19-.62.23-.96l.25-1.88.15-1.28c.02-.15.06-.28.15-.39.05-.06.15-.09.2-.02.05.08.1.15.14.24-.08.05-.11.11-.1.2.04.4.05.8.12,1.19.06.33.24.62.38.92.19.42.25.87.48,1.29.16.03.31.06.46.04ZM17.8,25.72c-.31.04-.61-.08-.88-.03.24.27.61.27.93.14,0-.05-.03-.06-.05-.11.26.03.54-.1.51-.39-.17.11-.31.24-.48.33-.03.02-.03.05-.03.06ZM18.52,25.64c.02-.09.03-.16-.01-.25-.06.08-.11.16-.11.26,0,.03.11.04.12-.01Z"/>
    <path class="cls-6" d="M16.75,5.46c.27.17.46.45.67.69,0,.03-.06.1-.03.13.14.15.23.31.35.46.18.23.29.48.4.75.1.25.24.48.38.7.16.26.25.52.37.79.51,1.15.79,2.26.95,3.51.11.81.28,1.58.52,2.36.01.04,0,.1-.03.13-.26.23-.88-.66-.81-.58l-.14-.16c-.01-.46-.27-.86-.66-1.11.04-.03.04-.1.03-.16l-.07-.9s.08-.06.06-.12c-.03-.09-.09-.2-.17-.24.15.06-.04-.87-.08-.94.19-.2.14-.5-.06-.7.01,0,.03-.03.02-.05l-.1-.47c-.12-.56-.31-1.1-.56-1.62l-.6-1.24c-.17-.34-.37-.64-.58-.95-.04-.06-.08-.12-.05-.19l.19-.09Z"/>
    <path class="cls-3" d="M27.25,20.9c-.09,0-.18-.02-.28,0,.05.27.03.58-.2.76-.5.38-.25.46-.24.42,0-.01.02-.03.03-.05.02-.04.06-.06.1-.04.06.03-.05.15.04.14.13,0,.28-.48.33-.6.06-.05.16-.07.2-.13-.04.2-.07.41-.14.61-.22.08-.18.38-.22.42-.03,0-.06.03-.07.07-.06.02-.1.08-.15.13-.02,0-.04,0-.04.03-.23.12-.42.3-.64.45-.08.05-.41.08-.38.36.01.1.04.17.16.21-.01.1-.05.17-.03.26,0,.04.07.03.09.04-.05.04-.17.08-.24.05-.15-.26-.37-.47-.68-.54-.27-.05-.72.12-.78.44-.73.06-2.18-1.09-2.51-1.61l-.49-.76c-.27-.41-.4-.86-.59-1.3.02.01.05.03.07.06.16.25.33.47.53.68.08.09.16.17.21.28-.07,0-.11.06-.13.12s.02.11.06.18c.06.01.41.07.38-.04.03.03.1.01.14.02.01,0,.02,0,.03,0-.02.14.08.28.23.29.22-.15.4.2.63.27.05-.02.03-.12.02-.15.24.17.08.19.41.35.24.11.46.25.71.28,0,.04,0,.08.03.1.04.03.09,0,.13,0,.28-.07.63.18.72.05.31.03.63.08.94-.09-.18-.25-.62-.18-.39-.38.05,0,.11,0,.16-.02.04-.02.03-.09.03-.14.34.01.67-.13.92-.35.04-.04.08-.06.1-.09.03-.09-.09-.15-.04-.23.01-.02.05-.03.08-.04l.03.21c.37-.18.32-.43.23-.74.06-.11.17-.19.17-.34,0-.12.06-.25.04-.37.2.19.28.47.29.74ZM23.05,23.03s-.02-.07.02-.08c.03-.02.08,0,.11-.05-.28-.11-.51-.26-.73-.45-.08-.07-.46-.15-.72-.41-.06-.06-.11-.22-.21-.22-.11.14.12.18.16.25.46.7.64.68,1.27,1.15.12.09.24.11.37.17.16.07.29.24.49.21-.29-.18-.46-.47-.76-.56ZM26.27,22.14c-.18-.02-.36.05-.49.2.06,0,.54-.08.49-.2ZM24.72,23.33c-.25-.06-.4-.08-.59-.09-.14,0-.27-.08-.42-.05.32.31.38.4.76.24l.25-.11Z"/>
    <path class="cls-3" d="M3.85,23.6c.22-.04.15.21.42.15-.03-.07-.09-.1-.1-.15.08.04.17.05.29.06v.04s-.07,0-.1,0c-.04.02-.06.08,0,.1.05.02.1.03.14.02.05-.02.03-.09.02-.13.07-.02.14-.02.23-.01-.09-.18-.25-.27-.44-.32-.16-.04-.31-.12-.47-.13.03-.07,0-.12-.05-.18-.37-.35-.08-.24-.25-.58.06.03.13.03.19.06.05.03.11.05.16,0,.08.06.19.14.3.07.03-.02-.01-.09,0-.11.05.02.12-.02.16-.04.04.02.07.06.12.07,0,.07.08.11.07.19-.01,0-.08.03-.06.06.16.25.99.11,1.26.05.25-.06.48-.19.69-.27l.07-.03s.03.04.05.05c.03,0,.05-.03.07-.05.1-.08.2-.02.29,0,.24.04.59-.36.66-.58.14-.04.17-.19.39-.22,0,.11-.2.27-.19.33.06.19.26-.27.53-.28l.17.08c.08-.23.16-.12.19-.27.07-.04.12-.12.2-.16-.01.04-.05.11-.02.15.06.07.63-.21.61-.44-.01-.14.14-.18.15-.28.11-.1.24-.2.34-.32.07.27-.27.72-.43.97-.11.18-.19.38-.32.54-.6.75-1.65,1.64-2.65,1.8-.08-.22-.27-.36-.51-.39-.44-.05-.87.23-1.01.65-.39.01-1.02-.17-1.14-.55ZM8.53,22.4c.06-.07.17-.16.22-.24.13.05.22-.37.2-.47-.14.03-.17.17-.25.26-.12.12-.21.25-.34.37-.05.05-.1.18,0,.22.08.04.13-.1.17-.15ZM7.8,22.68c-.06.03-.13.07-.16.13-.04.02-.1.03-.13.06-.09-.05-.17-.02-.26.03-.3.17-.59.37-.92.49-.03.01-.07,0-.1.02-.12.12.31.05.41.08.06.02.09.09.16.05.04-.02.09-.03.11-.08.39-.07.73-.3.98-.61,0-.01.03-.02.03-.04,0,0,0-.02,0-.03.08-.05.14-.14.15-.26-.12.04-.19.11-.28.16Z"/>
    <path class="cls-6" d="M14.26,19.39c.01.09.12.19.19.26.05.23-.33.22-.32.43,0,.07.05.13.12.15-.06.12-.06.25-.03.37-.06,0-.19.04-.19.12,0,.41.09.79.12,1.19.01.18-.04.36.04.51-.22-.05,0,.4,0,.42.03.1-.01.22.04.32.02.04-.02.12,0,.16.01.03-.02.09.03.1.01.06,0,.13.03.18,0,.08,0,.16-.03.25-.33-.6-.39-1.29-.61-1.84-.08-.87-.04-1.72.07-2.64l-.51,1.49c-.13.36-1.13,1.88-1.48,2.24.04.14.08.26-.02.38-.18.22-.34.44-.59.61.24-.4.39-.8.55-1.22.12-.31.29-.59.31-.93-.2.11-.22.53-.45.61-.49-.05.27-.54.08-.73.03,0,.05-.05.09-.06.09-.03.14-.11.22-.19.05-.02.36.15.41.03l.49-1.14.15-.43s.1-.02.15-.05c.16-.34.3-.68.39-1.05.07-.27.1-.54.18-.8.05-.15.08-.29.02-.45.07-.06.14-.2.26-.17.35.08.08,1.2.19,1.79.01.06.05.1.1.1Z"/>
    <path class="cls-6" d="M20.96,18.11c-.15-.05-.34-.14-.49-.04-.06.04-.1.16-.16.21-.1.09-.12.2-.09.32.08.31.22.59.38.86l.67,1.11c.04.06.07.11.13.09,0,.07.04.12.08.18.21.34.28.34.28.7-.04,0-.11,0-.14-.02-.11-.08-.21-.17-.31-.26-.04-.1-.12-.19-.21-.28-.2-.22-.37-.44-.53-.68-.02-.03-.05-.05-.07-.06l-.55-1.26-.24-.53s-.04-.06-.07-.08c-.02-.06-.07-.11-.09-.16-.03-.07-.11-.14-.2-.1-.02,0-.03,0-.05,0-.06,0-.08-.08-.13-.12-.07-.06-.23-.05-.27-.14l-.19-.51c-.03-.07.1-.11.16-.11.69,0,1.78-.13,2.16-.78.17-.28.04-.59.05-.83.14.14.28.26.35.49.1.35.03.7-.25.96-.44.4-.98.46-1.58.52.36.14.76.11,1.15.1.11.12.12.31.2.42Z"/>
    <path class="cls-5" d="M20.96,18.11c.13.19.21.4.32.6-.18-.02.06.45.09.51-.03.17.08.34.18.5.37.61.82,1.17,1.39,1.58-.1-.18-.23-.31-.36-.43-.2-.18-.31-.39-.46-.59l.15-.1c.06.02.12.07.17.13.33.41.72.74,1.09,1.08,0,.03,0,.08-.04.1-.07.04-.14,0-.23.03.33.23.71.4,1.09.48.07.01.13.1.18.15-.11.02-.22.02-.31.01-.02-.03-.07-.03-.11-.04-.12-.04-.31-.24-.39-.1-.02.04,0,.13.04.16-.17.12-.95-.36-1.17-.38-.11-.14-.25-.24-.43-.29-.01,0-.02-.02-.04-.02-.04-.03-.06-.08-.09-.13-.34-.65-.39-.46-.55-.7-.02-.02-.05-.03-.06-.03-.01,0-.02.02-.03.02-.06.02-.1-.03-.13-.09l-.67-1.11c-.17-.27-.3-.55-.38-.86-.03-.12,0-.23.09-.32.06-.06.1-.17.16-.21.15-.1.34,0,.49.04ZM21.63,20.29c0,.07.1.2.17.17.04-.11-.07-.22-.13-.3s-.25-.37-.38-.28c0,.2.15.41.34.41ZM23.01,21.32s0-.02-.02-.02-.02,0-.02.02,0,.02.02.02.02,0,.02-.02Z"/>
    <path class="cls-6" d="M27.32,19.52s-.04.07-.07.09c-.2-.13-.41-.26-.63-.37-.09-.04-.17-.14-.25-.06-.04,0-.08-.03-.14,0,.02.11.1.17.2.18.05,0,.09-.03.09-.06.21.11.55.33.73.48,0,.05,0,.11,0,.16-.07-.08-.12-.19-.22-.26-.07.08-.03.16,0,.24.04.13.17.26.29.2.04-.02.09.02.13,0,.14.1-.03.87-.03.89.02.06.26.25.44.2.02,0,.06.02.08,0v.44s-.04.2-.04.2c-.04.14-.12.25-.11.41.2-.15.21-.39.21-.61v-.49c0-.11.03-.24.01-.35.01,0,.03,0,.04,0,.07-.06,0-.22-.14-.34-.11-.09-.17-.21-.21-.33.06,0,.16.01.17-.06.09.17.29.32.31.54,0,.12.05.24.07.35.08.7-.07,1.39-.54,1.92-.15.05-.44.35-.6.47-.22.08-.42.22-.66.2,0-.02,0-.08-.02-.08-.07-.01-.11-.01-.15-.05.13-.01.22-.11.25-.25-.18-.03-.35.02-.38.19-.06-.04-.11-.1-.17-.08-.07.01-.17.06-.14.14.02.05.12.03.15.05,0,.04-.01.08-.04.1-.18.09-.26-.13-.34-.13-.03-.27.3-.3.38-.36.22-.15.41-.33.64-.45.03.16-.19.2-.19.32.33-.18.29-.03.44-.35.2-.08.39-.41.49-.58.02-.04.29-.3.07-.5-.11.08-.1.19-.14.29s-.12.15-.2.18c.07-.2.1-.4.14-.61.03-.17.04-.33.02-.5-.02-.27-.09-.55-.29-.74-.02-.14-.09-.43-.18-.38l-.08.04s-.18-.14-.37-.19c-.16-.04-.37-.14-.55-.22-.09-.05-.2-.17-.31-.13-.06.02-.09-.05-.14-.06,0-.03.02-.07.04-.1.01-.05.01-.1,0-.15.69-.07,1.4.1,1.95.54ZM26.21,19.17c-.19-.12-.4-.15-.6-.11.2.1.4.15.6.11ZM27.59,22.19c.13-.12.18-.25.22-.4-.14-.08-.36.36-.22.4ZM27.2,22.85c.11,0,.2-.11.17-.22-.08.06-.15.11-.17.22Z"/>
    <path class="cls-6" d="M21.61,25.17c.03.08.1.15.19.15.08.09.18.21.3.13.04.03.09.03.14.03,0,.05.04.09.1.1.39.05.46.23,1.31.18.23-.01.43-.11.65-.18.12-.04.2-.09.26-.19-.01.03,0,.11.06.09.1-.03.17-.11.22-.19.05.06.02.11-.02.19.14-.01.4-.62.31-.74-.05.06-.04.14-.13.17-.01-.1.11-.41-.04-.44s-.21.21-.19.23c.09.09.14.19.08.31l-.1.22h-.09s-.05-.03-.07-.06c.03-.1.12-.17.14-.3-.1-.04-.11.07-.21.09-.05,0-.1.02-.16.06-.03-.03-.02-.07-.03-.1.08-.07.16-.22.17-.33s-.02-.2-.04-.28c.06,0,.14.03.2-.02.09-.08.1-.25.2-.31.19-.13.33.3.49.25.22.62-.07,1.4-.71,1.73-.4.21-.87.35-1.3.27,0-.06,0-.11-.01-.18-.1-.04-.19-.06-.28-.08-.04,0-.08-.05-.12-.06-.02,0-.02-.05-.05-.03-.08.04-.03.13-.08.24-.02,0-.04.01-.06,0,0-.03-.05-.02-.07-.03-.67-.15-1.29-.51-1.81-.98.14-.13-.04-.28-.13-.46s-.25-.24-.4-.34c-.07-.04-.11-.16-.24-.2-.08-.02-.05-.23-.01-.29.04-.06.11-.16.2-.15.12.09.25.21.33.34l.35.53c.13.2.34.33.48.53.04.06.1.12.17.09Z"/>
    <path class="cls-6" d="M11.22,18.3c-.13.11-.19.26-.28.42-.26.45-.5.9-.72,1.36-.09.18-.18.35-.31.49-.1.12-.23.22-.34.32.03-.33.5-.99.7-1.34-.06-.05-.08.03-.15.07-.12-.16.64-1.52.3-1.44,0-.04,0-.1-.01-.13-.05-.09-.26,0-.31-.09.05-.08.03-.22.13-.29.39.02.77.05,1.16-.07-.63-.05-1.42-.23-1.73-.83-.12-.24-.1-.46-.01-.67.32,0,.06.25.49.63.77.7,2,.4,2.06.57.07.18-.63.47-.73.78-.15,0-.18.15-.26.22Z"/>
    <path class="cls-1" d="M10.1,25.43c-.06-.08-.55.21-.61.19-.02,0-.05-.03-.06-.06l.81-.63c.17-.13.3-.27.45-.42.11-.11.27-.21.3-.36.02-.01.06-.02.04-.05,0-.01-.03-.02-.05-.02-.01,0-.01.03-.02.04h-.09s-.02-.06-.03-.06c.09-.16.46-.8.36-.95-.02-.03-.07-.05-.11-.07-.01-.11-.04-.25.08-.34.07-.05.13.02.19.03.09.02.12-.14.17-.18.22-.08.24-.51.45-.61-.02.34-.19.62-.31.93-.16.42-.31.82-.55,1.22.25-.17.41-.39.59-.61.1-.12.06-.24.02-.38.35-.36,1.36-1.87,1.48-2.24-.21,1.28-1.17,2.83-2.07,3.77-.31.33-.68.55-1.03.8Z"/>
    <path class="cls-5" d="M20.52,11.41c.06,0,.12-.01.17-.06.22-.19.6-.42.59-.78,0-.24-.14-.43-.31-.59-.33-.33-.66-.63-.95-.99-.12-.14-.18-.31-.28-.46-.08-.06-.1-.15-.09-.23.61.42,1.16.88,1.7,1.36.24.21.45.46.6.74s.07.59-.16.78c-.29.24-.85.48-1.18.83-.05-.23-.09-.42-.1-.61Z"/>
    <path class="cls-5" d="M11.5,8.25c-.04.22-.27.62-.45.81l-1.02,1.09c-.15.16-.24.4-.17.61.1.29.5.61.76.63-.05.21-.06.41-.13.62-.26-.22-.52-.4-.8-.57-.16-.1-.32-.22-.42-.38-.15-.25-.12-.55.03-.79.17-.27.38-.52.63-.74.51-.45,1.02-.88,1.56-1.27Z"/>
    <path class="cls-1" d="M19.39,23.28c.04.05.04.14.09.2.15.19.21.43.32.64.04.08.09.14.1.21-.05,0-.11.05-.17.03-.04-.07-.08-.22-.17-.2s.02.12.04.16c.13.22.22.44.36.65.08.13-.18-.02-.15.1l-.47-.42c-.76-.67-1.25-1.62-1.58-2.57.11.01.19.14.24.12.06-.03-.07-.13.03-.21.2-.16.65.87.73,1.02-.15-.02-.18-.13-.28-.17-.15.32.78,1.11,1.02,1.32-.13-.53-.35-.68-.62-1.26l-.18-.39c-.04-.08-.07-.17,0-.27.11.22.28.35.42.52.12.15.17.35.28.51ZM18.06,22.25s0-.02-.02-.02-.02,0-.02.02,0,.02.02.02.02,0,.02-.02Z"/>
    <path class="cls-6" d="M19.66,8.31c-.02.09,0,.17.09.23.11.14.17.31.28.46.29.36.62.66.95.99.16.16.3.35.31.59.01.36-.37.58-.59.78-.05.05-.11.07-.17.06-.3-1.23-.61-2.27-1.22-3.35.2.02.26.18.36.25Z"/>
    <path class="cls-6" d="M10.62,11.39c-.25-.02-.66-.34-.76-.63-.07-.21.01-.44.17-.61l1.02-1.09c.18-.19.41-.59.45-.81.11-.12.22-.21.36-.29l-.42.84c-.41.82-.63,1.71-.83,2.59Z"/>
    <path class="cls-6" d="M9.91,24.47c.15-.09-.1.45-.11.47-.08.12-.2.2-.32.29-.46.34-.99.53-1.52.68-.09.04-.36-.08-.42-.12.06,0,.19-.04.16-.12-.06-.07-.51-.05-.46.15-.05.06-.09.12-.1.2-.73-.03-1.59-.38-1.79-1.15,0-.02,0-.05-.03-.04,0-.02,0-.04,0-.05.04.01.08.03.12.03.13,0,.02.48.44.44.02.03.05.07.07.09.04.03.08,0,.13,0,.07,0,.16.12.63.14,0,.04-.04.1,0,.15.02.04.1.03.14.02.04,0,.06-.05.07-.1.16.07.31,0,.48-.03.33-.07.67-.07.98-.21.04.06.05.1.07.11.03.02.09,0,.12-.02l.49-.31c.15,0,.29-.08.38-.2-.13-.04-.18.15-.35.12-.02-.11.08-.18.18-.25.06-.04.11-.12.18-.11-.02.04-.01.1-.03.15.1.02.13-.08.18-.15.26,0,.18-.12.33-.16Z"/>
    <path class="cls-6" d="M4,19.19s-.1.08-.1.14v.13s-.18.28-.18.28c-.09.14-.07.26-.04.39.03.14-.03.29-.04.44-.04.68.05.79.43,1.21l.36.4c.1.11.1.27,0,.37-.05,0-.08-.05-.12-.07.02-.16-.47-.27-.61-.15-.06.05-.02.16,0,.22-.06-.03-.13-.03-.19-.06-.22-.1-.47-.41-.54-.61.04-.04.11-.16.18-.12.02.02-.04.1-.02.12.03.03.09.01.13.02.03.15.17.28.32.23.01.06.07.1.14.08.03-.01.06,0,.07-.04,0-.02-.01-.05-.02-.07.03,0,.09,0,.09-.02s.03-.11.01-.14c-.16-.24-.28-.51-.4-.77-.14-.3.03.02.03-.55,0-.24-.25-.16-.37-.23-.01-.01-.02-.03-.03-.04l.03-.12.13-.28s.04.09.1.14c.14-.1.21-.24.27-.39.04-.09.12-.16.15-.26.04-.11.1-.21.21-.24Z"/>
    <path class="cls-1" d="M16.78,25.04c-.08.02.13.35.05.39-.16.07-.45-.51-.52-.65-.05-.12.03-.21.07-.29-.08-.28-.18-.6-.18-.91,0-1.44.27-1.19.52-1.56l.05-.08-.08.59c-.13.91-.31,1.6.09,2.51Z"/>
    <path class="cls-6" d="M6.72,21.63c0,.09.07.15.16.16l-.12.16c-.11.09-.25.17-.25.32-.02,0-.04-.07-.05-.05-.02.02-.07.03-.08.06,0-.03-.01-.09-.06-.09-.06,0-.08.07-.12.08v-.06s.02-.03.01-.05c-.05-.1-.39.06-.47.08-.04-.02-.1-.06-.16-.04-.27.09-.61.07-.56.23,0,.01-.07.03-.07.07.08.07.18.17.29.16,0,.05,0,.16.09.19.09.03.28,0,.32-.1s-.08-.1-.13-.1c0-.06.05-.09.12-.1.15-.02.26-.12.4-.12.07.06.17.02.26,0l.12.15c-.21.08-.44.22-.69.27-.27.06-1.1.2-1.26-.05-.02-.03.05-.06.06-.06.16-.02.37-.15.35-.31l-.03-.29s.08,0,.12,0c.14.02.26-.01.39-.03.09-.02.17-.03.26-.06.38-.12.78-.21,1.12-.42Z"/>
    <path class="cls-3" d="M10.65,26.06c.1,0,.19.06.29.08.2.04.64,0,.59-.13-.02-.06-.18-.02-.24-.14-.03-.08.03-.35.19-.43-.07-.04-.08.03-.12.04-.03,0-.05,0-.07-.02.14-.22.32-.39.43-.61.11-.21.21-.41.35-.59.05-.07.06-.17.15-.22.04.24-.29.9-.4,1.16-.08.19-.09.43.07.58.12.11.29.03.46.06-.08.39-1.02.45-1.33.46-.13,0-.26-.02-.35-.1-.05-.03-.03-.09-.02-.13Z"/>
    <path class="cls-3" d="M14.2,25.65h-.04c-.15-.12-.23-.3-.37-.48-.04.1.04.17.05.26.01.18.11.34.19.51.13.26.51.41.5.24,0-.08-.06-.2-.09-.26.12.08.44.26.39.42-.08.21-.38,0-.73-.02-.17,0-.3-.09-.43-.17-.06-.04-.14,0-.21-.03-.21-.11-.29-.42-.18-.47.04-.02.08,0,.11.05.08.14.29.29.45.21.09-.05-.01-.2-.05-.26-.27-.51-.17-.58-.28-1.13-.04-.18-.08-.36,0-.54.25.6.27.92.61,1.49.04.06.07.13.07.19Z"/>
    <path class="cls-5" d="M3.78,22.1s-.02-.01-.03-.02c0-.04-.01-.07-.05-.07-.03,0-.06,0-.08,0-.12-.08-.15-.23-.29-.19-.03.01-.05.04-.06.08-.04,0-.09.01-.13-.02-.03-.02.04-.1.02-.12-.07-.04-.13.07-.18.12-.01-.03-.04-.09-.06-.13l.06-.16c.03-.08,0-.16.1-.2-.03-.16-.03-.32-.03-.47.12-.21.06-.33.1-.54.12.07.37,0,.37.23,0,.57-.17.25-.03.55.12.26.23.53.4.77.02.03-.01.12-.01.14s-.06.02-.09.02Z"/>
    <path class="cls-6" d="M20.95,22.32c.25.57.58,1.08.91,1.6-.02,0-.08-.01-.08.02s-.04.07-.06.1c-.21-.3-.12-.22-.42-.47,0-.04-.02-.09-.07-.12-.23-.19-.42-.6-.53-.59-.06-.17-.2-.29-.2-.5,0-.08-.15-.37-.16-.52.06,0,.12,0,.17-.03l.22.48c.03.06.18.02.22.02Z"/>
    <path class="cls-5" d="M5.7,18.24s.02,0,.03,0c.01.03.04.03.07.03,0,0,.02,0,.03,0-.02.12.13.11.09.21-.03.07-.6.04-.94.15-.14.05-.86.4-.81.53-.06-.02-.11.01-.16.02-.11.03-.17.13-.21.24-.03.1-.11.17-.15.26-.06.15-.13.29-.27.39-.05-.06-.06-.11-.1-.14.25-.53.23-.43.57-.9.03-.01.08-.01.08-.05,0-.03.03-.07.02-.1.08.02.15-.02.22-.07.51-.4,1.05-.45,1.07-.48.02-.02.02-.06.02-.09.15,0,.3-.02.44,0Z"/>
    <path class="cls-6" d="M5.79,18.72c-.1,0-.2-.03-.3,0-.02.08-.02.15-.02.21-.08.06-.17.14-.29.15-.15.02-.2-.11-.23-.22-.21-.11-.32.45-.43.59l-.17-.05s-.01-.1-.05-.13-.07-.08-.12-.1c-.05-.13.67-.49.81-.53.34-.11.91-.08.94-.15.04-.09-.11-.08-.09-.21.18.06.58.3.64.54-.34-.03-.29-.11-.67-.09Z"/>
    <path class="cls-3" d="M14.51,24.41c.27.33.12.51.54.89.11.1.37.26.37.1.22.07.33.18.59.28-.07.01-.08.08-.07.14-.1,0-.17-.02-.27-.07-.07-.04-.17,0-.24-.08,0,.06-.02.11-.05.15-.49-.23-1.16-1.05-1.25-1.59.22-.05.22.14.39.19Z"/>
    <path class="cls-1" d="M6.17,24.44c-.15,0-.11-.22-.33-.31-.2.11-.31.35-.3.57,0,.06-.07.07-.11.1-.04,0-.08-.02-.12-.03-.12-.25-.07-.79.25-.95.2-.1.43-.09.62.04s0,.27-.01.58Z"/>
    <path class="cls-5" d="M8.45,20.44c-.06.24-.62.59-.61.74-.26.25-.64.45-.97.61-.09-.02-.16-.07-.16-.16.61-.37,1.16-.81,1.67-1.31.04.03.03.09.06.13Z"/>
    <path class="cls-5" d="M20.95,22.32s-.19.04-.22-.02l-.22-.48c-.07-.16-.08-.35-.18-.53-.12-.23-.19-.48-.34-.69.03,0,.05,0,.06-.02,0-.02.01-.05,0-.07l-.14-.76c-.02-.13-.05-.24-.02-.36.22.65.38,1.32.64,1.97l.27.67c.04.1.09.2.13.29Z"/>
    <path class="cls-1" d="M14.29,23.6c.11.25.14.54.23.8-.16-.05-.16-.23-.39-.19-.36-.68-.41-1.48-.48-2.21.21.56.28,1.24.61,1.84.04-.09.03-.17.03-.25Z"/>
    <path class="cls-4" d="M19.57,18.21c.02.05.08.1.09.16,0,.01-.03.04-.02.07.14.31.17.64.27.94-.03.11,0,.23.02.36l.14.76s0,.05,0,.07c0,.02-.03.02-.06.02,0,0,0-.02,0-.03l-.44-1.69c-.07-.27-.2-.51-.24-.77.01,0,.03,0,.05,0,0,.1.11.1.2.1Z"/>
    <path class="cls-3" d="M5.6,22.04c-.09.03-.16.04-.26.06-.02,0-.45-.02-.39.03-.04,0-.08,0-.12,0-.08-.13-.29-.06-.56-.27-.06-.05-.12-.09-.2-.09-.38-.42-.47-.53-.43-1.21,0-.15.07-.31.04-.44.21.08.16.56.12.76.1.14.11.29.16.43.22.7,1.06.74,1.64.72Z"/>
    <path class="cls-3" d="M12.63,24.98c.12,0,.25-.02.28-.16.04-.2-.02-.39-.03-.61-.07.08-.08.17-.11.27v.02s-.09,0-.13,0l.25-1.02c.05-.2.07-.4.15-.58v.48c0,.12.04.22.04.35-.02.29.07,1.56-.4,1.36-.04-.02-.02-.08-.04-.11Z"/>
    <path class="cls-3" d="M19.91,24.33c.1.08.1.27.25.36.03.02.02.07.04.09.08.09.04.19.04.31,0,.22.35.38.31.53-.27-.16-.5-.34-.74-.55-.03-.13.23.03.15-.1-.14-.21-.23-.43-.36-.65-.02-.04-.12-.14-.04-.16s.13.13.17.2c.07.03.12-.02.17-.03Z"/>
    <path class="cls-4" d="M14.83,4.96s.03.03.03.04c-.04.09-.96.93-1.19,1.25l-.77,1.07c-.04-.23.68-.96.5-.95.45-.49.91-1,1.44-1.41Z"/>
    <path class="cls-6" d="M21.28,18.71c.11.21.29.4.42.62.16.26.33.49.52.72.04.04.05.08.05.13l-.15.1c-.22-.29-.46-.58-.64-.9,0-.01-.03-.02-.04-.03-.04-.04-.04-.09-.07-.13-.03-.07-.27-.54-.09-.51Z"/>
    <path class="cls-3" d="M4.11,25.68c-.13-.12.47-.21.54-.21.19-.01.31-.11.4-.32.07.08.16.26.13.35-.14.35-.88.34-1.06.17ZM4.84,25.57c-.12-.04-.23,0-.31.09.12.01.23-.02.31-.09Z"/>
    <path class="cls-1" d="M25.33,24.22c-.15.05-.3-.37-.49-.25-.1.07-.11.23-.2.31-.05.05-.14.02-.2.02-.01-.08-.12-.15-.09-.25.07-.29.38-.38.63-.29.22.08.28.26.34.45Z"/>
    <path class="cls-3" d="M10.1,25.43c-.56.39-1.25.64-1.98.7.44-.2.95-.28,1.32-.57.01.03.03.05.06.06.06.02.55-.27.61-.19Z"/>
    <path class="cls-1" d="M10.65,26.06c.02-.09.09-.12.14-.17l.35-.29c.06-.05.08-.13.14-.14.02.02.05.03.07.02.04,0,.05-.08.12-.04-.16.08-.22.36-.19.43.05.12.21.08.24.14.05.12-.39.17-.59.13-.11-.02-.19-.08-.29-.08ZM11.11,26.03c.1,0,.12-.02.12-.08,0-.03-.01-.06-.05-.08-.03-.01-.11.04-.12.11,0,.03.01.04.05.05Z"/>
    <path class="cls-5" d="M3.3,19.39c-.02.05-.32.87-.16.84l-.03.12c-.18.02-.16.39-.17.52l-.19.03v-.16c.05-.06.05-.16.01-.23.08-.39.2-.79.44-1.11h.09Z"/>
    <path class="cls-6" d="M6.17,24.44c0,.11.07.21.1.32-.09-.08-.2-.14-.3-.25-.02-.03-.1,0-.12,0-.03.01-.05.07-.04.13l.02.47s-.1-.06-.13-.12l-.15-.29c-.01-.22.1-.46.3-.57.22.1.17.32.33.31Z"/>
    <path class="cls-6" d="M5.7,18.24c-.15-.02-.3.01-.44,0-.29-.01-.58.06-.85.19-.12.06-.5.23-.5.36,0,.03.03.05.05.08.01.02-.02.07-.02.1,0,.04-.05.04-.08.05-.16-.3-.54.35-.54.35h-.09c.05-.19.22-.34.37-.49.38-.38.84-.65,1.38-.72.25-.04.51-.04.73.06Z"/>
    <path class="cls-1" d="M20.36,25.04s-.03,0-.05,0c-.03.01-.03.05,0,.09.23.34.58.61.98.75-.05-.09-.13-.11-.19-.17-.01-.01-.02-.03-.03-.04-.02-.02-.05-.03-.06-.06.13,0,.23.1.34.17l.39.24s-.08.07-.07.13l-.39-.14c-.28-.1-.49-.26-.72-.4.04-.15-.31-.3-.31-.53,0-.12.03-.22-.04-.31.09.05.12.16.16.25Z"/>
    <path class="cls-1" d="M26.75,24.06c.12,0,.19-.11.2-.23.25-.25.19-.09.29-.14.07-.03.12-.08.22-.08.02.33-.71.98-.84.79-.07-.1.09-.25.14-.34ZM27.16,23.83c-.12.06-.2.13-.24.26.14,0,.38-.32.24-.26Z"/>
    <path class="cls-1" d="M4.51,19.45c-.01.23-.13.67-.45.65-.09,0-.21-.19-.17-.26.12-.22.47-.29.39-.58.04.03.01.12.05.13l.17.05Z"/>
    <path class="cls-1" d="M25.98,23.49s.07.03.11.02c.04,0,.04-.05.06-.07.03,0,.1-.02.12,0,.04.04.08.04.15.05.02,0,.02.07.02.08-.09.05-.13.18-.14.28-.09.01-.18.08-.28.07-.02,0-.05,0-.04.03h-.16s-.09,0-.09-.03c-.01-.09.02-.16.03-.26-.12-.04-.15-.12-.16-.21.07,0,.16.22.34.13.03-.02.05-.06.04-.1Z"/>
    <path class="cls-3" d="M17.68,24.26c-.08.03-.17-.09-.17-.16,0-.03.05-.05.1-.07-.02-.19-.09-.38-.09-.58,0-.29-.04-.48-.03-.55,0,0,.01-.02.03,0,0,0,.02.02.02.04l.2.57c.05.13.14.24.16.38-.04.1-.14.15-.16.25,0,.05-.01.1-.05.11Z"/>
    <path class="cls-6" d="M9.76,18.72l-.05.16c-.02.06.02.13-.04.16-.1.01-.17.12-.16.22-.09,0-.5.58-.55.68-.1-.02-.55.35-.45.51-.02,0-.03,0-.05,0-.03-.04-.02-.09-.06-.13.23-.23,1.17-1.36,1.3-1.63.01.03.05.02.07.02Z"/>
    <path class="cls-3" d="M26.33,19.64s-.12,0-.13.05c-.02.06.13.21.17.24.04.07.05.18.07.26-.04.05-.1.08-.16.07-.03-.12-.04-.24-.03-.39-.09-.06-.23-.2-.29-.12-.14-.11-.09-.18-.18-.22-.08-.04-.16.13-.24.07-.12-.08-.21-.16-.31-.27.14,0,.19-.01.26-.04.12-.04.22.08.31.13.18.09.39.18.55.22Z"/>
    <path class="cls-6" d="M24.48,21.91l-.12.1c-.39-.08-.76-.25-1.09-.48.08-.03.15,0,.23-.03.04-.02.03-.07.04-.1.08.03.92.5.95.51Z"/>
    <path class="cls-4" d="M8.87,23.99l.03.03s0,.08-.05.11l-.34.27c-.12.1-.68.56-.79.35.24-.13.41-.37.64-.51.14.03.36-.22.51-.26Z"/>
    <path class="cls-3" d="M3.2,22.74c-.11,0-.29-.02-.29.1-.12-.02-.25-.09-.27-.22.05-.01.09-.04.11-.08.02-.06.04-.16-.01-.17-.07-.02-.1-.02-.12-.07s-.03-.1.01-.13c.03.05.06.1.11.08-.04-.13-.06-.23-.03-.33.05,0,.07.05.09.1.13.35.33.39.41.73Z"/>
    <path class="cls-1" d="M26.23,25.87l.04-.24c.4.1.87.03,1.2.19-.14.11-.3.07-.45.1-.27.05-.54.05-.78-.05ZM26.42,25.74c.16.09.3.11.47.08-.12-.02-.46-.15-.47-.08Z"/>
    <path class="cls-1" d="M27.76,23.63c-.24-.06.35-.83.46-.93.14.35-.2,1-.46.93ZM27.9,23.38c.18-.07.2-.23.2-.38-.08.12-.14.24-.2.38Z"/>
    <path class="cls-1" d="M25.43,22.11s.02.12-.03.14c-.05.03-.11.02-.16.02.03-.09-.38-.11-.5-.12.05.06.1.11.15.15-.27.08-.47-.28-.58.03-.02-.02-.07-.01-.08-.04-.02-.04-.02-.08-.01-.12.09,0,.2,0,.31-.01-.05-.05-.11-.14-.18-.15l.12-.1c.31.09.63.19.96.2Z"/>
    <path class="cls-3" d="M16.4,25.78c.06,0,.1-.08.16-.06.08.13.26.17.36.29.18.2.36.2.39.24.03.04.07.08.12.08,0,.02.01.04,0,.05-.28-.1-.6-.13-.85-.32l-.27-.21s-.1-.07-.1-.13c.07.02.13.03.2.06Z"/>
    <path class="cls-3" d="M26.49,24.3c-.16.28-.73.42-.76.19-.01-.08.04-.11.11-.14.22-.09.41-.2.65-.24,0,.06-.02.11,0,.18Z"/>
    <path class="cls-3" d="M17.25,24.74c-.17-.48-.22-.94-.15-1.48.17.11.23,1.29.15,1.48Z"/>
    <path class="cls-1" d="M3.2,22.74c.11.09.22.18.27.32.03.09.02.2-.03.29-.09.05-.18.05-.26.03-.14-.14-.28-.33-.27-.54,0-.12.18-.09.29-.1ZM3.41,23.24c-.06-.21-.21-.34-.37-.44.01.23.21.36.37.44Z"/>
    <path class="cls-5" d="M10.42,18.17c-.31.09-.38.37-.67.54-.03,0-.06,0-.07-.02.12-.25.24-.51.41-.73.06.09.26,0,.31.09.02.03.01.09.01.13Z"/>
    <path class="cls-1" d="M15.95,25.81c.13,0,.25.07.29.19-.03,0-.08.05-.12,0l.02.08s-.13.03-.12.11c-.21-.11-.47-.19-.64-.37.03-.05.05-.09.05-.15.07.07.17.04.24.08.1.05.17.08.27.07ZM15.79,25.93c-.1-.06-.16-.16-.31-.19.05.12.18.16.31.19Z"/>
    <path class="cls-1" d="M2.69,21.85s.01.05,0,.07c-.04.1-.02.21.03.33-.05.02-.07-.02-.11-.08-.04.03-.03.08-.01.13s.05.06.12.07c.06.02.03.12.01.17-.01.04-.06.06-.11.08-.21-.02-.27-.72-.25-.87.05-.01.11-.08.17-.05s.08.12.14.13ZM2.53,22.13c.03-.13.03-.26-.04-.39-.06.13-.04.27.04.39Z"/>
    <path class="cls-1" d="M19.77,25.91c.1.05.2.11.29.19.05.04.34.18.28.31s-.35.08-.46,0c.02-.07-.02-.13-.05-.19-.03-.07-.1-.09-.17-.08-.03-.04-.05-.08-.07-.12.04-.07.1-.13.18-.12ZM20.13,26.27c-.08-.12-.2-.12-.26-.22-.03,0-.05-.02-.06-.01-.16.04.31.26.32.24Z"/>
    <path class="cls-3" d="M7.33,24.37c-.06.05-.11.04-.16,0-.11-.12.26-.29.32-.39s.16-.03.22-.06l.39-.33c0,.11-.44.6-.49.62-.1.05-.2.09-.28.17Z"/>
    <path class="cls-1" d="M14.16,25.65h.04c.09.06.18.16.24.26.04.06.09.18.09.26,0,.17-.37.03-.5-.24-.08-.17-.18-.33-.19-.51.13.08.3.53.38.46.07-.06-.05-.14-.06-.23Z"/>
    <path class="cls-6" d="M2.95,20.86s.05.08.1.06c0,.15,0,.3.03.47-.09.04-.07.13-.1.2l-.06.16c-.14-.26-.16-.57-.16-.86l.19-.03Z"/>
    <path class="cls-3" d="M22.3,23.61c.13-.01.92.63.74.83-.31-.22-.58-.47-.74-.83Z"/>
    <path class="cls-1" d="M4.51,23.71s-.04,0-.06,0v-.04c.05,0,.11,0,.14-.03-.17-.16-.41-.24-.65-.23.02.13.13.13.22.2.02.06.07.08.1.15-.27.06-.2-.2-.42-.15-.09-.09-.08-.24-.03-.35.16.01.31.09.47.13.19.05.36.14.44.32-.09-.01-.16,0-.23.01Z"/>
    <path class="cls-3" d="M10.26,25.87c-.19.13-.49.39-.74.25.16-.13.32-.19.49-.28s.32-.19.51-.23c-.04.13-.16.18-.26.25Z"/>
    <path class="cls-3" d="M27.1,23.38c.06.05.15.04.22,0-.15.15-.32.23-.54.29-.17.05-.31.16-.48.18.01-.1.05-.22.14-.28.24.02.45-.12.66-.2Z"/>
    <path class="cls-1" d="M26.43,20.19c-.02-.08-.03-.19-.07-.26.07-.11.39.12.41.28.02.13,0,.25-.1.35-.11-.13-.21-.24-.24-.38Z"/>
    <path class="cls-3" d="M26.27,25.63l-.04.24c-.26-.05-.35-.35-.43-.58-.03-.1-.09-.21,0-.31l.21.43c.05.1.19.14.26.22Z"/>
    <path class="cls-3" d="M19.66,26.15c.07,0,.14,0,.17.08.03.06.07.12.05.19-.27,0-.56-.05-.73-.3-.03-.04.04-.15.09-.14.09.14.26.19.42.18Z"/>
    <path class="cls-3" d="M19.77,25.91c-.08-.02-.15.05-.18.12-.07.03-.51-.76-.41-.85l.59.73Z"/>
    <path class="cls-1" d="M21.83,26.58v.06c-.35.01-.74-.07-1.01-.34.24.04.9.18,1.01.29Z"/>
    <path class="cls-1" d="M2.56,20.26s0,.08.04.1c0,.18-.07.37-.1.54-.05-.04-.03-.1-.06-.17-.25.18-.06.37-.18.42-.07.02-.11-.01-.13-.08-.03-.08.03-.38.12-.36,0,.03-.03.05,0,.09.07-.07.22-.25.15-.31.05-.06.09-.15.1-.22.02,0,.04,0,.06,0Z"/>
    <path class="cls-1" d="M12.63,24.98c-.09-.15-.04-.33,0-.48.04,0,.08,0,.12,0-.03.11-.08.22,0,.32.08-.03.09-.38,0-.34.03-.09.04-.19.11-.27.02.21.07.4.03.61-.02.14-.16.17-.28.16Z"/>
    <path class="cls-5" d="M20.36,25.04c.11.09.23.18.32.29-.02.07.26.29.33.29,0,.03.04.05.06.06,0,.01.02.03.03.04.06.05.14.08.19.17-.4-.14-.74-.41-.98-.75-.02-.03-.02-.07,0-.09.01,0,.03-.01.05,0Z"/>
    <path class="cls-3" d="M16.23,26c.12.01.16.14.22.23.08.08.22.05.3.11.11.08.22.06.35.1-.38.01-.76-.08-1.09-.25,0-.08.13-.06.12-.11l-.02-.08c.04.06.09,0,.12,0Z"/>
    <path class="cls-3" d="M4.73,24.88s-.05-.05-.08-.05c-.07-.14-.15-.29-.18-.46.15-.03.25.06.36.16s.05.35-.1.36Z"/>
    <path class="cls-3" d="M7.55,25.78c.06.04.33.16.42.12-.27.08-.54.11-.83.1.02-.07.06-.14.1-.2.1,0,.21-.02.31-.03Z"/>
    <path class="cls-1" d="M26.48,21.4s0-.09.04-.12c.12-.12.15-.28.22-.41.09.31.14.56-.23.74l-.03-.21ZM26.61,21.43c.12-.08.14-.19.13-.32-.04.11-.12.2-.13.32Z"/>
    <path class="cls-1" d="M22.92,25.91s-.06.02-.07.05c0,.03.02.05.05.06.06.02.12,0,.13-.05.09.02.19.03.28.08.01.07.01.13.01.18-.18-.03-.38-.01-.55-.11.06-.11,0-.2.08-.24.03-.02.03.03.05.03Z"/>
    <path class="cls-3" d="M21.67,26.15c0-.05.03-.09.07-.13l.79.29c-.3.03-.59-.07-.86-.17Z"/>
    <path class="cls-3" d="M3.17,23.38c.08.02.17.02.26-.03.04-.09.06-.2.03-.29.13.04.22.25.15.38-.05.09-.17.1-.24.08-.09-.02-.14-.09-.2-.15Z"/>
    <path class="cls-1" d="M26.27,20.25s-.03.02-.03.03c-.19.05-.12-.23-.24-.39-.03-.04-.02-.12-.06-.15.06-.08.2.06.29.12-.01.14,0,.27.03.39Z"/>
    <path class="cls-1" d="M25.82,25.84s.32.1.32.18c0,.02-.01.05-.03.08-.02,0-.05-.02-.07-.02s-.05.01-.05.04c-.13-.04-.28-.07-.34-.19.03-.07.11-.11.18-.09Z"/>
    <path class="cls-3" d="M16.02,26.58c-.12.15-.69-.17-.72-.32.17.02.28.12.42.17.1.04.2.05.3.15Z"/>
    <path class="cls-1" d="M27.7,22.9c-.05.21-.24.33-.38.47-.08.03-.16.04-.22,0,.16-.12.45-.42.6-.47Z"/>
    <path class="cls-3" d="M18.35,24.44s-.1-.02-.12.02c.09.22.04.43-.01.62.06-.18-.28-.49-.08-.63.06-.04.15-.06.21,0Z"/>
    <path class="cls-3" d="M2.69,21.85c-.06-.02-.08-.1-.14-.13s-.12.03-.17.05c-.1-.08.13-.29.22-.35.05.16.07.3.09.44Z"/>
    <path class="cls-1" d="M28.65,21.18c.11.06.16.21.12.34-.05.19-.18-.18-.27-.15l-.04-.17s.06-.05.07-.09c.09.07.06.21.19.26-.01-.08-.07-.13-.07-.2Z"/>
    <path class="cls-1" d="M20.76,25.03c-.21-.1-.38-.26-.39-.5.18.13.31.32.39.5Z"/>
    <path class="cls-6" d="M10.45,20.74c-.1.16-.13.35-.23.54-.02-.06-.04-.12-.06-.18.04-.1.09-.22.13-.32.05.05.1-.02.15-.03Z"/>
    <path class="cls-3" d="M25.82,25.84c-.08-.02-.15.02-.18.09-.12-.08-.18-.25-.06-.38l.24.29Z"/>
    <path class="cls-3" d="M10.87,24.12c-.06.11-.11.21-.19.33-.04-.04-.06-.08-.1-.1.02-.14.2-.18.26-.29.01,0,.04.05.03.06Z"/>
    <path class="cls-1" d="M5.79,18.72c-.1.08-.22.14-.32.21,0-.06,0-.13.02-.21.1-.04.21,0,.3,0Z"/>
    <path class="cls-1" d="M4.73,24.88c.02.11-.03.23-.14.28,0-.13.04-.23.06-.34.03,0,.07.02.08.05Z"/>
    <path class="cls-3" d="M26.94,23.83c0,.11-.07.24-.2.23.01-.09-.01-.15.06-.19.04-.02.08-.04.13-.04Z"/>
    <path class="cls-3" d="M17.35,22.41s-.04.02-.07.02c-.01-.11-.04-.22,0-.32.04.09.05.18.06.3Z"/>
    <path class="cls-6" d="M21,25.61c-.07,0-.34-.21-.33-.29.07.03.31.2.33.29Z"/>
    <path class="cls-3" d="M18.88,24.68c-.06.03-.17-.14-.09-.17.06-.02.13.14.09.17Z"/>
    <path class="cls-3" d="M3.91,19.46v-.13s.09-.03.14-.06c.02.12-.1.13-.14.19Z"/>
    <path class="cls-3" d="M26.1,26.1s.05.07.03.09c-.07.05-.12-.04-.16-.06,0-.03.03-.04.05-.04.03,0,.05,0,.07.02Z"/>
    <path class="cls-6" d="M2.76,20.74c0-.08,0-.15.01-.23.04.06.04.17-.01.23Z"/>
    <path class="cls-3" d="M2.6,20.35s-.04-.06-.04-.1c.02,0,.04,0,.06.02.03.03,0,.05-.02.07Z"/>
    <path class="cls-3" d="M10.99,24.15s-.02-.02-.03-.03c.01,0,.01-.04.02-.04.02,0,.04,0,.05.02.02.03-.02.04-.04.05Z"/>
    <path class="cls-6" d="M20.17,24.57s-.03-.03-.04-.05c0-.02,0-.05.03-.05v.1Z"/>
    <path class="cls-1" d="M22.72,26.12s-.07,0-.07-.03c.02,0,.07,0,.07.03Z"/>
    <path class="cls-6" d="M5.8,18.27s-.06,0-.07-.03c.02,0,.07,0,.07.03Z"/>
    <path class="cls-5" d="M10.43,24.47s-.04.03-.07.03c.01-.03.04-.03.07-.03Z"/>
    <path class="cls-6" d="M20.17,24.43s.02-.02.03-.03c0,.01-.02.02-.03.03Z"/>
    <path class="cls-6" d="M10.84,24.06c-.06.11-.24.15-.26.29-.06.03-.1.08-.15.13-.03,0-.06,0-.07.03-.05.12-.18.18-.31.27l.15-.35s.07.04.12.03c-.02-.06-.05-.1-.05-.14,0-.04.03-.1.07-.13.43-.34.47-.76.76-1.15.04.03.09.04.11.07.1.15-.27.79-.36.95Z"/>
    <path class="cls-1" d="M5.34,24.85s-.03-.03-.03-.04c.03,0,.02.02.03.04Z"/>
    <path class="cls-3" d="M25.98,23.95s.02-.03.04-.03c.01.02-.03.03-.04.03Z"/>
    <path class="cls-5" d="M27.87,20.09c0,.08-.1.07-.17.06-.07-.03-.09-.11-.16-.16-.03-.02-.07,0-.07.03s-.03.07-.02.1c-.04.01-.1-.02-.13,0,0-.06-.02-.14-.06-.19,0-.05,0-.11,0-.16.06-.04.01-.11,0-.16.03-.02.05-.06.07-.09.22.17.42.33.55.57Z"/>
    <path class="cls-3" d="M25.37,19.14s-.03.06-.04.1c-.08-.02-.18-.03-.27.02-.04.02.04.05.05.08-.22-.01-.4.04-.61.07.01-.06.07-.05.09-.08.06.01.11,0,.16-.06.21-.11.4-.2.61-.12Z"/>
    <path class="cls-1" d="M25.38,18.98c0,.05,0,.1,0,.15-.21-.08-.41,0-.61.12-.04.06-.1.07-.16.06.18-.23.49-.31.78-.34Z"/>
    <path class="cls-1" d="M2.41,23.83s-.01.09.04.1c.07-.05.11-.23.03-.29,0-.06,0-.14.06-.21.05.2.17.52.04.65-.03.03-.11.1-.17.05-.1-.08-.07-.22-.02-.31Z"/>
    <path class="cls-5" d="M2.41,23.83c.04-.07.05-.13.07-.18.08.05.04.23-.03.29-.05-.01-.04-.08-.04-.1Z"/>
    <path class="cls-1" d="M28.87,23.31c-.07.11-.15-.23-.21-.33-.04-.06-.08-.14,0-.19.08.19.3.4.22.53Z"/>
    <path class="cls-1" d="M3.85,24.41c.02.08.1.41-.02.38-.09-.02-.02-.3.02-.38Z"/>
    <path class="cls-1" d="M26.97,25.2c-.13-.11-.11-.26-.05-.39.12.08.12.25.05.39Z"/>
    <path class="cls-1" d="M28.19,24.52c-.1-.03-.08-.22-.06-.28.12,0,.13.06.14.12.01.05.01.19-.08.16Z"/>
    <path class="cls-6" d="M28.65,21.18c0,.07.05.12.07.2-.13-.05-.1-.19-.19-.26,0-.01,0-.03.01-.06.05.02.07.09.11.13Z"/>
    <path class="cls-1" d="M1.83,22.5c-.21-.02.07-.48.21-.49.02.15-.01.43-.21.49Z"/>
    <path class="cls-5" d="M2.25,20.7c0-.11.09-.14.15-.22.07.06-.08.24-.15.31-.03-.04,0-.06,0-.09Z"/>
    <path class="cls-1" d="M16.3,9.04c-.1-.02-.18.05-.27.08l-.05-.35s-.03-.08-.05-.09c-.04-.02-.08-.01-.12.01-.19.14-.12.47-.29.61-.05.04-.16-.02-.21.02-.28.4-.03.59-.35,1.31-.28.64.02.99-.1,1.6-.02.08-.07.26-.17.24-.14-.02-.18-.26-.15-.39.13-.49.13-.95.02-1.44-.02-.09-.04-.77-.18-.77-.12,0-.27.72-.53.63-.1-.03-.08-.25-.17-.25-.2,0-.36.46-.42.59-.07.15-.23.22-.37.2-.39-.07-.27-.73-.06-1.04l.52-.79c.1-.15.14-.32.11-.51-.04-.22.06-.43.26-.53l.86-.45c.21-.11.32-.3.4-.5.05-.12.21-.15.28-.26-.05-.06-.14-.14-.1-.24.1-.19.35-.28.56-.23.05.01.05.09.03.11-.07.1-.24.03-.37.19-.03.04-.03.1,0,.12.1.07.45-.17.74-.21.23-.03.67-.06.77.17.12.27-.36.5-.03.78.42.35.5,1.07.17,1.05-.06,0-.13-.05-.16-.13-.09-.24.18-.58-.2-.73-.23.14-.35.94-.39,1.18ZM15.46,7.25c.22-.06.34-.17.48-.26-.2.03-.35.15-.48.26ZM14.44,9.29c.27-.23.55-.43.84-.63.13-.09.22-.23.33-.34.15-.15.25-.3.36-.48.07-.12.41-.65.26-.72-.02-.01-.07-.03-.11,0-.42.18-.8.4-1.15.7-.13.11-.23.2-.37.3-.24.16-.54.37-.63.66-.12.37-.22.72-.52,1-.03.03-.29.35-.23.41.07.07,1.09-.78,1.21-.89ZM14.87,7.77c.15-.09.24-.19.35-.28-.14.07-.27.15-.35.28ZM14.55,7.99c-.16,0-.87.42-.74.62.37-.44.37-.3.74-.62ZM15.77,8.46c.23-.02.36-.32.33-.47-.16.24-.27.25-.33.47ZM15.32,8.8c-.16.06-.29.15-.38.27.45-.06.47-.3.38-.27ZM13.52,9.36c.14-.08.18-.21.16-.36-.05.13-.13.23-.16.36Z"/>
    <path class="cls-2" d="M18.73,13.13c.39.26.65.65.66,1.11,0,.38-.15.71-.4.92-.28.24-.63.32-.99.25-.57-.11-.93-.59-.93-1.17,0-.41.2-.79.51-1,.36-.25.76-.25,1.14-.11ZM18.39,13.75c0-.19-.15-.34-.35-.34s-.35.15-.35.34.15.34.35.34.35-.15.35-.34ZM17.52,14.21c0-.07-.06-.13-.13-.13s-.13.06-.13.13.06.13.13.13.13-.06.13-.13Z"/>
    <path class="cls-2" d="M13.8,14.94c-.36.53-1.12.65-1.62.27-.55-.42-.6-1.2-.2-1.73.22-.3.53-.46.89-.46s.7.15.91.46c.29.43.32,1,.01,1.46ZM13.12,13.71c0-.19-.16-.35-.35-.35s-.35.16-.35.35.16.35.35.35.35-.16.35-.35ZM12.2,14.15c0-.08-.06-.14-.14-.14s-.14.06-.14.14.06.14.14.14.14-.06.14-.14Z"/>
    <path class="cls-2" d="M16.76,15.85c-.08.4-.28.72-.58.96-.4.31-.93.29-1.32-.04-.82-.7-.65-2-.31-1.85.76.35,1.15.47,1.97.08.06-.03.11-.05.17-.02.21.11.13.63.09.87ZM16.19,16.48c.06-.05.18-.17.14-.24-.3-.35-1.24-.34-1.59-.02.12.29.38.48.65.52.29.05.58-.05.8-.26Z"/>
    <path class="cls-4" d="M13.88,7.67c-.04-.09-.12-.1-.23-.07-.07.03-.12.11-.13.19-.04.02-.1.06-.15.02-.14-.11-.16-.29-.13-.46.16-.8.93-1.41,1.08-1.21.06.08-.02.19.04.25.1.08.24-.05.28.04.15.27-.48,1.33-.77,1.23Z"/>
    <path class="cls-6" d="M19.17,15.49c.19.25.82.25,1.09.13.03.05.03.1-.04.15-.73.52-1.8.32-1.78-.04,0-.17.57-.27.73-.25Z"/>
    <path class="cls-6" d="M11.83,15.57c.14,0,.82-.07.69.22-.02.04-.05.11-.11.14-.84.41-1.7-.1-1.71-.29,0-.03.03-.07.07-.08.22.2.83.13,1.06,0Z"/>
    <path class="cls-4" d="M20.26,15.63c-.27.11-.9.12-1.09-.13-.03-.11.02-.22.14-.29.39-.23,1.02-.09,1.05.24,0,.07-.07.12-.1.18Z"/>
    <path class="cls-3" d="M16.3,9.04c-.02.1-.03.2-.03.29-.08.11-.01.25,0,.36.02.21.07.42.12.64.05.2.1.68-.17.69-.09,0-.16-.06-.21-.15-.08-.17-.05-.37-.01-.56.07-.33.07-.66.05-.98.03,0,.03-.03.03-.05,0-.03,0-.05-.04-.05v-.12c.08-.03.15-.1.26-.08ZM16.19,10.77c.1-.15.07-.32-.02-.43-.05.14-.09.29.02.43Z"/>
    <path class="cls-4" d="M11.83,15.57c-.23.13-.84.2-1.06,0-.06-.12-.05-.26.08-.34.37-.21.95-.13,1.03.17.02.06-.02.12-.06.17Z"/>
    <path class="cls-2" d="M14.35,23.09c.02.06.05.13.09.17-.03.14.05.27.06.41,0,.09.05.15.06.22.05.26.12.53.3.73.12.3.36.53.56.77,0,.16-.26,0-.37-.1-.42-.38-.27-.56-.54-.89-.09-.26-.12-.55-.23-.8-.02-.05-.02-.13-.03-.18,0-.03.01-.09-.03-.1-.02-.04.02-.12,0-.16.03-.02.05-.04.07-.07.02,0,.04,0,.05,0Z"/>
    <path class="cls-4" d="M13.04,8.04c.28.13-.1,1.04-.45.93-.05-.02-.1-.08-.11-.15-.12-.49.39-.85.57-.77Z"/>
    <path class="cls-4" d="M14.45,19.65c-.07-.08-.18-.17-.19-.26-.03-.22,0-.65.24-.67.13-.01.47.46.18.87-.05.07-.15.1-.22.06Z"/>
    <path class="cls-4" d="M15.48,24.69c.03.09.07.18.15.23,0,.02,0,.06-.02.05s-.06,0-.09-.02c-.4-.32-.69-.77-.8-1.27-.01-.06.02-.12.03-.16,0-.03.09-.07.11-.04.17.18.23.42.32.63l.2.48s.06.08.09.1Z"/>
    <path class="cls-4" d="M11.77,18.85c0,.47-.37.89-.5.84-.22-.07.05-1.04.38-1.01.06,0,.12.07.12.16Z"/>
    <path class="cls-1" d="M18.44,10.07c.2.2.25.5.06.7-.1,0-.21.06-.27,0-.22-.18-.24-.44-.08-.65.08-.1.19-.11.29-.06Z"/>
    <path class="cls-4" d="M10.04,22.77c-.07.1-.17.17-.25.27-.02.03-.1-.04-.08-.06s0-.08.02-.11c.41-.56.39-.91.86-1.36.07.09-.01.16-.04.23-.13.36-.28.71-.5,1.03Z"/>
    <path class="cls-1" d="M20.01,20.57s0,.02,0,.03c.14.21.22.46.34.69.09.19.1.37.18.53-.05.02-.11.03-.17.03-.12-.16-.22-.33-.27-.55s-.32-.7-.07-.73Z"/>
    <path class="cls-4" d="M14.61,21.69c0,.07.04.14.09.19-.01.26.09.63.03.86-.07.01-.13,0-.19-.02-.04-.36-.22-.67-.12-1.02.02-.07.05-.15.14-.16,0,.06,0,.12.04.15Z"/>
    <path class="cls-1" d="M18.89,21.7c-.23-.01-.23-.18-.32-.26.03-.17-.03-.29.11-.39.05-.04.12-.06.19-.03.2.09.29.34.2.54-.04.08-.11.13-.18.14Z"/>
    <path class="cls-3" d="M20,23.1v.22c-.04.05-.03.14-.1.17-.16.05-.23-.09-.28-.1-.11-.13-.11-.31-.09-.48,0-.06.11-.12.16-.14.2-.08.32.34.32.33Z"/>
    <path class="cls-1" d="M10.23,21.28c.09-.19.13-.38.23-.54.07-.12.14-.22.23-.33.19.21-.15.73-.27.92-.07.11-.1.26-.26.27-.02-.12.02-.24.07-.33Z"/>
    <path class="cls-3" d="M14.74,22.78s.07.04.08.06c.03.17-.12.12-.13.46l-.02.62s-.07-.01-.1-.02c-.02-.07-.06-.14-.06-.22.02,0,.03,0,.03-.03v-.25c.01-.08-.04-.11-.09-.12-.05-.04-.07-.12-.09-.17.1-.09.13-.19.09-.35.12.02.2.04.29.04Z"/>
    <path class="cls-1" d="M11.93,21.56c-.08.08-.13.16-.22.19.03-.14.06-.34,0-.48-.3-.08-.19.39-.41.33-.12-.19.05-.46.25-.53.26.14.21-.03.33.03.17.08.09.33.07.46Z"/>
    <path class="cls-4" d="M11.39,11.1c-.08.36-.15,1-.29,1.3-.07-.48.17-1.38.32-1.83.03-.1.07-.19.15-.25l-.17.77Z"/>
    <path class="cls-2" d="M18.58,11.71c.08.04.15.15.17.24.02.07-.02.11-.06.12-.43-.36-.48-.26-1.04-.25.29-.24.62-.27.93-.11Z"/>
    <path class="cls-1" d="M21.31,23.58c.3.25.2.17.42.47-.02.04.01.1-.04.13-.16.11-.78-.55-.54-.62.06-.02.11.02.16.01Z"/>
    <path class="cls-2" d="M13.04,11.8c-.51-.04-.64.28-.73.2-.02-.02-.03-.08,0-.12.24-.33.74-.36,1.05-.06-.11.03-.21,0-.31-.01Z"/>
    <path class="cls-1" d="M8.9,24.02l-.03-.03c.02-.25.23-.44.48-.53.06.07.09.17.05.25-.05.13-.39.33-.5.31Z"/>
    <path class="cls-3" d="M10.21,23.26c-.09.05-.17,0-.19-.08-.04-.14.02-.25.11-.36.06-.07.2-.14.27-.03.1.17-.02.38-.19.46Z"/>
    <path class="cls-4" d="M24.57,25.17c-.19.12-.57.38-.77.16.26-.11.54-.17.7-.37.1-.02.12-.13.21-.09-.02.14-.11.21-.14.3Z"/>
    <path class="cls-4" d="M6.73,25.16c-.28.14-.61-.01-.75-.26-.04-.06-.02-.14.04-.19.2.21.43.32.71.45Z"/>
    <path class="cls-3" d="M11.71,21.75s-.06.06-.09.06c-.09,0-.3-.17-.33-.21.22.06.12-.41.41-.33.07.14.03.34,0,.48Z"/>
    <path class="cls-4" d="M11.09,13.84c.1.23-.06.75-.27.78-.03-.05.18-.99.27-.78Z"/>
    <path class="cls-1" d="M14.19,22.42c.22.44.27.25.35.29.06.03.12.04.19.02,0,.01,0,.03,0,.04-.09,0-.18-.02-.29-.04.04.16,0,.26-.09.35-.02,0-.03,0-.05,0,0-.06,0-.13-.02-.21-.03-.03-.06-.04-.09-.04,0-.02-.22-.47,0-.42Z"/>
    <path class="cls-1" d="M14.7,21.88c-.06-.05-.09-.11-.09-.19.08-.01-.02-.28.11-.29.05,0,.11.01.15.06.07.08.11.19.07.29-.04.09-.13.14-.23.13Z"/>
    <path class="cls-3" d="M14.45,20.16s.04.02.06.02c.07.27-.14.5-.2.46l-.09-.04c-.03-.12-.04-.26.03-.37.05-.03.14-.07.2-.07Z"/>
    <path class="cls-1" d="M15.44,9.8c.15,0,.19.53-.02.55-.15,0-.14-.51.02-.55Z"/>
    <path class="cls-4" d="M22.57,24.84c0,.11-.68-.36-.6-.42.1-.1.76.31.6.42Z"/>
    <path class="cls-4" d="M10.3,15.86c.04.1,0,.33-.13.32-.16-.02-.16-.27-.07-.36.04-.04.06-.07.11-.06.04,0,.06.03.09.1Z"/>
    <path class="cls-1" d="M13.39,11.39c-.1-.02-.09-.16-.07-.23.02-.06.07-.16.16-.14.08.02.1.14.09.21-.01.06-.08.19-.18.16Z"/>
    <path class="cls-3" d="M5.82,25.1s.03.09.05.13c-.42.04-.31-.43-.44-.44.04-.03.1-.05.11-.1l.15.29c.03.06.08.09.13.12Z"/>
    <path class="cls-1" d="M15.88,21.77c.05.06.04.15,0,.22-.03.04-.07.11-.15.09-.12-.04-.12-.21-.05-.3.05-.06.13-.08.19,0Z"/>
    <path class="cls-1" d="M13.88,7.67c0,.08-.06.14-.13.17-.08.03-.15,0-.22-.04,0-.09.05-.17.13-.19.1-.04.19-.02.23.07Z"/>
    <path class="cls-4" d="M20.51,22.37c0,.22.14.33.2.5-.2.02-.31-.26-.3-.46,0-.05.08-.05.1-.05Z"/>
    <path class="cls-1" d="M15.88,24.02c0,.06-.05.1-.1.12-.03.02-.08.03-.1.02-.04,0-.09-.06-.09-.1,0-.06.16-.18.22-.15.03.02.05.07.07.11Z"/>
    <circle class="cls-4" cx="14.58" cy="6.08" r=".13"/>
    <path class="cls-6" d="M15.69,24.6v.15s-.05.12-.06.16c-.09-.04-.13-.14-.15-.23.02-.09.14-.08.22-.09Z"/>
    <path class="cls-4" d="M12.69,9.32c-.01.07-.07.1-.11.11-.05.01-.1,0-.12-.06-.02-.04,0-.1.05-.15.04-.04.08-.05.13-.03.03.01.06.06.05.13Z"/>
    <path class="cls-2" d="M24.73,25.23c.07-.01.07.05.09.07-.05.07-.12.15-.22.19-.06.02-.07-.06-.06-.09l.09-.15h.09Z"/>
    <path class="cls-4" d="M14.43,18.51c-.08.03-.1-.08-.09-.12,0-.04.01-.14.09-.13s.09.22,0,.25Z"/>
    <path class="cls-2" d="M6.91,25.53s-.03.09-.07.1c-.04.01-.12.03-.14-.02-.03-.05,0-.11,0-.15.07,0,.16,0,.2.07Z"/>
    <path class="cls-2" d="M15.73,23.01s-.07-.06-.07-.09c0-.04.02-.11.07-.12s.08.05.08.09-.01.11-.08.12Z"/>
    <path class="cls-1" d="M9.06,25.07s.03-.06.03-.08c.17.03.23-.16.35-.12-.09.13-.23.2-.38.2Z"/>
    <path class="cls-3" d="M9.59,24.63c-.05.07-.07.17-.18.15.02-.05.01-.12.03-.15l.07-.13.07.13Z"/>
    <path class="cls-2" d="M18.11,20.01s-.08.03-.11.02-.06-.04-.05-.07c0-.03.04-.07.08-.09s.11.1.08.15Z"/>
    <path class="cls-1" d="M22.23,25.49s-.1,0-.14-.03c.01-.04-.01-.14.05-.15.06-.02.1.05.11.09,0,.03,0,.07-.02.1Z"/>
    <path class="cls-1" d="M21.79,25.33c-.09,0-.16-.07-.19-.15.03-.01.04-.06.08-.05.1.02.07.1.11.2Z"/>
    <path class="cls-3" d="M16.13,19.67c-.06,0-.04-.1-.01-.12.02-.02.06-.07.12-.06,0,.07-.01.19-.1.18Z"/>
    <path class="cls-4" d="M11.82,18.16c-.08-.02,0-.21.09-.18.03.03,0,.2-.09.18Z"/>
    <path class="cls-4" d="M14.52,20.18s-.04-.02-.06-.02c.02-.07,0-.16.09-.21.05.08.02.17-.03.23Z"/>
    <path class="cls-4" d="M11.72,18.5c-.09.02-.09-.07-.07-.1.02-.03.06-.11.11-.07.04.03.02.16-.04.18Z"/>
    <path class="cls-3" d="M16.06,19.83c-.01.08-.14.05-.16-.02-.01-.06.04-.07.07-.07.03,0,.1,0,.09.08Z"/>
    <path class="cls-3" d="M15.69,24.75v-.15s.08.02.09.05c0,.05.01.1-.02.15-.02-.02-.04-.03-.06-.05Z"/>
    <path class="cls-3" d="M12.85,19.76c.02.06-.14.09-.14.08,0-.01.02-.12.06-.12.03,0,.06.01.07.04Z"/>
    <path class="cls-1" d="M16.27,9.69c-.01-.11-.08-.25,0-.36,0,.12,0,.24,0,.36Z"/>
    <path class="cls-6" d="M20,23.32v-.22c.04.08.06.15,0,.22Z"/>
    <path class="cls-1" d="M16.05,9.33v-.1s.03.02.03.05c0,.02,0,.05-.03.05Z"/>
    <path class="cls-1" d="M17.8,25.72s.05.06.05.11c-.31.13-.69.13-.93-.14.27-.05.58.07.88.03Z"/>
    <path class="cls-2" d="M16.56,25.72c-.06-.02-.1.05-.16.06.05-.17-.32-.27-.23-.52.02-.05.09-.04.13-.03.1.03.18.37.26.49Z"/>
    <path class="cls-4" d="M17.8,25.72s0-.05.03-.06c.18-.09.31-.22.48-.33.03.3-.25.43-.51.39Z"/>
    <path class="cls-1" d="M17.43,26.32s-.08-.03-.12-.08c-.03-.04-.21-.04-.39-.24l.6.11-.09.21Z"/>
    <path class="cls-1" d="M18.52,25.64c-.01.05-.12.05-.12.01,0-.1.06-.18.11-.26.04.08.03.16.01.25Z"/>
    <path class="cls-6" d="M23.77,22.2s.2.11.3.06c.04-.02.05-.08.04-.12.03.01.08.01.11.04,0,.04,0,.08.01.12.01.03.06.02.08.04.1.09.26.19.41.18.1,0,.2-.1.32-.08-.02-.11-.11-.1-.16-.14-.05-.04-.11-.09-.15-.15.12,0,.53.04.5.12-.23.19.21.13.39.38-.31.17-.63.12-.94.09-.13-.15-.74-.35-.88-.15-.25-.03-.48-.16-.71-.28-.33-.16-.17-.19-.41-.35-.01,0-.03-.05-.06-.04,0-.03,0-.07-.02-.1.22.02,1,.5,1.17.38Z"/>
    <path class="cls-2" d="M27.25,20.9c.01.17,0,.33-.02.5-.04.05-.14.08-.2.13-.05.12-.2.59-.33.6-.08,0,.02-.11-.04-.14-.04-.02-.07,0-.1.04-.01.02-.02.04-.03.05,0,.04-.26-.04.24-.42.23-.18.25-.49.2-.76.1-.01.19,0,.28,0Z"/>
    <path class="cls-1" d="M22.14,21.5c-.12-.01-.24-.01-.34.05-.01,0-.02,0-.03,0,0-.36-.08-.36-.28-.7-.04-.06-.09-.11-.08-.18.01,0,.02-.02.03-.02.02,0,.05,0,.06.03.16.23.21.05.55.7.03.05.05.1.09.13Z"/>
    <path class="cls-2" d="M22.14,21.5s.02.02.04.02l.36.38s.06.03.09,0c.03,0,.04.03.06.04,0,.04.03.13-.02.15-.22-.08-.41-.42-.63-.27-.15-.01-.26-.15-.23-.29.1-.06.22-.06.34-.05Z"/>
    <path class="cls-2" d="M27.36,22.04c-.1.17-.29.5-.49.58-.01-.05-.05-.14,0-.19.04-.04,0-.34.22-.42.08-.03.16-.09.2-.18.06.05.07.14.07.21Z"/>
    <path class="cls-1" d="M24.72,23.33l-.25.11c-.37.16-.43.07-.76-.24.16-.03.28.04.42.05.19.01.34.03.59.09Z"/>
    <path class="cls-2" d="M24.69,22.74c-.09.12-.44-.12-.72-.05-.05.01-.09.04-.13,0-.02-.02-.03-.07-.03-.1.14-.2.75,0,.88.15Z"/>
    <path class="cls-1" d="M23.05,23.03c-.12-.07-.23-.19-.37-.21-.1-.16-.24-.31-.41-.41-.02-.01-.06,0-.07,0-.19-.06.43.59.52.54-.06,0,.46.38.46.24-.06-.03-.1-.1-.12-.15.3.09.47.38.76.56-.2.03-.34-.14-.49-.21-.13-.06-.25-.07-.37-.17-.63-.48-.81-.46-1.27-1.15-.05-.07-.28-.1-.16-.25.1,0,.15.16.21.22.26.25.65.34.72.41.22.19.45.34.73.45-.03.05-.08.04-.11.05-.03.01.02.06-.02.08Z"/>
    <path class="cls-2" d="M21.32,21.27c.1.09.2.17.31.26.03.11-.32.05-.38.04-.04-.06-.07-.12-.06-.18s.06-.11.13-.12Z"/>
    <path class="cls-1" d="M26.87,22.62c-.16.32-.12.17-.44.35,0-.11.22-.16.19-.32,0-.02.02-.03.04-.03.05,0,.11.02.17-.05.02-.02-.02-.06-.02-.08.01-.03.04-.06.07-.07-.05.06-.01.14,0,.19Z"/>
    <path class="cls-5" d="M26.27,22.14c.06.13-.43.21-.49.2.13-.15.3-.22.49-.2Z"/>
    <path class="cls-6" d="M26.66,22.62s.08-.11.15-.13c0,.02.04.06.02.08-.05.06-.12.04-.17.05Z"/>
    <path class="cls-1" d="M10.42,18.17c.34-.08-.42,1.28-.3,1.44.06-.04.09-.12.15-.07-.2.35-.67,1.01-.7,1.34-.01.1-.16.14-.15.28-.07,0-.11.06-.18.1-.01-.1.05-.16.05-.24-.07,0-.12,0-.18.01v-.12c.03-.28.56-.63.73-1.26.04-.16.12-.42.12-.58-.2.08-.36.36-.5.39.04-.05.05-.15.08-.2.04-.08.14-.13.12-.23.06-.03.02-.1.04-.16l.05-.16c.28-.17.36-.45.67-.54Z"/>
    <path class="cls-1" d="M7.96,21.14c.05-.02.12.01.16.05.11.11.01.28.16.31.11.02.23.02.19.05-.2-.01-.4.05-.54.19-.22.03-.25.17-.39.22-.11-.16-.81.33-.9.28.08-.09.13-.19.11-.31l.12-.16c.33-.16.71-.36.97-.61l.12-.04Z"/>
    <path class="cls-1" d="M4.84,22.14l.03.29c.02.17-.2.3-.35.31.01-.08-.06-.12-.07-.19.1-.1.1-.26,0-.37l-.36-.4c.07,0,.13.04.2.09.28.21.48.13.56.27Z"/>
    <path class="cls-6" d="M7.55,21.98c-.07.22-.43.62-.66.58-.05-.07-.02-.14.03-.24l-.22.02s-.05-.04-.08-.04l.03-.03c.1.04.8-.44.9-.28Z"/>
    <path class="cls-1" d="M7.52,22.87c-.14.13-.33.21-.42.37-.09.04-.15.12-.18.21-.02.05-.07.05-.11.08-.06.04-.1-.03-.16-.05-.1-.03-.53.04-.41-.08.02-.02.07,0,.1-.02.33-.13.62-.32.92-.49.09-.05.17-.07.26-.03Z"/>
    <path class="cls-6" d="M9.12,20.93v.12s-.2.32-.2.32c-.01.01-.02.02-.03.04-.03,0-.04.05-.06.06-.07.04-.12.12-.2.16-.06.02-.11-.06-.16-.06.03-.03-.09-.03-.19-.05.05-.01.11-.04.14-.1.19-.14.33-.31.49-.46.06-.05.15-.02.21-.02Z"/>
    <path class="cls-2" d="M8.48,21.56c.05,0,.1.09.16.06-.03.15-.1.03-.19.27l-.17-.08c-.27,0-.47.46-.53.28-.02-.06.19-.22.19-.33.14-.14.35-.21.54-.19Z"/>
    <path class="cls-2" d="M9.42,21.17c.02.23-.55.51-.61.44-.03-.04,0-.11.02-.15.02-.01.03-.05.06-.06.01,0,.03-.03.03-.04l.19-.32c.06-.01.11-.02.18-.01,0,.09-.06.15-.05.24.07-.04.11-.11.18-.1Z"/>
    <path class="cls-5" d="M7.93,22.78s0,.02,0,.03c-.02-.01-.03.02-.03.04-.25.31-.59.54-.98.61.03-.09.09-.17.18-.21.22.1.12-.06.49-.24.08-.04.2-.09.24-.17,0-.08-.14-.05-.19-.02.03-.06.1-.1.16-.13.04.04.13.03.13.1Z"/>
    <path class="cls-2" d="M4.32,22.48s-.11.06-.16.04-.09-.07-.15-.06c-.07,0-.14.01-.14.1-.05.04-.11.02-.16,0-.02-.06-.06-.17,0-.22.14-.11.63,0,.61.15Z"/>
    <path class="cls-5" d="M6.18,22.26l-.04.06c.1.03.17,0,.22-.06.02-.02.07-.03.08-.06.01-.01.03.04.05.05.04.02.08.02.12.02.02,0,.08,0,.08.04-.08.07-.17.13-.23.23l-.07.03-.12-.15c-.09.01-.19.05-.26,0,.12-.07.06-.22.16-.22v.06Z"/>
    <path class="cls-4" d="M7.1,23.24c.09-.17.29-.24.42-.37.03-.03.09-.04.13-.06.05-.03.18-.06.19.02-.05.08-.17.13-.24.17-.37.18-.28.33-.49.24Z"/>
    <path class="cls-4" d="M4.45,23.67c-.12-.01-.21-.02-.29-.06-.09-.06-.2-.07-.22-.2.24-.02.48.06.65.23-.03.04-.09.04-.14.03Z"/>
    <path class="cls-1" d="M6.88,22.55c-.09-.02-.2-.07-.29,0-.02.02-.04.06-.07.05-.02,0-.04-.03-.05-.05.06-.09.15-.15.23-.23l.22-.02c-.05.1-.08.17-.03.24Z"/>
    <path class="cls-1" d="M8.76,22.16c.02-.06.07-.13.06-.22-.16.1-.24.27-.33.43,0,.02.02.06.04.03-.04.05-.09.18-.17.15-.09-.04-.05-.18,0-.22.13-.12.22-.25.34-.37.08-.08.1-.23.25-.26.02.1-.07.52-.2.47Z"/>
    <path class="cls-5" d="M8.76,22.16c-.06.08-.16.17-.22.24-.02.03-.05-.01-.04-.03.09-.16.17-.33.33-.43,0,.1-.04.17-.06.22Z"/>
    <path class="cls-1" d="M4.16,22.52s.04.09,0,.11c-.11.07-.21-.02-.3-.07,0-.08.07-.09.14-.1.06,0,.09.04.15.06Z"/>
    <path class="cls-6" d="M7.93,22.78c0-.07-.08-.06-.13-.1.09-.05.16-.12.28-.16,0,.12-.08.21-.15.26Z"/>
    <path class="cls-2" d="M4.45,23.71s.04,0,.06,0c.01.04.04.11-.02.13-.03.01-.09,0-.14-.02-.05-.02-.04-.09,0-.1.03-.01.07,0,.1,0Z"/>
    <path class="cls-6" d="M7.9,22.84s0-.05.03-.04c0,.02-.02.02-.03.04Z"/>
    <path class="cls-3" d="M14.3,23.09s-.04.05-.07.07c-.05-.1,0-.22-.04-.32.03,0,.06,0,.09.04.02.07.03.14.02.21Z"/>
    <path class="cls-3" d="M14.26,23.42s-.02-.07-.03-.1c.04.01.02.07.03.1Z"/>
    <path class="cls-5" d="M19.57,18.21c-.09,0-.19,0-.2-.1.08-.04.16.03.2.1Z"/>
    <path class="cls-4" d="M21.44,19.36s.02.02.04.03c.18.32.43.6.64.9.15.2.26.4.46.59.13.12.27.25.36.43-.57-.42-1.02-.98-1.39-1.58-.1-.16-.21-.33-.18-.5.02.04.03.1.07.13Z"/>
    <path class="cls-2" d="M21.67,20.16s-.03.09-.04.13c-.19,0-.34-.21-.34-.41.13-.09.32.21.38.28Z"/>
    <path class="cls-1" d="M24.12,22.14s0,.1-.04.12c-.11.05-.26-.02-.3-.06s-.07-.12-.04-.16c.09-.14.27.05.39.1Z"/>
    <path class="cls-3" d="M22.6,21.82s.02.06.02.1c-.03.02-.06.02-.09,0l-.36-.38c.17.05.31.16.43.29Z"/>
    <path class="cls-3" d="M21.63,20.29s.04-.09.04-.13c.06.08.18.19.13.3-.07.03-.17-.09-.17-.17Z"/>
    <circle class="cls-4" cx="22.99" cy="21.32" r=".02"/>
    <path class="cls-1" d="M27.71,20.16c.05.11.11.24.21.33.14.12.21.28.14.34,0,0-.02,0-.04,0,0-.06-.05-.13-.09-.2-.05.41-.22.21-.07.58-.18.05-.42-.14-.44-.2,0-.02.16-.79.03-.89,0-.02.02-.07.02-.1s.04-.05.07-.03c.07.04.1.12.16.16Z"/>
    <path class="cls-4" d="M27.25,19.61c.02.06.06.12,0,.16-.18-.16-.52-.37-.73-.48-.05-.03-.09-.11-.16-.12.08-.08.17.02.25.06.23.12.43.24.63.37Z"/>
    <path class="cls-3" d="M28.03,20.83c.02.11,0,.24,0,.35-.03.01-.05.03-.07.04-.03,0-.06-.02-.08,0-.15-.37.03-.17.07-.58.04.07.08.13.09.2Z"/>
    <path class="cls-3" d="M27.26,19.93s.06.13.06.19c-.13.05-.25-.07-.29-.2-.03-.08-.06-.16,0-.24.1.07.15.18.22.26Z"/>
    <path class="cls-2" d="M26.26,23.45s-.09-.01-.12,0c0-.01,0-.05,0-.06.03-.16.2-.21.38-.19-.03.14-.12.23-.25.25Z"/>
    <path class="cls-1" d="M27.36,22.04c0-.08,0-.16-.07-.21.04-.09.03-.21.14-.29.22.21-.05.46-.07.5Z"/>
    <path class="cls-2" d="M28.02,21.67c0,.22-.02.45-.21.61-.02-.17.07-.28.11-.41l.05-.2h.05Z"/>
    <path class="cls-2" d="M27.59,22.19c-.14-.04.08-.48.22-.4-.03.15-.09.28-.22.4Z"/>
    <path class="cls-4" d="M26.21,19.17c-.2.05-.41,0-.6-.11.21-.04.41,0,.6.11Z"/>
    <path class="cls-3" d="M26.14,23.38s0,.04,0,.06c-.01.02-.02.07-.06.07-.04,0-.08,0-.11-.02s-.13,0-.15-.05c-.03-.08.07-.12.14-.14.06-.01.11.05.17.08Z"/>
    <path class="cls-2" d="M26.37,19.17c.07.01.11.09.16.12,0,.03-.04.07-.09.06-.1-.02-.18-.07-.2-.18.05-.02.1,0,.14,0Z"/>
    <path class="cls-1" d="M28.02,21.67h-.05s-.01-.44-.01-.44c.02-.02.05-.03.07-.04v.49Z"/>
    <path class="cls-1" d="M27.2,22.85c.02-.11.09-.16.17-.22.03.11-.06.21-.17.22Z"/>
    <path class="cls-3" d="M22.92,25.91s.08.05.12.06c-.02.05-.07.06-.13.05-.03,0-.06-.02-.05-.06,0-.03.04-.05.07-.05Z"/>
    <path class="cls-1" d="M24.82,25.3s-.03-.08-.09-.07l.1-.22c.05-.12,0-.22-.08-.31-.02-.02.03-.27.19-.23s.03.35.04.44c.09-.03.07-.11.13-.17.09.12-.18.73-.31.74.05-.08.08-.13.02-.19Z"/>
    <circle class="cls-6" cx="18.04" cy="22.25" r=".02"/>
    <path class="cls-2" d="M7.55,25.78c-.1,0-.2.04-.31.03-.05-.19.4-.22.46-.15.03.08-.1.11-.16.12Z"/>
    <path class="cls-4" d="M3.84,19.04c-.34.48-.32.38-.57.9l-.13.28c-.16.03.14-.78.16-.84,0,0,.38-.65.54-.35Z"/>
    <path class="cls-4" d="M3.11,20.34s.02.03.03.04c-.04.22.01.33-.1.54-.05.01-.09-.02-.1-.06,0-.13-.02-.5.17-.52Z"/>
    <path class="cls-1" d="M3.62,22.01v.07s-.02.04-.03.06c-.15.05-.29-.08-.32-.23,0-.04.03-.07.06-.08.14-.05.17.1.29.19Z"/>
    <path class="cls-3" d="M3.75,22.08s.02.02.03.02c.01.02.03.05.02.07,0,.03-.04.03-.07.04-.07.03-.13-.01-.14-.08.01-.02.02-.04.03-.06h.13Z"/>
    <path class="cls-4" d="M6.17,22.2c-.09,0-.04.15-.16.22-.14,0-.25.1-.4.12-.06,0-.12.05-.12.1-.08-.01-.2.01-.28.02-.11,0-.21-.09-.29-.16,0-.04.06-.06.07-.07.27.1.2-.02.57-.01.06,0,.11-.03.14-.06.02-.03.02-.08.01-.12.08-.02.42-.18.47-.08,0,.01-.02.03-.02.05Z"/>
    <path class="cls-1" d="M5.73,22.23s0,.08-.01.12c-.03.04-.08.07-.14.06-.37,0-.3.12-.57.01-.05-.16.3-.13.56-.23.07-.02.12.01.16.04Z"/>
    <path class="cls-1" d="M5.5,22.64s.17.01.13.1-.23.13-.32.1c-.08-.03-.08-.13-.09-.19.08,0,.2-.03.28-.02Z"/>
    <path class="cls-3" d="M6.64,22.26l-.03.03s-.08,0-.12-.02c0-.15.14-.23.25-.32.03.12-.03.23-.11.31Z"/>
    <path class="cls-3" d="M6.37,22.27c-.05.06-.13.09-.22.06l.04-.06s.06-.09.12-.08c.05,0,.06.07.06.09Z"/>
    <path class="cls-1" d="M5.35,22.11c-.13.02-.25.05-.39.03-.06-.05.36-.03.39-.03Z"/>
    <path class="cls-5" d="M14.16,25.65c0,.1.13.17.06.23-.07.07-.25-.38-.38-.46,0-.09-.09-.16-.05-.26.14.18.21.36.37.48Z"/>
    <path class="cls-6" d="M3.75,22.08h-.13s0-.07,0-.07c.02,0,.06,0,.08,0,.03,0,.05.03.05.07Z"/>
    <path class="cls-4" d="M5.25,18.24s0,.07-.02.09c-.02.03-.56.08-1.07.48-.07.06-.14.09-.22.07-.01-.03-.05-.05-.05-.08,0-.13.38-.3.5-.36.28-.13.56-.21.85-.19Z"/>
    <path class="cls-4" d="M8.5,20.44s.02,0,.04,0c0,.01,0,.05.02.03,0,.02,0,.03,0,.05-.06-.02-.32.34-.45.45-.06.05-.15.08-.16.16l-.12.04c-.02-.15.55-.49.61-.74.02,0,.03,0,.05,0Z"/>
    <path class="cls-5" d="M12.75,24.49v-.02c.09-.04.07.3,0,.34-.07-.1-.03-.21,0-.32Z"/>
    <path class="cls-5" d="M21.48,19.39s-.03-.02-.04-.03c.01,0,.03.02.04.03Z"/>
    <path class="cls-6" d="M4.84,25.57c-.08.07-.19.1-.31.09.08-.1.19-.13.31-.09Z"/>
    <path class="cls-3" d="M11.11,26.03s-.06-.02-.05-.05c0-.06.1-.12.12-.11.04.01.05.05.05.08,0,.05-.02.09-.12.08Z"/>
    <path class="cls-6" d="M21.09,25.71s-.02-.02-.03-.04c.01.01.02.03.03.04Z"/>
    <path class="cls-5" d="M27.16,23.83c.13-.06-.1.27-.24.26.04-.13.13-.21.24-.26Z"/>
    <path class="cls-1" d="M8.95,19.93s.02.03.04.03c.02,0,.05,0,.07,0,.03.02.04.07.03.11-.04.17-.19.23-.33.32-.07.05-.1.15-.19.12,0-.02,0-.03,0-.05,0-.02,0-.03-.02-.03-.01,0-.02,0-.04,0-.11-.16.34-.53.45-.51Z"/>
    <path class="cls-4" d="M9.5,19.26h.04c-.03.07-.04.16-.08.22-.05.03-.1.07-.14.13-.09.15-.23.24-.34.36-.02,0-.05,0-.04-.03.05-.1.46-.68.55-.68Z"/>
    <path class="cls-5" d="M9.66,19.04c.02.1-.08.15-.12.23h-.04c0-.11.07-.22.16-.23Z"/>
    <path class="cls-6" d="M26.42,25.74c0-.07.36.06.47.08-.17.03-.31.01-.47-.08Z"/>
    <path class="cls-5" d="M27.9,23.38c.06-.14.13-.26.2-.38,0,.15-.02.32-.2.38Z"/>
    <path class="cls-3" d="M24.9,22.3c.05.04.13.03.16.14-.13-.03-.22.07-.32.08-.16,0-.31-.1-.41-.18.11-.32.31.05.58-.03Z"/>
    <path class="cls-5" d="M3.41,23.24c-.16-.07-.36-.21-.37-.44.16.09.31.22.37.44Z"/>
    <path class="cls-5" d="M15.79,25.93c-.12-.03-.26-.07-.31-.19.14.03.21.13.31.19Z"/>
    <path class="cls-5" d="M2.53,22.13c-.08-.11-.1-.25-.04-.39.07.13.07.25.04.39Z"/>
    <path class="cls-6" d="M20.13,26.27s-.48-.2-.32-.24c.02,0,.03.01.06.01.06.11.17.11.26.22Z"/>
    <path class="cls-5" d="M26.61,21.43c0-.12.09-.21.13-.32,0,.13,0,.24-.13.32Z"/>
    <path class="cls-2" d="M14.44,9.29c-.13.11-1.14.97-1.21.89-.06-.06.2-.38.23-.41.29-.28.39-.63.52-1,.09-.29.39-.5.63-.66.15-.1.24-.2.37-.3.35-.3.74-.52,1.15-.7.04-.02.09,0,.11,0,.14.08-.19.6-.26.72-.1.18-.21.33-.36.48-.11.11-.19.25-.33.34-.29.2-.57.4-.84.63ZM15.74,7.68c-.15-.06-.29-.01-.39.13.15.06.32.04.39-.13ZM15.57,7.96c-.1-.03-.7.06-.53.23.07.07.48-.05.53-.23ZM14.77,8.54c.07.01.21-.13.18-.19.06-.12-.59.09-.48.2.12-.08.21-.02.3,0ZM15.27,8.37c-.02-.07-.11-.05-.14-.02-.02.02-.08.08-.04.13.04.05.2-.01.18-.1ZM14.33,8.82c.05.1.18-.04.23-.02.08.04.15.07.2,0,.03-.04.05-.16-.01-.15-.09,0-.14.06-.24.03-.07-.02-.21.08-.18.14ZM14.01,9.36c.18-.08.33-.16.43-.32-.11-.13-.58.21-.43.32Z"/>
    <path class="cls-5" d="M14.55,7.99c-.37.32-.38.18-.74.62-.12-.19.58-.61.74-.62Z"/>
    <path class="cls-5" d="M15.77,8.46c.06-.23.18-.23.33-.47.03.15-.1.45-.33.47Z"/>
    <path class="cls-5" d="M15.32,8.8c.09-.04.08.2-.38.27.09-.12.22-.2.38-.27Z"/>
    <path class="cls-6" d="M15.46,7.25c.13-.11.28-.23.48-.26-.14.08-.26.19-.48.26Z"/>
    <path class="cls-5" d="M13.52,9.36c.03-.13.11-.23.16-.36.03.14-.02.27-.16.36Z"/>
    <path class="cls-6" d="M14.87,7.77c.08-.13.21-.21.35-.28-.11.09-.2.2-.35.28Z"/>
    <circle class="cls-4" cx="18.05" cy="13.75" r=".35"/>
    <circle class="cls-4" cx="17.38" cy="14.21" r=".13"/>
    <circle class="cls-4" cx="12.77" cy="13.71" r=".35"/>
    <circle class="cls-4" cx="12.06" cy="14.15" r=".14"/>
    <path class="cls-6" d="M16.19,16.48c-.22.21-.51.31-.8.26-.27-.04-.53-.24-.65-.52.34-.32,1.29-.33,1.59.02.04.07-.08.19-.14.24Z"/>
    <path class="cls-1" d="M16.19,10.77c-.11-.14-.07-.29-.02-.43.09.11.12.28.02.43Z"/>
    <path class="cls-1" d="M14.5,23.67c0-.14-.08-.27-.06-.41.05.01.1.04.1.12v.25s-.02.04-.04.03Z"/>
    <path class="cls-4" d="M22.68,22.82s.02.09.03.12c-.09.05-.71-.6-.52-.54.01,0,.05,0,.07,0,.17.1.32.25.41.41Z"/>
    <path class="cls-6" d="M23.05,23.03c.02.05.06.12.12.15,0,.14-.52-.24-.46-.24-.02-.04,0-.09-.03-.12.14.02.25.14.37.21Z"/>
    <path class="cls-5" d="M9.12,20.93c-.06,0-.16-.03-.21.02-.17.16-.31.33-.49.46-.03.06-.08.09-.14.1-.15-.03-.05-.2-.16-.31-.04-.04-.11-.07-.16-.05,0-.08.1-.11.16-.16.13-.11.39-.47.45-.45.09.02.12-.08.19-.12.13-.09.28-.15.33-.32.01-.04,0-.09-.03-.11-.01-.01-.04,0-.07,0,.11-.12.25-.22.34-.36.04-.06.09-.1.14-.13.14-.03.3-.31.5-.39,0,.17-.08.42-.12.58-.17.63-.7.98-.72,1.26ZM9.38,19.94c.01-.07,0-.11.01-.17-.07.06-.12.13-.15.22.06.02.13,0,.14-.05Z"/>
    <path class="cls-3" d="M8.89,21.41s.02-.03.03-.04c0,.01-.02.03-.03.04Z"/>
    <path class="cls-5" d="M8.56,20.48s-.02-.02-.02-.03c.02,0,.03.01.02.03Z"/>
    <path class="cls-3" d="M15.57,7.96c-.05.18-.46.3-.53.23-.17-.17.42-.26.53-.23Z"/>
    <path class="cls-3" d="M14.01,9.36c-.15-.11.32-.45.43-.32-.1.16-.25.24-.43.32Z"/>
    <path class="cls-3" d="M14.77,8.54c-.09-.02-.18-.08-.3,0-.1-.11.54-.32.48-.2.03.06-.12.21-.18.19Z"/>
    <path class="cls-3" d="M14.33,8.82c-.03-.07.11-.16.18-.14.1.03.15-.02.24-.03.07,0,.04.12.01.15-.05.07-.12.04-.2,0-.05-.02-.19.11-.23.02Z"/>
    <path class="cls-3" d="M15.74,7.68c-.07.18-.24.2-.39.13.1-.14.24-.19.39-.13Z"/>
    <path class="cls-3" d="M15.27,8.37c.02.09-.13.15-.18.1-.04-.04.02-.11.04-.13.03-.02.12-.05.14.02Z"/>
    <path class="cls-3" d="M9.38,19.94c-.01.05-.08.07-.14.05.03-.09.08-.16.15-.22,0,.06,0,.1-.01.17Z"/>
  </g>
  <g>
    <path class="cls-3" d="M4.1,25.3s-.11.06-.16.07c-.12.01-.16.16-.23.21-.08.06-.44.02-.44.13s.32.07.34.07c.13-.04.15.07.22.1.49.19.78.19,1.27.09.19-.04.34,0,.52.02.34.04.56.23.91.3.66.14,1.32.17,1.99.13.13,0,.72-.14.75-.13.05.02.05.09.08.15.29.02.61-.03.9-.11.18.21.39.26.65.25.59-.01,1.14-.13,1.73-.22.27-.04.59,0,.83.11.22.09.4.23.65.16.11-.03.23.02.34.02l1.17.08c.22.01.41-.06.65,0,.37.09.75.08,1.12.05.3-.02.58-.04.88-.15.25-.1.51-.1.78-.03.5.12,1.31.29,1.78.09.19.04,1.2.39.99-.03v-.06c.54.16,1.63.09,2.2-.01l1.08-.2c.13-.02.24-.06.38-.03.18.04.51.08.66,0,.04-.02-.01-.1.02-.17.33.08.68.06,1.01,0,.19-.03.38-.03.56-.11.07-.03.12-.11.2-.12l.52-.06c-.17-.16-.38-.09-.55-.17-.1-.05-.18-.17-.27-.23.28-.06,1.99.06,1.94.43-.05.34-1.51.38-1.79.4-.01.06,0,.12-.02.14-.02.04-.08.03-.11.05-.27.17-.54.17-.84.22-.42.07-.81.15-1.25.12-.09,0-.19,0-.26.04.13.06.26.08.36.19.08.09.02.22-.08.27-.58.28-1.61.29-2.25.22-.15-.02-1.13-.1-.86-.45-.57.04-1.14.03-1.72.03h-.61c-.02-.06-.3-.11-.38-.07-.08.03-.18-.03-.26-.02,0-.02.01-.13-.03-.14-.11,0-.88.04-.86.16-.01,0-.03-.03-.05-.02-.02,0-.05.02-.04.06.16-.03.29.01.44.04.22.04.97.13.93.42-.05.31-1.2.37-1.47.38-.62.03-1.23.02-1.85-.09-.19-.03-.62-.11-.62-.33s.42-.25.56-.33l-1.28-.03c.14.4-1.09.52-1.32.54-1.05.09-2.08.07-3.13-.03-.51-.05-.98-.13-1.47-.23-.24-.05-.92-.14-.88-.45.01-.1.11-.14.19-.23-.72-.04-1.4,0-2.1-.12l-1.29-.21c-.17-.03-.28-.12-.42-.18-.28-.13-1.28.07-2.28-.37-.08-.04-.14-.11-.14-.18.02-.34,1.44-.43,1.71-.44ZM6.3,26.26c-.1-.03-.69-.19-.67-.06,0,.02,0,.04.04.05.59.23.75.04.63,0ZM25.69,26.46c-.09-.1-.32-.09-.32.05.06.07.27.02.32-.05ZM26.4,26.49c-.04-.16-.58.02-.61.05.21.07.44.08.61-.05ZM24.55,26.66c-.31-.1-.66-.08-.93.12.31.04.64.06.93-.12ZM9.85,26.74c-.05,0-.1,0-.16,0-.03,0-.09-.02-.1.02-.02,0-.07,0-.09,0,0-.04-.02-.04-.05-.04-.05,0-.06.03-.05.07-.02,0-.04.03-.06.03-.11-.03-.25.06-.27.21.32.09.65.09.96.08,0-.03-.02-.06,0-.08,0-.02.07-.04.08-.03.15.07.26-.02.36-.02.26,0,.5,0,.75.02.28.02.34-.04.36.04.05.19-1.19-.07-1.16.14.56.14,1.12.18,1.69.2.34.01,2.42.08,2.49-.23s-.77-.38-.9-.41c-1.61-.31-1.62.23-3.09.03-.15-.02-.65-.16-.75-.05ZM18.14,26.89s.02-.07,0-.08c-.17-.07-1.2.02-1.29.07-.24.12.97.2,1.29.01ZM25.05,27.13c.06-.11-.56-.25-.69-.2-.04-.13-1.73.15-1.26.27.28.07.57.11.86.1.2-.01,1.01-.02,1.09-.17ZM17.42,27.46c.1-.02.2,0,.32,0-.02.08-.13.07-.14.17.17,0,1.62-.02,1.57-.15-.04-.1-.47-.14-.61-.17-.35-.07-.71-.1-1.07-.06-.1.01-.84.16-.85.26,0,.11.47.13.56.09,0-.02-.03-.07,0-.09.07-.05.15-.04.21-.06Z"/>
    <path class="cls-3" d="M6,26.89c.04.28-1.19.32-1.19.02s1.15-.32,1.19-.02ZM5.59,26.85c-.17-.1-.34-.11-.49,0,.16.09.35.08.49,0Z"/>
    <path class="cls-3" d="M30.77,25.85s.02.03.04.03c.06,0,.11.04.14.06s.08.14.02.18c-.26.16-.67.16-.91-.03-.07-.05,0-.14.03-.17.03-.04.13-.03.17-.05.08,0,.14.05.15.15.09.03.19.04.28,0,.02-.06.02-.11.02-.16.02,0,.04,0,.06,0Z"/>
    <path class="cls-3" d="M1.16,25.68c.07.01.1.06.1.14.11.02.21.04.33.03l.05-.2c.13.03.34.08.31.23-.04.21-1.01.22-.94-.08.01-.06.09-.09.16-.12Z"/>
    <path class="cls-1" d="M21.59,27.49c.08.23-.67.21-.7.05-.03-.18.65-.19.7-.05Z"/>
    <path class="cls-3" d="M28,26.67s0,.1.04.13c.04.04.2-.02.23-.04.02-.02.02-.05.01-.08.06.02.13,0,.16.04.02.02.07.1.03.13-.31.19-.84.04-.69-.12.06-.07.15-.07.23-.07Z"/>
    <path class="cls-1" d="M19.49,27.06c-.3.04-.59,0-.89.03-.02-.13.75-.17.86-.16.04,0,.03.12.03.14Z"/>
    <path class="cls-1" d="M1.64,25.66l-.05.2c-.11.02-.22,0-.33-.03,0-.09-.04-.13-.1-.14.17-.04.33-.07.48-.03Z"/>
    <path class="cls-1" d="M30.71,25.85c0,.05,0,.1-.02.16-.09.03-.18.03-.28,0-.01-.1-.07-.14-.15-.15.1-.06.33-.08.45-.01Z"/>
    <path class="cls-1" d="M20.13,27.15s0,.05,0,.07c.03.12.2,0,.22.14-.48-.2-.24-.03-.6-.13-.04-.06.06-.11.14-.13-.04-.04-.09-.02-.14-.03.09-.04.36.01.38.07Z"/>
    <path class="cls-1" d="M6.68,27.25s.14.08.08.15c-.05.05-.18.04-.24,0-.04-.03-.02-.1-.03-.14.08-.01.13-.02.18-.02Z"/>
    <path class="cls-1" d="M28.27,26.68s0,.06-.01.08c-.02.02-.19.08-.23.04-.03-.04-.04-.09-.04-.13.1-.04.19-.02.28.01Z"/>
    <path class="cls-1" d="M9.34,26.83c-.15.22.94.05.89.07l.16-.05c-.18-.12-.36-.13-.54-.12.09-.11.59.03.75.05,1.48.2,1.48-.34,3.09-.03.13.03.96.12.9.41s-2.15.24-2.49.23c-.57-.02-1.12-.06-1.69-.2-.03-.22,1.21.05,1.16-.14-.02-.08-.08-.02-.36-.04-.25-.02-.49-.02-.75-.02-.11,0-.22.09-.36.02-.02,0-.07.02-.08.03,0,.02,0,.04,0,.08-.31.01-.64.02-.96-.08.02-.15.16-.23.27-.21ZM13.74,27.12c.06,0,.1-.05.1-.08-.03-.3-1.95-.19-1.72-.08.01,0,.03.04.05.05.52.11,1.05.17,1.58.11Z"/>
    <path class="cls-1" d="M17.74,27.46c.07,0,.16-.04.16-.12-.21-.07-.41-.02-.61.06.05.04.1.02.13.05-.07.02-.14.02-.21.06-.03.02,0,.06,0,.09-.09.04-.56.02-.56-.09,0-.1.74-.24.85-.26.36-.05.72-.01,1.07.06.14.03.57.07.61.17.05.13-1.4.15-1.57.15.02-.1.12-.1.14-.17ZM18.56,27.46c.19-.02-.12-.2-.43-.09.05.05.1.13.16.12l.27-.03Z"/>
    <path class="cls-1" d="M25.05,27.13c-.08.15-.9.16-1.09.17-.29.02-.58-.03-.86-.1-.47-.12,1.22-.4,1.26-.27.13-.05.76.09.69.2ZM24.54,27.07c-.14-.12-.29-.11-.45-.11-.57,0-.65.17-.47.18.31.01.61-.02.92-.07Z"/>
    <path class="cls-2" d="M18.14,26.89c-.31.19-1.53.11-1.29-.01.09-.05,1.12-.13,1.29-.07.02,0,.02.07,0,.08Z"/>
    <path class="cls-4" d="M9.85,26.74c.19-.02.36,0,.54.12l-.16.05c.06-.02-1.04.16-.89-.07.02,0,.04-.03.06-.03.04,0,.07-.01.1-.03.02,0,.07-.01.09,0,.04,0,.07-.02.1-.02.05,0,.1,0,.16,0Z"/>
    <path class="cls-2" d="M24.55,26.66c-.29.17-.62.16-.93.12.27-.2.61-.22.93-.12Z"/>
    <path class="cls-2" d="M6.3,26.26c.12.04-.04.22-.63,0-.03-.01-.04-.03-.04-.05-.02-.13.57.03.67.06Z"/>
    <path class="cls-5" d="M17.74,27.46c-.13,0-.22-.02-.32,0-.03-.03-.08-.01-.13-.05.2-.08.4-.13.61-.06,0,.08-.09.12-.16.12Z"/>
    <path class="cls-5" d="M26.4,26.49c-.18.12-.4.11-.61.05.03-.03.57-.2.61-.05Z"/>
    <path class="cls-2" d="M25.69,26.46c-.05.08-.26.12-.32.05,0-.15.23-.15.32-.05Z"/>
    <path class="cls-1" d="M9.5,26.77s-.06.03-.1.03c0-.04,0-.08.05-.07.03,0,.06,0,.05.04Z"/>
    <path class="cls-1" d="M9.69,26.74s-.06.03-.1.02c0-.04.07-.03.1-.02Z"/>
    <path class="cls-1" d="M5.59,26.85c-.14.09-.33.1-.49,0,.14-.12.32-.11.49,0Z"/>
    <path class="cls-4" d="M13.74,27.12c-.53.06-1.06,0-1.58-.11-.02,0-.04-.04-.05-.05-.22-.11,1.7-.22,1.72.08,0,.04-.04.08-.1.08Z"/>
    <path class="cls-6" d="M18.56,27.46l-.27.03c-.06,0-.11-.07-.16-.12.31-.11.62.07.43.09Z"/>
    <path class="cls-4" d="M24.54,27.07c-.31.05-.6.08-.92.07-.19,0-.11-.18.47-.18.16,0,.31-.01.45.11Z"/>
  </g>
</svg>